<svg xmlns="http://www.w3.org/2000/svg" viewBox="0 0 500 500"><g id="freepik--background-complete--inject-14"><path d="M222.09,457.22a2.28,2.28,0,0,0-2.25.85,6,6,0,0,0-8.91-7.53,6.2,6.2,0,0,0-11.15,5.33,7.43,7.43,0,0,0-6.51,9.48h40.49a8.27,8.27,0,0,0-8.44-3.48l-.66-2.31A3.17,3.17,0,0,0,222.09,457.22ZM195,461a.42.42,0,0,1,.42.42.42.42,0,1,1-.84,0A.42.42,0,0,1,195,461Zm.1,3.21a.84.84,0,1,1,.84-.84A.84.84,0,0,1,195.14,464.24Zm2.53-1.12a2.06,2.06,0,1,1,2.06-2.06A2.06,2.06,0,0,1,197.67,463.12Zm17.07-5.61a.86.86,0,0,1,0-1.72.86.86,0,1,1,0,1.72Zm-.6-4.17a2.06,2.06,0,1,1,2.06,2.06A2.06,2.06,0,0,1,214.14,453.34Zm3.4,4.84a1.2,1.2,0,1,1,1.19-1.2A1.2,1.2,0,0,1,217.54,458.18Z" style="fill:#f5f5f5"></path><rect x="34.95" y="182.59" width="16.52" height="16.52" style="fill:#e0e0e0"></rect><rect x="56.81" y="182.59" width="16.52" height="16.52" style="fill:#e0e0e0"></rect><rect x="78.67" y="182.59" width="16.52" height="16.52" style="fill:#f5f5f5"></rect><rect x="100.54" y="182.59" width="16.52" height="16.52" style="fill:#e0e0e0"></rect><rect x="122.4" y="182.59" width="16.52" height="16.52" style="fill:#e0e0e0"></rect><rect x="144.27" y="182.59" width="16.52" height="16.52" style="fill:#f5f5f5"></rect><rect x="166.13" y="182.59" width="16.52" height="16.52" style="fill:#e0e0e0"></rect><rect x="187.99" y="182.59" width="16.52" height="16.52" style="fill:#e0e0e0"></rect><rect x="209.86" y="182.59" width="16.52" height="16.52" style="fill:#f5f5f5"></rect><rect x="231.72" y="182.59" width="16.52" height="16.52" style="fill:#e0e0e0"></rect><rect x="34.95" y="203.67" width="16.52" height="16.52" style="fill:#e0e0e0"></rect><rect x="56.81" y="203.67" width="16.52" height="16.52" style="fill:#e0e0e0"></rect><rect x="78.67" y="203.67" width="16.52" height="16.52" style="fill:#e0e0e0"></rect><rect x="100.54" y="203.67" width="16.52" height="16.52" style="fill:#e0e0e0"></rect><rect x="122.4" y="203.67" width="16.52" height="16.52" style="fill:#e0e0e0"></rect><rect x="144.27" y="203.67" width="16.52" height="16.52" style="fill:#e0e0e0"></rect><rect x="166.13" y="203.67" width="16.52" height="16.52" style="fill:#e0e0e0"></rect><rect x="187.99" y="203.67" width="16.52" height="16.52" style="fill:#e0e0e0"></rect><rect x="209.86" y="203.67" width="16.52" height="16.52" style="fill:#e0e0e0"></rect><rect x="231.72" y="203.67" width="16.52" height="16.52" style="fill:#e0e0e0"></rect><rect x="34.95" y="224.74" width="16.52" height="16.52" style="fill:#e0e0e0"></rect><rect x="56.81" y="224.74" width="16.52" height="16.52" style="fill:#f5f5f5"></rect><rect x="78.67" y="224.74" width="16.52" height="16.52" style="fill:#e0e0e0"></rect><rect x="100.54" y="224.74" width="16.52" height="16.52" style="fill:#e0e0e0"></rect><rect x="122.4" y="224.74" width="16.52" height="16.52" style="fill:#e0e0e0"></rect><rect x="144.27" y="224.74" width="16.52" height="16.52" style="fill:#e0e0e0"></rect><rect x="166.13" y="224.74" width="16.52" height="16.52" style="fill:#e0e0e0"></rect><rect x="187.99" y="224.74" width="16.52" height="16.52" style="fill:#e0e0e0"></rect><rect x="209.86" y="224.74" width="16.52" height="16.52" style="fill:#e0e0e0"></rect><rect x="231.72" y="224.74" width="16.52" height="16.52" style="fill:#e0e0e0"></rect><rect x="34.95" y="245.81" width="16.52" height="16.52" style="fill:#e0e0e0"></rect><rect x="56.81" y="245.81" width="16.52" height="16.52" style="fill:#e0e0e0"></rect><rect x="78.67" y="245.81" width="16.52" height="16.52" style="fill:#e0e0e0"></rect><rect x="100.54" y="245.81" width="16.52" height="16.52" style="fill:#e0e0e0"></rect><rect x="122.4" y="245.81" width="16.52" height="16.52" style="fill:#e0e0e0"></rect><rect x="144.27" y="245.81" width="16.52" height="16.52" style="fill:#e0e0e0"></rect><rect x="166.13" y="245.81" width="16.52" height="16.52" style="fill:#e0e0e0"></rect><rect x="187.99" y="245.81" width="16.52" height="16.52" style="fill:#e0e0e0"></rect><rect x="209.86" y="245.81" width="16.52" height="16.52" style="fill:#f5f5f5"></rect><rect x="231.72" y="245.81" width="16.52" height="16.52" style="fill:#e0e0e0"></rect><rect x="34.95" y="266.88" width="16.52" height="16.52" style="fill:#e0e0e0"></rect><rect x="56.81" y="266.88" width="16.52" height="16.52" style="fill:#e0e0e0"></rect><rect x="78.67" y="266.88" width="16.52" height="16.52" style="fill:#e0e0e0"></rect><rect x="100.54" y="266.88" width="16.52" height="16.52" style="fill:#e0e0e0"></rect><rect x="122.4" y="266.88" width="16.52" height="16.52" style="fill:#e0e0e0"></rect><rect x="144.27" y="266.88" width="16.52" height="16.52" style="fill:#e0e0e0"></rect><rect x="166.13" y="266.88" width="16.52" height="16.52" style="fill:#e0e0e0"></rect><rect x="187.99" y="266.88" width="16.52" height="16.52" style="fill:#e0e0e0"></rect><rect x="209.86" y="266.88" width="16.52" height="16.52" style="fill:#e0e0e0"></rect><rect x="231.72" y="266.88" width="16.52" height="16.52" style="fill:#e0e0e0"></rect><rect x="34.95" y="287.96" width="16.52" height="16.52" style="fill:#f5f5f5"></rect><rect x="56.81" y="287.96" width="16.52" height="16.52" style="fill:#e0e0e0"></rect><rect x="78.67" y="287.96" width="16.52" height="16.52" style="fill:#f5f5f5"></rect><rect x="100.54" y="287.96" width="16.52" height="16.52" style="fill:#e0e0e0"></rect><rect x="122.4" y="287.96" width="16.52" height="16.52" style="fill:#e0e0e0"></rect><rect x="144.27" y="287.96" width="16.52" height="16.52" style="fill:#e0e0e0"></rect><rect x="166.13" y="287.96" width="16.52" height="16.52" style="fill:#e0e0e0"></rect><rect x="187.99" y="287.96" width="16.52" height="16.52" style="fill:#e0e0e0"></rect><rect x="209.86" y="287.96" width="16.52" height="16.52" style="fill:#e0e0e0"></rect><rect x="231.72" y="287.96" width="16.52" height="16.52" style="fill:#f5f5f5"></rect><rect x="34.95" y="309.03" width="16.52" height="16.52" style="fill:#e0e0e0"></rect><rect x="56.81" y="309.03" width="16.52" height="16.52" style="fill:#e0e0e0"></rect><rect x="78.67" y="309.03" width="16.52" height="16.52" style="fill:#e0e0e0"></rect><rect x="100.54" y="309.03" width="16.52" height="16.52" style="fill:#e0e0e0"></rect><rect x="122.4" y="309.03" width="16.52" height="16.52" style="fill:#e0e0e0"></rect><rect x="144.27" y="309.03" width="16.52" height="16.52" style="fill:#f5f5f5"></rect><rect x="166.13" y="309.03" width="16.52" height="16.52" style="fill:#e0e0e0"></rect><rect x="187.99" y="309.03" width="16.52" height="16.52" style="fill:#f5f5f5"></rect><rect x="209.86" y="309.03" width="16.52" height="16.52" style="fill:#e0e0e0"></rect><rect x="231.72" y="309.03" width="16.52" height="16.52" style="fill:#e0e0e0"></rect><rect x="34.95" y="330.1" width="16.52" height="16.52" style="fill:#e0e0e0"></rect><rect x="56.81" y="330.1" width="16.52" height="16.52" style="fill:#f5f5f5"></rect><rect x="78.67" y="330.1" width="16.52" height="16.52" style="fill:#e0e0e0"></rect><rect x="100.54" y="330.1" width="16.52" height="16.52" style="fill:#f5f5f5"></rect><rect x="122.4" y="330.1" width="16.52" height="16.52" style="fill:#e0e0e0"></rect><rect x="144.27" y="330.1" width="16.52" height="16.52" style="fill:#e0e0e0"></rect><rect x="166.13" y="330.1" width="16.52" height="16.52" style="fill:#e0e0e0"></rect><rect x="187.99" y="330.1" width="16.52" height="16.52" style="fill:#e0e0e0"></rect><rect x="209.86" y="330.1" width="16.52" height="16.52" style="fill:#e0e0e0"></rect><rect x="231.72" y="330.1" width="16.52" height="16.52" style="fill:#e0e0e0"></rect><rect x="34.95" y="351.17" width="16.52" height="16.52" style="fill:#e0e0e0"></rect><rect x="56.81" y="351.17" width="16.52" height="16.52" style="fill:#e0e0e0"></rect><rect x="78.67" y="351.17" width="16.52" height="16.52" style="fill:#e0e0e0"></rect><rect x="100.54" y="351.17" width="16.52" height="16.52" style="fill:#e0e0e0"></rect><rect x="122.4" y="351.17" width="16.52" height="16.52" style="fill:#e0e0e0"></rect><rect x="144.27" y="351.17" width="16.52" height="16.52" style="fill:#e0e0e0"></rect><rect x="166.13" y="351.17" width="16.52" height="16.52" style="fill:#e0e0e0"></rect><rect x="187.99" y="351.17" width="16.52" height="16.52" style="fill:#e0e0e0"></rect><rect x="209.86" y="351.17" width="16.52" height="16.52" style="fill:#f5f5f5"></rect><rect x="231.72" y="351.17" width="16.52" height="16.52" style="fill:#e0e0e0"></rect><rect x="330.11" y="34.83" width="75.05" height="78.24" style="fill:#e0e0e0"></rect><rect x="325.03" y="34.83" width="75.05" height="78.24" style="fill:#ebebeb"></rect><rect x="335.12" y="45.35" width="54.88" height="57.2" style="fill:#fafafa"></rect><path d="M335.12,102.93a10.3,10.3,0,0,1-1.37,1.56c-.88.92-2.12,2.16-3.5,3.52s-2.65,2.58-3.58,3.44a9.4,9.4,0,0,1-1.56,1.34,10.35,10.35,0,0,1,1.36-1.54c.88-.92,2.12-2.18,3.5-3.54s2.66-2.58,3.59-3.44A10.07,10.07,0,0,1,335.12,102.93Z" style="fill:#e0e0e0"></path><path d="M390,102.79a9.75,9.75,0,0,1,1.56,1.37c.92.88,2.17,2.12,3.53,3.5s2.57,2.65,3.44,3.58a10.84,10.84,0,0,1,1.34,1.56,10.07,10.07,0,0,1-1.55-1.36c-.92-.88-2.17-2.12-3.54-3.5s-2.58-2.66-3.44-3.59A10.07,10.07,0,0,1,390,102.79Z" style="fill:#e0e0e0"></path><path d="M389.84,45.5A12.06,12.06,0,0,1,391.22,44c.88-.92,2.11-2.17,3.49-3.53s2.65-2.58,3.58-3.44a9.81,9.81,0,0,1,1.57-1.34,10.59,10.59,0,0,1-1.37,1.55c-.88.92-2.12,2.17-3.5,3.53s-2.65,2.58-3.58,3.45A10,10,0,0,1,389.84,45.5Z" style="fill:#e0e0e0"></path><path d="M335,45.64a10.3,10.3,0,0,1-1.56-1.37c-.92-.88-2.16-2.12-3.52-3.5s-2.58-2.64-3.44-3.57a10.37,10.37,0,0,1-1.34-1.57A10.07,10.07,0,0,1,326.66,37c.91.88,2.17,2.12,3.53,3.51s2.58,2.65,3.44,3.58A10.07,10.07,0,0,1,335,45.64Z" style="fill:#e0e0e0"></path><path d="M389.84,102.55s0-.1,0-.27,0-.46,0-.8c0-.71,0-1.74,0-3.09,0-2.7,0-6.64,0-11.65,0-10-.06-24.29-.1-41.39l.18.18-54.72,0h0l.21-.2c0,21,0,40.64,0,57.2l-.18-.18,39.63.09,11.13.05,2.94,0h0l-2.91,0-11.08,0-39.75.09h-.18v-.18c0-16.56,0-36.21,0-57.2v-.21h.21l54.72,0H390v.18c0,17.14-.07,31.46-.09,41.5,0,5,0,8.92,0,11.62,0,1.32,0,2.34,0,3,0,.33,0,.59,0,.78A2.28,2.28,0,0,1,389.84,102.55Z" style="fill:#e0e0e0"></path><path d="M350.68,68.42h2.95s2.19-7.58,7.92-6.32,6.32,6.32,5.9,8.85a.88.88,0,0,0,.84,1.18c1.18.17,10,0,10,0s2.53,15-13.82,13.74-10.62-12.14-9.86-13.24S350.68,68.42,350.68,68.42Z" style="fill:#ebebeb"></path><path d="M370.23,76.58a8.26,8.26,0,0,1-5.93.86,6.7,6.7,0,0,0-3.23-.15,2.86,2.86,0,0,0-1.91,2.95l.18.43a5.88,5.88,0,0,0,10.89-4.09Z" style="fill:#e0e0e0"></path><path d="M357.52,68.19a.48.48,0,0,1-.48.48.49.49,0,0,1-.48-.48.48.48,0,0,1,.48-.48A.47.47,0,0,1,357.52,68.19Z" style="fill:#e0e0e0"></path><rect x="265.44" y="182.59" width="16.52" height="16.52" style="fill:#e0e0e0"></rect><rect x="287.3" y="182.59" width="16.52" height="16.52" style="fill:#e0e0e0"></rect><rect x="309.16" y="182.59" width="16.52" height="16.52" style="fill:#f5f5f5"></rect><rect x="331.03" y="182.59" width="16.52" height="16.52" style="fill:#e0e0e0"></rect><rect x="352.89" y="182.59" width="16.52" height="16.52" style="fill:#e0e0e0"></rect><rect x="374.75" y="182.59" width="16.52" height="16.52" style="fill:#f5f5f5"></rect><rect x="396.62" y="182.59" width="16.52" height="16.52" style="fill:#e0e0e0"></rect><rect x="418.48" y="182.59" width="16.52" height="16.52" style="fill:#e0e0e0"></rect><rect x="440.35" y="182.59" width="16.52" height="16.52" style="fill:#f5f5f5"></rect><rect x="462.21" y="182.59" width="16.52" height="16.52" style="fill:#e0e0e0"></rect><rect x="265.44" y="203.67" width="16.52" height="16.52" style="fill:#e0e0e0"></rect><rect x="287.3" y="203.67" width="16.52" height="16.52" style="fill:#e0e0e0"></rect><rect x="309.16" y="203.67" width="16.52" height="16.52" style="fill:#e0e0e0"></rect><rect x="331.03" y="203.67" width="16.52" height="16.52" style="fill:#e0e0e0"></rect><rect x="352.89" y="203.67" width="16.52" height="16.52" style="fill:#e0e0e0"></rect><rect x="374.75" y="203.67" width="16.52" height="16.52" style="fill:#e0e0e0"></rect><rect x="396.62" y="203.67" width="16.52" height="16.52" style="fill:#e0e0e0"></rect><rect x="418.48" y="203.67" width="16.52" height="16.52" style="fill:#e0e0e0"></rect><rect x="440.35" y="203.67" width="16.52" height="16.52" style="fill:#e0e0e0"></rect><rect x="462.21" y="203.67" width="16.52" height="16.52" style="fill:#e0e0e0"></rect><rect x="265.44" y="224.74" width="16.52" height="16.52" style="fill:#e0e0e0"></rect><rect x="287.3" y="224.74" width="16.52" height="16.52" style="fill:#f5f5f5"></rect><rect x="309.16" y="224.74" width="16.52" height="16.52" style="fill:#e0e0e0"></rect><rect x="331.03" y="224.74" width="16.52" height="16.52" style="fill:#e0e0e0"></rect><rect x="352.89" y="224.74" width="16.52" height="16.52" style="fill:#e0e0e0"></rect><rect x="374.75" y="224.74" width="16.52" height="16.52" style="fill:#e0e0e0"></rect><rect x="396.62" y="224.74" width="16.52" height="16.52" style="fill:#e0e0e0"></rect><rect x="418.48" y="224.74" width="16.52" height="16.52" style="fill:#e0e0e0"></rect><rect x="440.35" y="224.74" width="16.52" height="16.52" style="fill:#e0e0e0"></rect><rect x="462.21" y="224.74" width="16.52" height="16.52" style="fill:#e0e0e0"></rect><rect x="265.44" y="245.81" width="16.52" height="16.52" style="fill:#e0e0e0"></rect><rect x="287.3" y="245.81" width="16.52" height="16.52" style="fill:#e0e0e0"></rect><rect x="309.16" y="245.81" width="16.52" height="16.52" style="fill:#e0e0e0"></rect><rect x="331.03" y="245.81" width="16.52" height="16.52" style="fill:#e0e0e0"></rect><rect x="352.89" y="245.81" width="16.52" height="16.52" style="fill:#e0e0e0"></rect><rect x="374.75" y="245.81" width="16.52" height="16.52" style="fill:#e0e0e0"></rect><rect x="396.62" y="245.81" width="16.52" height="16.52" style="fill:#e0e0e0"></rect><rect x="418.48" y="245.81" width="16.52" height="16.52" style="fill:#e0e0e0"></rect><rect x="440.35" y="245.81" width="16.52" height="16.52" style="fill:#f5f5f5"></rect><rect x="462.21" y="245.81" width="16.52" height="16.52" style="fill:#e0e0e0"></rect><rect x="265.44" y="266.88" width="16.52" height="16.52" style="fill:#e0e0e0"></rect><rect x="287.3" y="266.88" width="16.52" height="16.52" style="fill:#e0e0e0"></rect><rect x="309.16" y="266.88" width="16.52" height="16.52" style="fill:#e0e0e0"></rect><rect x="331.03" y="266.88" width="16.52" height="16.52" style="fill:#e0e0e0"></rect><rect x="352.89" y="266.88" width="16.52" height="16.52" style="fill:#e0e0e0"></rect><rect x="374.75" y="266.88" width="16.52" height="16.52" style="fill:#e0e0e0"></rect><rect x="396.62" y="266.88" width="16.52" height="16.52" style="fill:#e0e0e0"></rect><rect x="418.48" y="266.88" width="16.52" height="16.52" style="fill:#e0e0e0"></rect><rect x="440.35" y="266.88" width="16.52" height="16.52" style="fill:#e0e0e0"></rect><rect x="462.21" y="266.88" width="16.52" height="16.52" style="fill:#e0e0e0"></rect><rect x="265.44" y="287.96" width="16.52" height="16.52" style="fill:#f5f5f5"></rect><rect x="287.3" y="287.96" width="16.52" height="16.52" style="fill:#e0e0e0"></rect><rect x="309.16" y="287.96" width="16.52" height="16.52" style="fill:#f5f5f5"></rect><rect x="331.03" y="287.96" width="16.52" height="16.52" style="fill:#e0e0e0"></rect><rect x="352.89" y="287.96" width="16.52" height="16.52" style="fill:#e0e0e0"></rect><rect x="374.75" y="287.96" width="16.52" height="16.52" style="fill:#e0e0e0"></rect><rect x="396.62" y="287.96" width="16.52" height="16.52" style="fill:#e0e0e0"></rect><rect x="418.48" y="287.96" width="16.52" height="16.52" style="fill:#e0e0e0"></rect><rect x="440.35" y="287.96" width="16.52" height="16.52" style="fill:#e0e0e0"></rect><rect x="462.21" y="287.96" width="16.52" height="16.52" style="fill:#f5f5f5"></rect><rect x="265.44" y="309.03" width="16.52" height="16.52" style="fill:#e0e0e0"></rect><rect x="287.3" y="309.03" width="16.52" height="16.52" style="fill:#e0e0e0"></rect><rect x="309.16" y="309.03" width="16.52" height="16.52" style="fill:#e0e0e0"></rect><rect x="331.03" y="309.03" width="16.52" height="16.52" style="fill:#e0e0e0"></rect><rect x="352.89" y="309.03" width="16.52" height="16.52" style="fill:#e0e0e0"></rect><rect x="374.75" y="309.03" width="16.52" height="16.52" style="fill:#f5f5f5"></rect><rect x="396.62" y="309.03" width="16.52" height="16.52" style="fill:#e0e0e0"></rect><rect x="418.48" y="309.03" width="16.52" height="16.52" style="fill:#f5f5f5"></rect><rect x="440.35" y="309.03" width="16.52" height="16.52" style="fill:#e0e0e0"></rect><rect x="462.21" y="309.03" width="16.52" height="16.52" style="fill:#e0e0e0"></rect><rect x="265.44" y="330.1" width="16.52" height="16.52" style="fill:#e0e0e0"></rect><rect x="287.3" y="330.1" width="16.52" height="16.52" style="fill:#f5f5f5"></rect><rect x="309.16" y="330.1" width="16.52" height="16.52" style="fill:#e0e0e0"></rect><rect x="331.03" y="330.1" width="16.52" height="16.52" style="fill:#f5f5f5"></rect><rect x="352.89" y="330.1" width="16.52" height="16.52" style="fill:#e0e0e0"></rect><rect x="374.75" y="330.1" width="16.52" height="16.52" style="fill:#e0e0e0"></rect><rect x="396.62" y="330.1" width="16.52" height="16.52" style="fill:#e0e0e0"></rect><rect x="418.48" y="330.1" width="16.52" height="16.52" style="fill:#e0e0e0"></rect><rect x="440.35" y="330.1" width="16.52" height="16.52" style="fill:#e0e0e0"></rect><rect x="462.21" y="330.1" width="16.52" height="16.52" style="fill:#e0e0e0"></rect><rect x="265.44" y="351.17" width="16.52" height="16.52" style="fill:#e0e0e0"></rect><rect x="287.3" y="351.17" width="16.52" height="16.52" style="fill:#e0e0e0"></rect><rect x="309.16" y="351.17" width="16.52" height="16.52" style="fill:#e0e0e0"></rect><rect x="331.03" y="351.17" width="16.52" height="16.52" style="fill:#e0e0e0"></rect><rect x="352.89" y="351.17" width="16.52" height="16.52" style="fill:#e0e0e0"></rect><rect x="374.75" y="351.17" width="16.52" height="16.52" style="fill:#e0e0e0"></rect><rect x="396.62" y="351.17" width="16.52" height="16.52" style="fill:#e0e0e0"></rect><rect x="418.48" y="351.17" width="16.52" height="16.52" style="fill:#e0e0e0"></rect><rect x="440.35" y="351.17" width="16.52" height="16.52" style="fill:#f5f5f5"></rect><rect x="462.21" y="351.17" width="16.52" height="16.52" style="fill:#e0e0e0"></rect></g><g id="freepik--Carpet--inject-14"><path d="M427.72,466a67.47,67.47,0,0,0-17.94-4.6c-2.32-.26-4.65-.4-7-.54l-2.36-.15-9.05-.55a8,8,0,0,0-3.68.34,6.86,6.86,0,0,1-1.82.75c-1.43.16-2.79-1.32-4.14-.83-.77.28-1.23,1.13-2,1.39-1.14.38-2.22-.64-3.36-1s-2.54,0-3.82,0-2.81-.55-3-1.81c-.28,1.23-2,1.38-3.21.94s-2.43-1.2-3.62-.77a12,12,0,0,1-1.66.8c-1.56.31-2.72-1.79-4.31-1.75-1,0-1.79.93-2.71,1.38a3.36,3.36,0,0,1-4.26-1.35c0,1.66-2.06,2.52-3.71,2.44s-3.37-.65-4.93-.11c-1,.35-2,1.17-3,.92s-1.64-1.39-2.66-1.47c-1.2-.09-2.08,1.34-3.28,1.29-.91-.05-1.59-1-2.5-1.07-1.43-.16-2.54,1.68-4,1.46-1.11-.18-1.74-1.55-2.86-1.69a4.78,4.78,0,0,0-2.12.64,3.74,3.74,0,0,1-4.47-1.72c-.34,1.14-1.91,1.29-3.06,1s-2.41-.83-3.46-.27c-.43.23-.76.62-1.2.86-1.27.68-2.78-.21-3.94-1.07a8.77,8.77,0,0,0-6.8,3.72,5.46,5.46,0,0,0-4.1-1.21c-1.43.29-2.65,1.86-2.11,3.22Z" style="fill:#FF725E"></path></g><g id="freepik--Floor--inject-14"><path d="M481.64,465.57c0,.15-104.61.26-233.63.26s-233.65-.11-233.65-.26S119,465.31,248,465.31,481.64,465.43,481.64,465.57Z" style="fill:#263238"></path></g><g id="freepik--Character--inject-14"><path d="M159.22,103.26a5.23,5.23,0,0,0-6.67,2.86,5.12,5.12,0,0,0-8.81,4.59,4.39,4.39,0,0,0,.25,8.67l-.52-.64a44.67,44.67,0,0,0,8.09.3,15.17,15.17,0,0,0,7.6-2.53,9.19,9.19,0,0,0,4-6.75A6.66,6.66,0,0,0,159.22,103.26Z" style="fill:#fff"></path><path d="M159.26,103.14a5.6,5.6,0,0,0-5.94,1.43c-.18.21-.62,1.17-.77,1.22s-.93-.63-1.18-.77a5.58,5.58,0,0,0-3.49-.65,5.27,5.27,0,0,0-4.32,4.41c-.07.46.15,1.25,0,1.64s-1.17.64-1.51.88a4.75,4.75,0,0,0-1.89,2.69,4.59,4.59,0,0,0,3.8,5.51.12.12,0,0,0,.12-.21,3.89,3.89,0,0,1-.32-.39l-.17-.2a.85.85,0,0,0,.77.25,18.79,18.79,0,0,0,2.7.22,28.46,28.46,0,0,0,5.46-.11,13.79,13.79,0,0,0,7.82-3.36,8.74,8.74,0,0,0,2.9-6.92,6.74,6.74,0,0,0-4-5.63c-.15-.06-.28.16-.13.22a6.54,6.54,0,0,1,3.86,5.74,8.65,8.65,0,0,1-3.26,6.77c-4.51,3.8-10.83,3.27-16.29,2.74-.12,0-.15.14-.09.21l.53.64.12-.21a4.27,4.27,0,0,1-.25-8.43.12.12,0,0,0,.08-.16,5,5,0,0,1,8.6-4.46.13.13,0,0,0,.21-.06,5.15,5.15,0,0,1,6.52-2.77C159.34,103.44,159.41,103.19,159.26,103.14Z" style="fill:#e0e0e0"></path><path d="M188,116.11a3.85,3.85,0,0,0-2.6-3.56,3.23,3.23,0,0,0-3.86,1.83,3.24,3.24,0,0,0-3.3-2.21,4.77,4.77,0,0,0-3.53,2.17,8.37,8.37,0,0,0-1.22,3A7.31,7.31,0,0,0,175,125.7c1,.9,2.55,1.48,3.51.59a4.84,4.84,0,1,0,7.43-6.2A4.81,4.81,0,0,0,188,116.11Z" style="fill:#fff"></path><path d="M188.16,116.11a4,4,0,0,0-2.88-3.73,3.37,3.37,0,0,0-3.83,2h.24a3.32,3.32,0,0,0-2.77-2.26,4.45,4.45,0,0,0-3.7,1.47c-1.18,1.23-1.49,2.8-2.07,4.34a7.56,7.56,0,0,0-.31,4.21c.48,2.3,2.62,5.57,5.36,4.53.38-.14.36,0,.7.3a4.91,4.91,0,0,0,.63.47,5.43,5.43,0,0,0,1.81.67A4.9,4.9,0,0,0,186,120l0,.2a5.08,5.08,0,0,0,2.2-4.09.13.13,0,0,0-.25,0,4.8,4.8,0,0,1-2.08,3.87.13.13,0,0,0,0,.2,4.72,4.72,0,1,1-7.26,6,.12.12,0,0,0-.17,0c-1.83,1.51-4.07-1.09-4.77-2.6a7.38,7.38,0,0,1-.32-5.35c.13-.38.3-.74.42-1.12a12,12,0,0,1,.54-1.63,5.73,5.73,0,0,1,2-2.48c1.76-1.18,4.51-.88,5.21,1.39,0,.13.19.11.24,0a3.13,3.13,0,0,1,3.71-1.74,3.77,3.77,0,0,1,2.51,3.44C187.91,116.27,188.17,116.27,188.16,116.11Z" style="fill:#e0e0e0"></path><path d="M170.27,180.54c-2.75-7.1-7.47-8.52-7.47-8.52l-8.07-2.31-25.18,11.54s-11.89,9.31-13.86,12.86-1.6,7.37-2.34,11.07c-.92,4.56,1.74,9.6-.23,14.57s-5.53,31.43-3.17,42.08,4.2,16.33,4.4,17.4-15.88,61.21-15.88,61.21-7.08,28-5.51,35.14S130,443,130,443h0l6.71,13.34s-16.3,13.09-15.19,16.55l33.59-15.81-5.87-20.84h0s-5.67-28.2-9.8-39.91-13.77-23.07-13.77-23.07l-1-4.26s6.77-10.9,10.71-18.71,13.49-32.05,13.49-32.05l6.69-8s9.57-12.66,11.21-19.35c2.82-11.49-1.71-21.39-4-25.12s-8.59-11.83-9.37-15.91a84.91,84.91,0,0,1-.79-11.85l15.74-39S173,187.64,170.27,180.54Z" style="fill:#ffbe9d"></path><path d="M145.54,467.46l30.62-2.53L171,419c-.47-9.83-2.77-33.47-5.76-40.95-3.95-9.88-8-19.82-8-19.82s2.4-22,2.83-30.22-2.36-20.51-2.06-20.92-1-10.08-1-10.08l-30.46,41.2c-.21.79,5.46,32.58,5.46,32.58l22,67.86,5.9,20.2S146,463.85,145.54,467.46Z" style="fill:#ffbe9d"></path><path d="M143.43,136a8.1,8.1,0,0,1,.62-8.68,1.08,1.08,0,0,0,0-1.7,6,6,0,0,1-1.15-4.6,4.64,4.64,0,0,1,3-3.55c-1.79-1.76-1.35-5.08.62-6.64a6.29,6.29,0,0,1,7.07-.14,3.57,3.57,0,0,1,2.28-3.61,7.1,7.1,0,0,1,4.51-.06c2,.52,4.1,1.77,4.43,3.8.64-1.09,2.14-1.32,3.38-1.08a6.91,6.91,0,0,1,5.29,7.53,6.37,6.37,0,0,1,3.82.21,3,3,0,0,1,1.81,3.11,3.77,3.77,0,0,1,3.65-.22,4.58,4.58,0,0,1,2.26,1.53,2.23,2.23,0,0,1,.11,2.58,3.6,3.6,0,0,1,.09,7.17,4.58,4.58,0,0,1-3,7.21,1.24,1.24,0,0,1,0,2,2.46,2.46,0,0,1-2.23.23q-1.26,3.81-2.54,7.62a16.37,16.37,0,0,1-2.14,4.69A5.56,5.56,0,0,1,171,155.8" style="fill:#263238"></path><path d="M145.93,128.68c2.37-6,11-10,16.92-7.4l18.68,10.21-1.14,3.29L166,177.34l-26.55,2.16,5.82-15.83s-7.44-3.84-5.75-14.63C140.33,143.67,143.29,135.38,145.93,128.68Z" style="fill:#ffbe9d"></path><path d="M145,137.35c.11.22,1.35-.2,2.76.27s2.23,1.5,2.44,1.38,0-.42-.32-.89a3.71,3.71,0,0,0-1.88-1.32,3.59,3.59,0,0,0-2.26,0C145.24,137,145,137.24,145,137.35Z" style="fill:#263238"></path><path d="M159,141.86c.11.23,1.35-.19,2.76.27s2.23,1.51,2.44,1.38,0-.41-.32-.89A3.84,3.84,0,0,0,162,141.3a3.66,3.66,0,0,0-2.26,0C159.17,141.5,158.92,141.76,159,141.86Z" style="fill:#263238"></path><path d="M151.64,147.23a9.66,9.66,0,0,0-2.17-1.16c-.35-.15-.67-.34-.65-.6a2,2,0,0,1,.59-1c.62-.76,1.28-1.56,2-2.41,2.75-3.44,4.87-6.31,4.73-6.42s-2.48,2.59-5.24,6l-1.92,2.44a2.21,2.21,0,0,0-.64,1.36,1,1,0,0,0,.42.72,2.82,2.82,0,0,0,.59.28A9.82,9.82,0,0,0,151.64,147.23Z" style="fill:#263238"></path><path d="M145.24,163.67a27.42,27.42,0,0,0,14.93.78s-6,6-15.92,1.71Z" style="fill:#eb996e"></path><path d="M151.13,150.84a2.69,2.69,0,0,1,2.6-.21,2.44,2.44,0,0,1,1.33,1.38,1.57,1.57,0,0,1-.43,1.73,1.79,1.79,0,0,1-2-.14,5.55,5.55,0,0,1-1.46-1.66,1.49,1.49,0,0,1-.27-.55.51.51,0,0,1,.17-.53" style="fill:#eb996e"></path><path d="M155.49,149.56c-.23-.09-.73,1.44-2.39,2.11s-3.25,0-3.34.18.27.42,1,.66a4.07,4.07,0,0,0,2.75-.06,3.54,3.54,0,0,0,1.91-1.81C155.65,150,155.6,149.58,155.49,149.56Z" style="fill:#263238"></path><path d="M161.24,133.48c0,.43,1.49.7,3.09,1.44s2.8,1.63,3.13,1.35c.15-.13,0-.57-.39-1.12a5.83,5.83,0,0,0-2.12-1.61,5.54,5.54,0,0,0-2.61-.51C161.65,133.07,161.24,133.28,161.24,133.48Z" style="fill:#263238"></path><path d="M148.18,129.69c.15.4,1.23.38,2.41.75s2.1.91,2.43.65c.16-.13.1-.5-.23-1a3.69,3.69,0,0,0-3.9-1.13C148.37,129.21,148.12,129.5,148.18,129.69Z" style="fill:#263238"></path><path d="M154,118.22a5.24,5.24,0,0,0,5,8.35,2,2,0,0,0-.77,2.58,3.89,3.89,0,0,0,2.21,1.88,7.29,7.29,0,0,0,6-.37,5.3,5.3,0,0,0,5.89,6.23,4.86,4.86,0,1,0,6.25,6.92,5.42,5.42,0,0,0,4.61-7.31,3.25,3.25,0,0,0,2.75-1.74,6.55,6.55,0,0,0,.7-3.3,10.4,10.4,0,0,0-3-7.56,7,7,0,0,0-7.72-1.35,1.55,1.55,0,0,1-.89.27c-.43-.07-.68-.5-.86-.89-.82-1.72-1.67-3.56-3.26-4.61a5.13,5.13,0,0,0-6.32.73,6,6,0,0,0-5.29-4.77c-2.55-.09-5,2.32-4.64,4.84" style="fill:#263238"></path><path d="M173.15,143.36a22.73,22.73,0,0,0-.78,6.51,2.82,2.82,0,0,0,1,2.48,2,2,0,0,0,2.32-.46,5.25,5.25,0,0,0,1.14-2.24,66.31,66.31,0,0,0,1.87-8.83" style="fill:#263238"></path><path d="M174.59,146.5c.15,0,5.77-.13,4.16,5.13s-6.56,2.57-6.53,2.41S174.59,146.5,174.59,146.5Z" style="fill:#ffbe9d"></path><path d="M174.44,152.54s.07.09.21.21a1,1,0,0,0,.68.22c.62,0,1.36-.77,1.67-1.71a3.12,3.12,0,0,0,.14-1.4,1.11,1.11,0,0,0-.47-.91.49.49,0,0,0-.62.09c-.11.12-.11.24-.14.24s-.09-.12,0-.33a.6.6,0,0,1,.31-.27.75.75,0,0,1,.55,0,1.37,1.37,0,0,1,.7,1.11,3.18,3.18,0,0,1-.13,1.57,2.46,2.46,0,0,1-2,1.86,1,1,0,0,1-.79-.39C174.41,152.67,174.42,152.54,174.44,152.54Z" style="fill:#eb996e"></path><path d="M151.61,122.17s-.14.06-.41.06a2.94,2.94,0,0,1-1.09-.23,2.88,2.88,0,0,1-1.3-1.06,1.34,1.34,0,0,1-.2-1,1,1,0,0,1,.79-.81l0,.27h-.1a4.35,4.35,0,0,1-3.26-1.69,3.58,3.58,0,0,1-.56-1,1.18,1.18,0,0,1-.1-.41,9.28,9.28,0,0,0,.81,1.28,4.38,4.38,0,0,0,3.12,1.53h.09l1.36.06-1.34.22a.77.77,0,0,0-.56.6,1.12,1.12,0,0,0,.15.82,2.68,2.68,0,0,0,1.16,1A4.62,4.62,0,0,0,151.61,122.17Z" style="fill:#fff"></path><path d="M156.57,150.49s-.06-.12-.15-.29a1.6,1.6,0,0,0-.47-.54c-.47-.33-1-.5-.93-.58a1.49,1.49,0,0,1,1.1.36,1.29,1.29,0,0,1,.49.7C156.66,150.36,156.61,150.5,156.57,150.49Z" style="fill:#eb996e"></path><path d="M148.94,236.09a59.1,59.1,0,0,0-6.15,1.48,59.35,59.35,0,0,0-5.77,2.6,5.46,5.46,0,0,1,1.49-1.15,20.19,20.19,0,0,1,8.55-2.93A5.5,5.5,0,0,1,148.94,236.09Z" style="fill:#eb996e"></path><path d="M162.49,299.73a5.29,5.29,0,0,1-.62.52c-.42.31-1,.81-1.78,1.49a32.81,32.81,0,0,0-5.46,6.5,52.91,52.91,0,0,0-5.44,11.37c-1.57,4.49-2.63,9.65-4.54,14.86a57.2,57.2,0,0,1-3.43,7.31c-1.24,2.29-2.49,4.47-3.71,6.52-2.45,4.11-4.76,7.74-6.68,10.8l-4.52,7.26c-.51.82-.92,1.48-1.22,2a3.67,3.67,0,0,1-.46.67,5.19,5.19,0,0,1,.37-.73c.25-.46.63-1.15,1.14-2,1-1.75,2.49-4.26,4.38-7.35s4.15-6.73,6.57-10.84c1.21-2.06,2.45-4.24,3.68-6.52a58.08,58.08,0,0,0,3.39-7.25c1.9-5.15,3-10.32,4.58-14.84A51.19,51.19,0,0,1,154.32,308a31.37,31.37,0,0,1,5.64-6.46,19.54,19.54,0,0,1,1.85-1.42A4,4,0,0,1,162.49,299.73Z" style="fill:#eb996e"></path><path d="M156.65,358.36a6.45,6.45,0,0,1-2.25,1.18,6.25,6.25,0,0,1-2.44.7,6.33,6.33,0,0,1,2.25-1.18A6.42,6.42,0,0,1,156.65,358.36Z" style="fill:#eb996e"></path><path d="M159.38,115.93s-47.76,6.31-50.48,7.23A12.49,12.49,0,0,0,103,128a27.17,27.17,0,0,0-1.9,6.21c-.36,2.54,7.1,22.53,17.6,33.45A256.57,256.57,0,0,0,139.48,187l16.81-10.85a4.57,4.57,0,0,0,.72-7.11l-32.24-31.53,36.82-13.27Z" style="fill:#ffbe9d"></path><path d="M160.88,124.52l4.93,1.84,9.31-.58,3.3-2.81s-.77-2.24-2.23-2a10,10,0,0,0-3,1.06l-1.94-.29,2.23-4.17,1.85-1.94a3.25,3.25,0,0,0-.19-1.52,1.86,1.86,0,0,0-1.5-.74,3.06,3.06,0,0,0-.87.52s.53-2.12-.52-2.68-2.29.58-2.29.58.16-1.68-.37-2a2.25,2.25,0,0,0-1.29-.29,14.18,14.18,0,0,0-1.41.71l-.87,0s-.26-2.15-.74-2.33a1.67,1.67,0,0,0-1.21,0,9.27,9.27,0,0,0-1.39.86l-1.55,2.29s-4.29,5.26-4.49,5.36Z" style="fill:#ffbe9d"></path><path d="M142.73,191.72a17.4,17.4,0,0,1,0-1.78,11.24,11.24,0,0,0-1-4.09,11.51,11.51,0,0,0-1.86-2.9,17.1,17.1,0,0,0-1.57-1.48l.14-.06c-.05.25-.09.38-.12.38s0-.13-.06-.4v-.15l.15.08a8,8,0,0,1,1.77,1.34,10,10,0,0,1,2,3,9.71,9.71,0,0,1,.86,4.31A3.86,3.86,0,0,1,142.73,191.72Z" style="fill:#eb996e"></path><path d="M138.51,185.05a3.72,3.72,0,0,1-.51-.32l-1.39-1c-1.22-.87-2.94-2.17-5-3.82a102.58,102.58,0,0,1-15.06-14.4,77.51,77.51,0,0,1-11-17.71c-1.07-2.45-1.89-4.45-2.37-5.86l-.57-1.62a2.38,2.38,0,0,1-.16-.58,4.35,4.35,0,0,1,.26.54c.17.42.39.94.66,1.59.54,1.38,1.4,3.36,2.51,5.78a82.54,82.54,0,0,0,11,17.53,111.11,111.11,0,0,0,14.89,14.44c2.07,1.69,3.75,3,4.93,3.95l1.34,1.07A2.17,2.17,0,0,1,138.51,185.05Z" style="fill:#eb996e"></path><path d="M166.55,185.05a3.41,3.41,0,0,1-.3-.58l-.79-1.69-2.85-6.23-1-2.05a8.85,8.85,0,0,0-1.26-2c-1.1-1.27-2.41-2.54-3.78-3.87-2.75-2.66-5.84-5.51-9.08-8.51-6.38-6.14-12-11.78-16.16-15.86l-4.84-4.85L125.2,138a3.92,3.92,0,0,1-.43-.49,3,3,0,0,1,.5.42c.36.32.81.74,1.37,1.27l5,4.73,16.25,15.74c3.24,3,6.33,5.86,9.07,8.54,1.36,1.35,2.65,2.63,3.77,3.94a8.77,8.77,0,0,1,1.29,2.15c.35.71.66,1.4,1,2.06,1.19,2.65,2.09,4.81,2.71,6.31l.69,1.73A3.05,3.05,0,0,1,166.55,185.05Z" style="fill:#eb996e"></path><path d="M190,134.62c-.69-1.41-2.82-2-3.91-.9a2.71,2.71,0,0,0-2.8-1.85,3.43,3.43,0,0,0-2.74,2.12,4.67,4.67,0,0,0,.09,3.54,3.38,3.38,0,1,0-2.16,6.39h0c.36,2.3,2.53,4.28,4.73,3.5a4.16,4.16,0,0,0,2.12-5.75,12.43,12.43,0,0,0,3.82-2.68A4.19,4.19,0,0,0,190,134.62Z" style="fill:#fff"></path><path d="M190.1,134.56a2.7,2.7,0,0,0-4.1-.93l.21.06a2.89,2.89,0,0,0-4.16-1.56c-2,1.08-2.28,3.5-1.53,5.43l.15-.15a3.6,3.6,0,0,0-4.81,2.71,3.72,3.72,0,0,0,.92,2.87,4.19,4.19,0,0,0,1.25.91c.53.29.55,1,.84,1.57,1.07,2,3.51,3,5.42,1.49a4.35,4.35,0,0,0,1.56-2.66,4.12,4.12,0,0,0,0-1.4,3.83,3.83,0,0,0-.19-.74c-.14-.37-.2-.39.16-.63,1.41-.92,2.89-1.57,3.83-3.05a4.16,4.16,0,0,0,.42-3.92c-.06-.15-.27,0-.21.12,1.44,3.31-2.2,5.61-4.63,6.88a.13.13,0,0,0,0,.17,4.07,4.07,0,0,1-1.55,5.34c-2.37,1.3-4.66-.9-5.07-3.18a.14.14,0,0,0-.09-.09,3.39,3.39,0,0,1-2.21-4.38,3.42,3.42,0,0,1,4.31-1.77.13.13,0,0,0,.15-.15,4.14,4.14,0,0,1,1-4.85,2.67,2.67,0,0,1,4.25,1.11.13.13,0,0,0,.21.05,2.46,2.46,0,0,1,3.71.87A.12.12,0,1,0,190.1,134.56Z" style="fill:#e0e0e0"></path><path d="M159.92,255.54a7.21,7.21,0,0,0-5.26-13.42l-1.08-1.2a5.56,5.56,0,0,0-6.81,8.78,9.2,9.2,0,0,0-5.79,6,7.16,7.16,0,0,0,2.58,7.67,5.89,5.89,0,0,0,7.76-1,7.64,7.64,0,0,0,6.69,4.32,6.34,6.34,0,0,0,6.07-4.83A5.44,5.44,0,0,0,159.92,255.54Z" style="fill:#fff"></path><path d="M159.92,255.54a3.7,3.7,0,0,1,1.72.59,5.7,5.7,0,0,1,2.65,4.28,5.3,5.3,0,0,1-1,3.54,6.64,6.64,0,0,1-3.46,2.57c-3,1.09-7.05-.62-8.76-4.1l.39,0a5.77,5.77,0,0,1-4.37,2.12,6.06,6.06,0,0,1-4.77-2,7.43,7.43,0,0,1-1.89-5.09,8,8,0,0,1,2.08-5.25,10.15,10.15,0,0,1,4.14-2.82l-.08.45a5.8,5.8,0,0,1,7.11-9.16v0h0l1.08,1.2-.25-.06a7.42,7.42,0,0,1,4.84,0,7.87,7.87,0,0,1,3.59,2.49,6.52,6.52,0,0,1,1.43,3.55,7.7,7.7,0,0,1-3.1,6.83,5.7,5.7,0,0,1-1.42.74,12.81,12.81,0,0,0,1.34-.85,7.49,7.49,0,0,0,2.51-3.58,7.1,7.1,0,0,0,.36-3.11,6.37,6.37,0,0,0-1.4-3.36,7.64,7.64,0,0,0-3.44-2.33,7,7,0,0,0-4.55,0l-.14,0-.1-.11-1.09-1.19,0,0a5.56,5.56,0,0,0-7.17.69,5.5,5.5,0,0,0,.67,7.69l.36.29-.44.16a9.67,9.67,0,0,0-3.92,2.67,7.57,7.57,0,0,0-1.95,4.91,7,7,0,0,0,1.74,4.75,5.6,5.6,0,0,0,4.38,1.82,5.36,5.36,0,0,0,4-1.91l.23-.3.16.34c1.59,3.28,5.39,4.94,8.22,3.94a6.34,6.34,0,0,0,3.31-2.39,5,5,0,0,0,.95-3.33,5.36,5.36,0,0,0-4.09-4.9Z" style="fill:#e0e0e0"></path><path d="M157.62,304.21a8.42,8.42,0,0,0-5.72-4.36,6.18,6.18,0,0,0-6.39,2.79,4.94,4.94,0,0,0,1.58,6.51c-3.25-1.26-7.25,1.07-8.12,4.44a7.82,7.82,0,0,0,4.3,8.63,10,10,0,0,0,9.89-1.19,5.15,5.15,0,0,0,3.75,6.39,6.2,6.2,0,0,0,6.75-3.74,7.81,7.81,0,0,0-1.44-7.84,5.1,5.1,0,0,0-.91-10.15,2.81,2.81,0,1,0-4.94-2" style="fill:#fff"></path><path d="M156.37,303.71a1.93,1.93,0,0,1,.11-.71,3,3,0,0,1,1.32-1.57,3.22,3.22,0,0,1,1.46-.44,2.53,2.53,0,0,1,1.72.61,3.14,3.14,0,0,1,1,1.86,2.93,2.93,0,0,1-.57,2.33l-.13-.26a5.3,5.3,0,0,1,.95,10.54l.14-.37a8.4,8.4,0,0,1,2,5.37,6.92,6.92,0,0,1-.65,3,6.55,6.55,0,0,1-2.05,2.45,6.36,6.36,0,0,1-3,1.22,5.14,5.14,0,0,1-3.3-.69,5.78,5.78,0,0,1-2.25-2.61,4.83,4.83,0,0,1-.19-3.51l.4.3a12,12,0,0,1-1.12.71,10.22,10.22,0,0,1-8.12.86,8.31,8.31,0,0,1-5.27-5.62,6.88,6.88,0,0,1,0-3.79,6.42,6.42,0,0,1,2-3.06,7.06,7.06,0,0,1,3.09-1.6,5.84,5.84,0,0,1,3.32.21l-.19.38a4.9,4.9,0,0,1-2.27-4.24,5,5,0,0,1,1.81-3.94,6.47,6.47,0,0,1,3.53-1.5,6.77,6.77,0,0,1,3.21.45,8.52,8.52,0,0,1,3.54,2.76,6.42,6.42,0,0,1,.82,1.35s-.28-.48-.92-1.27a8.61,8.61,0,0,0-3.53-2.61,6.58,6.58,0,0,0-3.09-.39,6.23,6.23,0,0,0-3.33,1.47,4.67,4.67,0,0,0-1.65,3.68,4.48,4.48,0,0,0,2.1,3.87l-.19.39a5.46,5.46,0,0,0-3.06-.18,6.68,6.68,0,0,0-2.89,1.52,6.07,6.07,0,0,0-1.82,2.84,6.52,6.52,0,0,0,0,3.53,7.8,7.8,0,0,0,5,5.26,9.69,9.69,0,0,0,7.69-.82c.38-.22.75-.45,1.07-.68l.67-.48-.27.77a4.87,4.87,0,0,0,2.22,5.51,5.23,5.23,0,0,0,5.78-.5,6,6,0,0,0,1.9-2.25,6.54,6.54,0,0,0,.63-2.8,8,8,0,0,0-1.88-5.08l-.26-.31.4-.06a5,5,0,0,0,3.35-2.25,4.67,4.67,0,0,0,.69-3.68,5.17,5.17,0,0,0-4.92-3.85l-.35,0,.23-.27a2.57,2.57,0,0,0,.53-2.08,2.82,2.82,0,0,0-.9-1.72,2.23,2.23,0,0,0-1.56-.59,3.05,3.05,0,0,0-2.7,1.83C156.4,303.46,156.4,303.71,156.37,303.71Z" style="fill:#e0e0e0"></path><path d="M160.37,201a2.48,2.48,0,0,0,2-2,4.3,4.3,0,0,0-.55-2.9,5.12,5.12,0,0,0-2.47-2.35,3.3,3.3,0,0,0-3.28.41,2.46,2.46,0,0,0-.57,3.12l-.16.36a6.21,6.21,0,0,0-5.34,0,4.14,4.14,0,0,0-2.12,4.63,3.13,3.13,0,0,0,4.41,1.82,5.46,5.46,0,0,0-1.25,5,4,4,0,0,0,3.95,2.92,3.16,3.16,0,0,0,2.78-3.74,3.82,3.82,0,1,0,2.61-7.18Zm-4.06,8.77a.5.5,0,0,1-.5-.5.51.51,0,1,1,1,0A.5.5,0,0,1,156.31,209.76Zm2.06-2.82a.31.31,0,1,1,.31-.31A.31.31,0,0,1,158.37,206.94Zm1.59-4.88a.51.51,0,1,1,0,1,.51.51,0,0,1,0-1Zm.23,4.26a1.13,1.13,0,1,1,1.13-1.13A1.13,1.13,0,0,1,160.19,206.32Z" style="fill:#fff"></path><path d="M108,391.47a5.09,5.09,0,0,0,3.33-2.79,14.84,14.84,0,0,0,1.23-4.3,6.27,6.27,0,0,0,6.39-10.12,6.67,6.67,0,0,0,3.53-3.77,4.91,4.91,0,0,0-1-4.94,3.92,3.92,0,0,0-4.85-.61,20.14,20.14,0,0,0-2.25,2.36c-.79.75-2.08,1.22-2.94.55a4.41,4.41,0,0,1-1-1.84,4.91,4.91,0,0,0-5.72-2.5v-2.85c-1.49-2.39-4.12-1.54-6.06.5a4.85,4.85,0,0,0,1.1,7.25,8.59,8.59,0,0,0-3.8,8.46c.65,3.21,4.08,5.76,7.26,4.95a9.22,9.22,0,0,0-.35,6.43C103.62,390.3,105.8,391.91,108,391.47ZM99.89,376a.47.47,0,1,1-.14-.65A.47.47,0,0,1,99.89,376Zm15.6,6.87a1.66,1.66,0,1,1-.49-2.3A1.67,1.67,0,0,1,115.49,382.89Zm2.24-2.58a.64.64,0,1,1-.19-.88A.63.63,0,0,1,117.73,380.31ZM99,363.32a1.75,1.75,0,1,1,.52,2.42A1.76,1.76,0,0,1,99,363.32Zm2,5.23a.94.94,0,0,1,1.31-.28,1,1,0,1,1-1.31.28Zm13,9.48a1.09,1.09,0,0,1,1.83,1.18,1.09,1.09,0,0,1-1.83-1.18Zm-14.71-6.18a1.91,1.91,0,1,1,.57,2.63A1.9,1.9,0,0,1,99.35,371.85Zm-2.33,2a1,1,0,1,1,.28,1.32A1,1,0,0,1,97,373.87ZM96.9,376a.48.48,0,1,1,.14.66A.48.48,0,0,1,96.9,376Zm12,9.87a1.15,1.15,0,1,1,.34,1.58A1.14,1.14,0,0,1,108.94,385.85Zm.53,2.37a.55.55,0,0,1,.77-.16.56.56,0,0,1,.17.77.56.56,0,0,1-.94-.61Z" style="fill:#fafafa"></path><path d="M140.42,208.43a21.71,21.71,0,0,0-7.8-1.63,10.51,10.51,0,0,0-.55-13.11,5.76,5.76,0,0,0-7.33-8.79l.21-1.46a6.93,6.93,0,0,0-11.17,6.94,7.05,7.05,0,0,0-1,14,8.51,8.51,0,0,0,13.11,10.8c1.17,3.54,2.84,7.58,6.44,8.55,2.6.7,5.33-.54,7.58-2,2.51-1.67,5-4.11,5-7.12C144.86,211.94,142.83,209.61,140.42,208.43ZM107.81,196c-.09-.54.42-1.46,1-1.41a2.74,2.74,0,0,1,1,.16,1,1,0,0,1,.61.76,1.09,1.09,0,0,1-.11.49,1.53,1.53,0,0,1-1.26.9A1.17,1.17,0,0,1,107.81,196Zm2.5,2.83a.89.89,0,0,1-.72.52.66.66,0,0,1-.67-.52c0-.3.23-.82.54-.8a1.59,1.59,0,0,1,.57.1.52.52,0,0,1,.34.42A.55.55,0,0,1,110.31,198.84Zm1.24-5.18a.86.86,0,0,1-.72.51.64.64,0,0,1-.67-.51c0-.31.23-.83.54-.8a1.84,1.84,0,0,1,.57.09.55.55,0,0,1,.34.43A.55.55,0,0,1,111.55,193.66Zm28.17,17.89a.86.86,0,0,1-.72.51.66.66,0,0,1-.67-.51c-.05-.31.23-.83.54-.81a1.59,1.59,0,0,1,.57.1.54.54,0,0,1,.34.43A.57.57,0,0,1,139.72,211.55Zm1.71,4.74a1.34,1.34,0,0,1-1.37-1c-.1-.62.48-1.68,1.11-1.64a3.2,3.2,0,0,1,1.15.2,1.11,1.11,0,0,1,.7.87,1.16,1.16,0,0,1-.13.57A1.74,1.74,0,0,1,141.43,216.29Z" style="fill:#fff"></path><path d="M125.8,184.28a1.07,1.07,0,0,1-.23-.19l-.66-.61h0a19.57,19.57,0,0,0-2.3-.84,8.72,8.72,0,0,0-3.61-.34,5,5,0,0,0-2,.78,5.75,5.75,0,0,0-1.64,1.81,11.39,11.39,0,0,0-1.34,5.48v.22l-.22,0-1.13-.06c-.38,0-.75.07-1.14.1a4.7,4.7,0,0,0-2.09,1,5.31,5.31,0,0,0-1.48,1.94,9.12,9.12,0,0,0-.77,2.47,11.51,11.51,0,0,0-.15,1.33c0,.22,0,.45,0,.66l.09.66a6,6,0,0,0,1,2.5,8.35,8.35,0,0,0,4.73,3l.39.1-.25.32a8.67,8.67,0,0,0-1.42,3.47,7.34,7.34,0,0,0-.16,1.92,6.83,6.83,0,0,0,.48,1.89,8.84,8.84,0,0,0,6.42,5.38,9,9,0,0,0,7.59-2.09l.29-.27.11.38a16.36,16.36,0,0,0,2.52,5.69,7.16,7.16,0,0,0,2.11,1.93,5.91,5.91,0,0,0,2.58.76,9.45,9.45,0,0,0,4.81-1.23,16.17,16.17,0,0,0,3.52-2.5,9.53,9.53,0,0,0,2.05-2.84,8.19,8.19,0,0,0,.9-2.44,3.7,3.7,0,0,0-.32-2.13,1.9,1.9,0,0,1,.27.5,3.2,3.2,0,0,1,.21,1.65,8.14,8.14,0,0,1-.86,2.53,9.66,9.66,0,0,1-2,2.94,16.55,16.55,0,0,1-3.57,2.61,9.73,9.73,0,0,1-5,1.32,6.35,6.35,0,0,1-2.77-.8,7.62,7.62,0,0,1-2.26-2,17,17,0,0,1-2.63-5.84l.4.11a9.22,9.22,0,0,1-14.82-3.45,7,7,0,0,1-.52-2A7.79,7.79,0,0,1,111,208a12.4,12.4,0,0,1,.57-1.94,6.39,6.39,0,0,1,1-1.77l.14.42a8.88,8.88,0,0,1-5-3.21,6.59,6.59,0,0,1-1.1-2.71l-.09-.72c0-.25,0-.48,0-.72,0-.46.1-.92.17-1.38a9.5,9.5,0,0,1,.83-2.58,5.63,5.63,0,0,1,1.61-2.09,5.22,5.22,0,0,1,2.29-1.06c.41,0,.82-.11,1.22-.1l1.18.08-.23.2a11.75,11.75,0,0,1,1.45-5.65,5.89,5.89,0,0,1,1.77-1.9A5.42,5.42,0,0,1,119,182a8.75,8.75,0,0,1,3.7.43,16.5,16.5,0,0,1,2.3.93h0l.62.65A1.07,1.07,0,0,1,125.8,184.28Z" style="fill:#e0e0e0"></path><path d="M140.25,270.05a6,6,0,0,0-4.46-.5,7.12,7.12,0,0,0,.47-10.05,6.9,6.9,0,1,0-8-11.15l.32.47a11,11,0,0,0-6.77-2.45,6.5,6.5,0,0,0-5.86,3.7c-.94,2.26.14,5.28,2.45,6.06a9.1,9.1,0,0,0-2,1.72,7.65,7.65,0,0,0-8.84,10.47A9.05,9.05,0,0,0,111,285.73a9.15,9.15,0,0,0,16.28,8.21,8.32,8.32,0,0,0,9.8-12.8,5.93,5.93,0,0,0,3.18-11.09Z" style="fill:#fff"></path><path d="M131.06,261.82a12.75,12.75,0,0,0-4.22.84,9.71,9.71,0,0,0-3.7,2.73,9.84,9.84,0,0,0-2.18,5.15c0,.19,0,.39,0,.57l0,.36-.33-.13a7.17,7.17,0,0,0-5.28,0,6.78,6.78,0,0,0-3.29,2.84,7.45,7.45,0,0,0-1,2.81c-.1.7-.09,1.1-.13,1.1a2.78,2.78,0,0,1-.07-1.12,7.22,7.22,0,0,1,4.32-6.06,7.51,7.51,0,0,1,5.66-.09l-.36.24c0-.2,0-.4,0-.61a10,10,0,0,1,2.32-5.4,9.76,9.76,0,0,1,3.93-2.76,9.29,9.29,0,0,1,3.18-.61A3.31,3.31,0,0,1,131.06,261.82Z" style="fill:#e0e0e0"></path><path d="M110.44,286.84a2.87,2.87,0,0,1-.65,0,8.82,8.82,0,0,1-1.76-.49,11,11,0,0,1-5-4.29v0a8.33,8.33,0,0,1-1.36-5.56,13.86,13.86,0,0,1,.65-3.17,10.13,10.13,0,0,1,1.66-3,10,10,0,0,1,3.76-2.93l-.13.33a7.6,7.6,0,0,1,.43-6.56,7.11,7.11,0,0,1,4.12-3.27,7.36,7.36,0,0,1,3.49-.21,4.9,4.9,0,0,1,.9.26c.2.07.3.12.3.14s-.43-.12-1.23-.22a7.58,7.58,0,0,0-3.36.34,6.82,6.82,0,0,0-3.83,3.17,7.2,7.2,0,0,0-.36,6.15l.1.23-.23.1a9.88,9.88,0,0,0-3.56,2.79,10.87,10.87,0,0,0-2.22,5.88,8,8,0,0,0,1.22,5.28h0a11.18,11.18,0,0,0,4.71,4.27A19.86,19.86,0,0,0,110.44,286.84Z" style="fill:#e0e0e0"></path><path d="M135.79,269.55a1.74,1.74,0,0,1,.37-.06,8.52,8.52,0,0,1,1.08,0,7,7,0,0,1,3.79,1.45,6.74,6.74,0,0,1,1.82,2.29,6,6,0,0,1,.51,1.59,3.5,3.5,0,0,1-.08,1.81,7.62,7.62,0,0,1-2.11,3.27,5.85,5.85,0,0,1-3.89,1.79l.17-.4a7.26,7.26,0,0,1,1.44,6.86,9.49,9.49,0,0,1-1.65,3.51,8.37,8.37,0,0,1-3.2,2.43,8.27,8.27,0,0,1-6.88.09l.35-.12a7.51,7.51,0,0,1-4.19,4,9.79,9.79,0,0,1-5.32.46,9.29,9.29,0,0,1-4.31-2,9.94,9.94,0,0,1-2.52-3.25,10.61,10.61,0,0,1-1-5.73,7,7,0,0,1,.48-2.06s-.21.73-.3,2.08a10.74,10.74,0,0,0,1.16,5.56,9.82,9.82,0,0,0,2.47,3.1,8.92,8.92,0,0,0,4.15,1.89,9.39,9.39,0,0,0,5-.47,7,7,0,0,0,3.9-3.71l.11-.25.24.12a7.83,7.83,0,0,0,6.44-.12,7.74,7.74,0,0,0,3-2.27,8.83,8.83,0,0,0,1.56-3.31,6.79,6.79,0,0,0-1.27-6.41l-.41-.41h.58a5.49,5.49,0,0,0,3.59-1.64,7.13,7.13,0,0,0,2-3.06,3.18,3.18,0,0,0,.1-1.64,5.76,5.76,0,0,0-.46-1.51,6.52,6.52,0,0,0-1.69-2.21,7,7,0,0,0-3.63-1.52C136.3,269.53,135.79,269.6,135.79,269.55Z" style="fill:#e0e0e0"></path></g><g id="freepik--Shelf--inject-14"><rect x="199.94" y="222.88" width="16.91" height="27.35" rx="2.14" transform="translate(-35.07 36.28) rotate(-9.18)" style="fill:#FF725E"></rect><path d="M203,219.57h6.21a1.05,1.05,0,0,1,1.05,1.05V223a0,0,0,0,1,0,0H202a0,0,0,0,1,0,0v-2.41a1.05,1.05,0,0,1,1.05-1.05Z" transform="matrix(0.99, -0.16, 0.16, 0.99, -32.67, 35.72)" style="fill:#FF725E"></path><rect x="209.4" y="226.38" width="7.33" height="18.09" transform="translate(-34.83 37.01) rotate(-9.18)" style="fill:#fafafa"></rect><path d="M210.5,222.27a34.7,34.7,0,0,1-8.42,1.36,17,17,0,0,1,4.17-.95A17.07,17.07,0,0,1,210.5,222.27Z" style="fill:#263238"></path><path d="M232.49,238.21h0a2.32,2.32,0,0,1-2.32-2.32v-5.82a2.32,2.32,0,0,1,2.32-2.33h0a2.32,2.32,0,0,1,2.32,2.33v5.82A2.32,2.32,0,0,1,232.49,238.21Z" style="fill:#455a64"></path><path d="M194.24,238.21h0a2.32,2.32,0,0,1-2.32-2.32v-5.82a2.32,2.32,0,0,1,2.32-2.33h0a2.32,2.32,0,0,1,2.32,2.33v5.82A2.32,2.32,0,0,1,194.24,238.21Z" style="fill:#455a64"></path><path d="M232.72,252.1H194.31a6.31,6.31,0,0,1-6.3-6.3V231.71h51V245.8A6.31,6.31,0,0,1,232.72,252.1ZM189,232.71V245.8a5.3,5.3,0,0,0,5.3,5.3h38.41a5.31,5.31,0,0,0,5.3-5.3V232.71Z" style="fill:#455a64"></path><rect x="188.63" y="234.61" width="49.28" height="1" style="fill:#455a64"></rect><rect x="188.63" y="240.18" width="49.89" height="1" style="fill:#455a64"></rect><rect x="188.63" y="246.1" width="49.28" height="1" style="fill:#455a64"></rect><path d="M193.41,232.3v18.61a.63.63,0,0,0,1.25,0V232.3a.63.63,0,0,0-1.25,0Z" style="fill:#455a64"></path><path d="M198.76,232.3v18.61a.63.63,0,0,0,1.25,0V232.3a.63.63,0,0,0-1.25,0Z" style="fill:#455a64"></path><path d="M204.27,232.3v18.61a.63.63,0,0,0,1.25,0V232.3a.63.63,0,0,0-1.25,0Z" style="fill:#455a64"></path><path d="M209.79,232.3v18.61a.63.63,0,0,0,1.25,0V232.3a.63.63,0,0,0-1.25,0Z" style="fill:#455a64"></path><path d="M215.31,232.3v18.61a.63.63,0,0,0,1.25,0V232.3a.63.63,0,0,0-1.25,0Z" style="fill:#455a64"></path><path d="M220.83,232.3v18.61a.63.63,0,0,0,1.25,0V232.3a.63.63,0,0,0-1.25,0Z" style="fill:#455a64"></path><path d="M226.35,232.3v18.61a.63.63,0,0,0,1.25,0V232.3a.63.63,0,0,0-1.25,0Z" style="fill:#455a64"></path><path d="M231.87,232.3v18.61a.63.63,0,0,0,1.25,0V232.3a.63.63,0,0,0-1.25,0Z" style="fill:#455a64"></path></g><g id="freepik--towel-rack--inject-14"><rect x="321.55" y="125.85" width="3.8" height="167.8" rx="1.34" style="fill:#455a64"></rect><rect x="408.86" y="125.85" width="3.8" height="167.8" rx="1.34" style="fill:#455a64"></rect><rect x="323.45" y="141.75" width="87.31" height="3" style="fill:#455a64"></rect><rect x="323.45" y="167.96" width="87.31" height="3" style="fill:#455a64"></rect><rect x="323.45" y="194.17" width="87.31" height="3" style="fill:#455a64"></rect><path d="M340.07,218.06v97.61h60.35V218.06Z" style="fill:#FF725E"></path><g style="opacity:0.30000000000000004"><path d="M340.07,218.06v97.61h60.35V218.06Z"></path></g><rect x="323.45" y="220.39" width="87.31" height="3" style="fill:#455a64"></rect><rect x="323.45" y="246.6" width="87.31" height="3" style="fill:#455a64"></rect><rect x="323.45" y="272.81" width="87.31" height="3" style="fill:#455a64"></rect><path d="M334.81,218.06v80.7h60.35v-80.7Z" style="fill:#FF725E"></path><path d="M343.46,297.58c-.13-.07.08-.74.46-1.51s.79-1.33.92-1.27-.07.74-.46,1.51S343.59,297.64,343.46,297.58Z" style="fill:#263238"></path><path d="M347.44,296.94c-.14,0-.16-.56-.05-1.2s.31-1.14.45-1.12.17.57.06,1.2S347.59,297,347.44,296.94Z" style="fill:#263238"></path><path d="M350.58,297.14c-.14.05-.48-.62-.94-1.41s-.86-1.43-.74-1.53.71.42,1.19,1.27S350.71,297.1,350.58,297.14Z" style="fill:#263238"></path><path d="M369,254.53c-.14,0-.48-.83-.58-2s.08-2.05.22-2a5.73,5.73,0,0,1,.3,2A5.8,5.8,0,0,1,369,254.53Z" style="fill:#263238"></path><path d="M371.37,253.26c-.14,0-.36-.72-.48-1.65s-.12-1.69,0-1.71.36.72.48,1.64S371.51,253.24,371.37,253.26Z" style="fill:#263238"></path><path d="M374.72,252.42c-.14.05-.43-.37-.66-.95s-.31-1.1-.18-1.15.43.37.66,1S374.85,252.37,374.72,252.42Z" style="fill:#263238"></path><path d="M376.85,277.83c-.14,0-.12-.62,0-1.32s.41-1.24.55-1.21.12.63,0,1.33S377,277.87,376.85,277.83Z" style="fill:#263238"></path><path d="M381,277.61c-.12.07-.53-.41-.72-1.15s-.07-1.37.07-1.36.26.56.43,1.23S381.16,277.54,381,277.61Z" style="fill:#263238"></path><path d="M384.17,277.83c-.13.06-.46-.34-.9-.78s-.84-.78-.77-.91.63,0,1.14.54S384.3,277.77,384.17,277.83Z" style="fill:#263238"></path><path d="M345.94,231.83c-.13-.07.15-.79.38-1.69s.36-1.66.51-1.66.26.82,0,1.79S346.06,231.9,345.94,231.83Z" style="fill:#263238"></path><path d="M348.47,231.42c-.13,0-.14-.72.16-1.51s.78-1.3.9-1.22-.13.68-.41,1.41S348.62,231.44,348.47,231.42Z" style="fill:#263238"></path><path d="M351,231.84c-.14,0-.41-.45-.47-1.12s.12-1.21.26-1.19.2.53.26,1.14S351.14,231.8,351,231.84Z" style="fill:#263238"></path><path d="M378.29,299.66c-.14,0-.26-.51-.26-1.15s.12-1.16.26-1.16.26.52.26,1.16S378.44,299.66,378.29,299.66Z" style="fill:#263238"></path><path d="M380.48,300.93c-.14,0-.31-.64-.36-1.46s0-1.48.16-1.49.3.64.36,1.46S380.62,300.92,380.48,300.93Z" style="fill:#263238"></path><path d="M384.66,301.74c-.14.05-.5-.61-.8-1.48s-.45-1.6-.31-1.65.49.62.8,1.48S384.79,301.69,384.66,301.74Z" style="fill:#263238"></path><path d="M372.68,216.91c.14,0,.47.58.75,1.39s.4,1.52.26,1.56-.47-.57-.75-1.39S372.54,217,372.68,216.91Z" style="fill:#263238"></path><path d="M375.28,218c.15,0,.12.82.09,1.79s-.06,1.77-.21,1.79-.34-.79-.31-1.81S375.14,217.94,375.28,218Z" style="fill:#263238"></path><path d="M379,216.74a4.86,4.86,0,0,1-.43,2.17c-.38,1.15-.79,2.05-.93,2a5,5,0,0,1,.43-2.16C378.45,217.6,378.86,216.7,379,216.74Z" style="fill:#263238"></path></g><g id="freepik--Soap--inject-14"><path d="M71.93,436.16v-8.61a1,1,0,0,1,1-1h.39a1,1,0,0,1,1,1v.4h6.4v2.19H74.46v6Z" style="fill:#263238"></path><rect x="64.74" y="437.9" width="16.91" height="27.35" rx="3.23" style="fill:#455a64"></rect><path d="M70.28,434.43h6.21a1.05,1.05,0,0,1,1.05,1.05v2.41a0,0,0,0,1,0,0H69.23a0,0,0,0,1,0,0v-2.41A1.05,1.05,0,0,1,70.28,434.43Z" style="fill:#455a64"></path><rect x="74.32" y="442.16" width="7.33" height="18.09" style="fill:#fafafa"></rect><path d="M77.55,437.8a17,17,0,0,1-4.26.27A17.06,17.06,0,0,1,69,437.8a18,18,0,0,1,4.27-.26A17.92,17.92,0,0,1,77.55,437.8Z" style="fill:#263238"></path><path d="M65.78,455.88a117.77,117.77,0,0,1,0-15.94,117.77,117.77,0,0,1,0,15.94Z" style="fill:#fafafa"></path><rect x="88.72" y="446.77" width="18.53" height="18.53" style="fill:#455a64"></rect></g><g id="freepik--Shower--inject-14"><path d="M54.78,225.08h0q-.16,8.14-.35,16.3a11.82,11.82,0,0,0,4-8.2C58.64,230.05,56.92,227.37,54.78,225.08Z" style="fill:#455a64"></path><polygon points="57.57 231.6 63.84 229.01 66.79 231.6 66.79 236.07 64.02 238 56.97 235.21 57.57 231.6" style="fill:#455a64"></polygon><path d="M63.73,238.22a39.77,39.77,0,0,1,0-9.08,39.77,39.77,0,0,1,0,9.08Z" style="fill:#263238"></path><path d="M54.78,202.31h0q-.16,8.16-.35,16.31a11.85,11.85,0,0,0,4-8.21C58.64,207.28,56.92,204.61,54.78,202.31Z" style="fill:#455a64"></path><polygon points="57.57 208.83 63.84 206.25 66.79 208.83 66.79 213.31 64.02 215.23 56.97 212.45 57.57 208.83" style="fill:#455a64"></polygon><path d="M63.73,215.46a20.35,20.35,0,0,1-.26-4.54,20.41,20.41,0,0,1,.26-4.55,20.41,20.41,0,0,1,.26,4.55A20.35,20.35,0,0,1,63.73,215.46Z" style="fill:#263238"></path><path d="M137.24,57.27H52.49a2.16,2.16,0,0,0-2.16,2.15V465.57h4.41V61.73h82.5v12.7h4.3V61.56a4.3,4.3,0,0,0-4.3-4.29Z" style="fill:#e0e0e0"></path><path d="M137.24,57.27h.32a4.4,4.4,0,0,1,.92.16,4.33,4.33,0,0,1,2.72,2.39,4.17,4.17,0,0,1,.35,1.27c0,.46,0,.95,0,1.46,0,1,0,2.15,0,3.37q0,3.66,0,8.51v.07h-4.45v-.08c0-3.7,0-8,0-12.7l.09.1-82.5.07.16-.17c0,91.92.06,233.4.1,391.69v12.41H50.07v-.26c0-137.35.06-260.92.08-350.16q0-16.72,0-31.81,0-7.53,0-14.63c0-2.36,0-4.69,0-7V59.44a2.19,2.19,0,0,1,.17-.88,2.27,2.27,0,0,1,1.22-1.25,4.21,4.21,0,0,1,1.7-.19l45.36.05,28.63,0,7.44,0,2.53,0-2.53,0-7.44,0-28.63,0-45.36,0a3.89,3.89,0,0,0-1.58.16,2,2,0,0,0-1.07,1.1,4.25,4.25,0,0,0-.15,1.62V62c0,2.29,0,4.62,0,7q0,7.09,0,14.63,0,15.06,0,31.81c0,89.24,0,212.81.08,350.16l-.26-.26h4.4l-.26.26V453.42c0-158.29.07-299.77.09-391.69v-.17h.17l82.5.07h.1v.1c0,4.71,0,9,0,12.7l-.08-.08h4.3l-.08.07q0-4.84,0-8.51c0-1.22,0-2.35,0-3.37,0-.51,0-1,0-1.45a4.67,4.67,0,0,0-.33-1.25,4.28,4.28,0,0,0-2.67-2.38,4.63,4.63,0,0,0-.92-.18Z" style="fill:#263238"></path><rect x="113.99" y="74.13" width="53.13" height="4.18" style="fill:#e0e0e0"></rect><path d="M167.13,78.31a2,2,0,0,1,0-.29c0-.21,0-.47,0-.81,0-.73,0-1.76-.06-3.08l.1.1c-8.37.09-29,.16-53.13.16h0c-.24.23.31-.32.25-.26h0v4.17l-.26-.26,37.63.11,11.32.07,3.09,0,.81,0,.29,0-.25,0h-.78l-3,0-11.26.08L114,78.57h-.26V74.14h0c0,.06.5-.49.27-.26h0c24.12,0,44.76.07,53.13.16h.1v.1c0,1.35,0,2.39-.06,3.14,0,.32,0,.58,0,.78S167.13,78.31,167.13,78.31Z" style="fill:#263238"></path><path d="M178.42,165.92a18.61,18.61,0,0,1,0-6.2,18.61,18.61,0,0,1,0,6.2Z" style="fill:#263238"></path><path d="M140.14,92.84a10.45,10.45,0,0,1-.26-3.24,10.41,10.41,0,0,1,.26-3.23,10.06,10.06,0,0,1,.26,3.23A10.1,10.1,0,0,1,140.14,92.84Z" style="fill:#263238"></path><path d="M172.36,181.24a35.64,35.64,0,0,1-.26-6,35.71,35.71,0,0,1,.26-6,35.71,35.71,0,0,1,.26,6A35.64,35.64,0,0,1,172.36,181.24Z" style="fill:#263238"></path><path d="M174.39,220.38a34.43,34.43,0,0,1-.26-6,34.43,34.43,0,0,1,.26-6,35.64,35.64,0,0,1,.26,6A35.64,35.64,0,0,1,174.39,220.38Z" style="fill:#263238"></path><path d="M163.32,237.67a41.71,41.71,0,0,1,0-9.3,40.18,40.18,0,0,1,0,9.3Z" style="fill:#263238"></path><path d="M108.8,229.11a23,23,0,0,1,0-6.89,23,23,0,0,1,0,6.89Z" style="fill:#263238"></path><path d="M109.64,172.71a24.58,24.58,0,0,1-.26-5,24.58,24.58,0,0,1,.26-5,24.58,24.58,0,0,1,.26,5A24.58,24.58,0,0,1,109.64,172.71Z" style="fill:#263238"></path><path d="M117.75,182.43a31.78,31.78,0,0,1-.26-5.69,31.78,31.78,0,0,1,.26-5.69,31.78,31.78,0,0,1,.26,5.69A31.78,31.78,0,0,1,117.75,182.43Z" style="fill:#263238"></path><path d="M116.24,94.65a18.44,18.44,0,0,1-.26-4.4,18.44,18.44,0,0,1,.26-4.4,19.08,19.08,0,0,1,.26,4.4A19.08,19.08,0,0,1,116.24,94.65Z" style="fill:#263238"></path><path d="M124.67,99.9a10.91,10.91,0,0,1-.26-3.37,11,11,0,0,1,.26-3.38,11.33,11.33,0,0,1,.26,3.38A11.29,11.29,0,0,1,124.67,99.9Z" style="fill:#263238"></path><path d="M116.8,117.32a5.79,5.79,0,0,1-.26-2.43,5.82,5.82,0,0,1,.26-2.44,6,6,0,0,1,.26,2.44A6,6,0,0,1,116.8,117.32Z" style="fill:#263238"></path><path d="M130.1,113.39a12.6,12.6,0,0,1-.26-3.56,12.55,12.55,0,0,1,.26-3.56,12.55,12.55,0,0,1,.26,3.56A12.6,12.6,0,0,1,130.1,113.39Z" style="fill:#263238"></path><path d="M151.46,97.65a10.17,10.17,0,0,1-.27-3.28,10.17,10.17,0,0,1,.27-3.28,10.71,10.71,0,0,1,.26,3.28A10.71,10.71,0,0,1,151.46,97.65Z" style="fill:#263238"></path><path d="M161.76,94.84a16.16,16.16,0,0,1-.26-4.12,16.16,16.16,0,0,1,.26-4.12,16.72,16.72,0,0,1,.26,4.12A16.72,16.72,0,0,1,161.76,94.84Z" style="fill:#263238"></path><path d="M259.71,62.46c-3.13-2.43-9.59.63-11.8,3.92s-2.47,7.48-2.65,11.44c-.38,8.11-.74,16.33,1,24.26.77,3.48,2,7,1.75,10.52-.26,4.54-2.76,8.67-3.52,13.15-1.17,6.9,1.84,13.77,2.41,20.75.55,6.61-1.1,13.19-1.86,19.79a74.56,74.56,0,0,0,1.39,25.18c3.4.86,8,1.2,9.41-2a7.13,7.13,0,0,0,.48-2.34c2.33-24.4,3.84-48.89,4.1-73.4C260.63,96.64,260.21,79.55,259.71,62.46Z" style="fill:#FF725E"></path><path d="M261.58,64.94s-.45-.14-1.32-.19a6.42,6.42,0,0,0-3.6,1.06A8.83,8.83,0,0,0,253,70.47a19.81,19.81,0,0,0-.61,7.94,202.51,202.51,0,0,1,.93,21c0,4-.17,8.13-.55,12.43-.2,2.15-.48,4.34-.89,6.54s-1,4.39-1.37,6.62c-.9,4.48-.53,8.95-.08,13.22s.79,8.45.91,12.42c.24,7.93-.08,15.07-.46,21.05s-.85,10.81-1.17,14.15c-.17,1.64-.3,2.92-.39,3.83l-.12,1a1.26,1.26,0,0,1,0,.34,1.48,1.48,0,0,1,0-.34c0-.26,0-.59.07-1,.06-.92.16-2.21.29-3.85.25-3.34.65-8.17,1-14.15s.62-13.11.35-21c-.13-4-.45-8.09-.93-12.37s-.84-8.83.07-13.37c.41-2.26,1-4.45,1.37-6.63s.69-4.34.89-6.48c.39-4.28.52-8.44.58-12.4.11-7.91-.31-15-.82-21a20,20,0,0,1,.7-8.06,9.06,9.06,0,0,1,3.8-4.74,6.39,6.39,0,0,1,3.72-1,4.79,4.79,0,0,1,1,.18A1,1,0,0,1,261.58,64.94Z" style="fill:#263238"></path><path d="M245,174.9c0,.14-.6.1-1.27,0s-1.23-.1-1.25-.24.56-.34,1.29-.28S245.09,174.77,245,174.9Z" style="fill:#263238"></path><path d="M245.46,171.54c0,.13-.78.14-1.64-.23s-1.38-.93-1.29-1,.71.22,1.5.55S245.49,171.39,245.46,171.54Z" style="fill:#263238"></path><path d="M245.88,164.2c-.07.13-.55,0-1.07-.31s-.88-.63-.81-.76.55,0,1.07.31S246,164.08,245.88,164.2Z" style="fill:#263238"></path><path d="M246.55,99c.07.12-.48.55-1.3.71s-1.49-.05-1.47-.18.64-.19,1.37-.33S246.48,98.84,246.55,99Z" style="fill:#263238"></path><path d="M245.89,95.51c0,.13-.75,0-1.56-.26s-1.44-.62-1.39-.75.74,0,1.56.26S245.94,95.37,245.89,95.51Z" style="fill:#263238"></path><path d="M246.31,91.53c-.07.13-.84-.2-1.71-.71s-1.52-1-1.45-1.17.84.2,1.71.72S246.38,91.41,246.31,91.53Z" style="fill:#263238"></path><rect x="255.16" y="67.88" width="7.66" height="397.69" style="fill:#455a64"></rect><path d="M273,221.81a237.89,237.89,0,0,0-2.5-28.09c-1.28-7.93-3.21-15.78-3.73-23.79-.54-8.38.47-16.78,1.26-25.14a468.3,468.3,0,0,0,1.85-57.17c-.17-6-.58-12.44-4.09-17.34-3-4.18-1.61-5.72-6.21-8l.82,219.5a20.73,20.73,0,0,0,6.18,1.26c2.47-10.51,4.94-21.06,6-31.8A206.3,206.3,0,0,0,273,221.81Z" style="fill:#FF725E"></path><path d="M271.67,125.71a6,6,0,0,1-2.42,1.6,6.19,6.19,0,0,1-2.79.79,12.68,12.68,0,0,1,2.58-1.27A12.49,12.49,0,0,1,271.67,125.71Z" style="fill:#263238"></path><path d="M272.55,120.73c0,.13-.78.48-1.85.6s-1.94,0-1.93-.17.85-.23,1.87-.35S272.51,120.58,272.55,120.73Z" style="fill:#263238"></path><path d="M271.28,115.72c0,.14-.67.11-1.42-.06s-1.34-.44-1.3-.58.66-.11,1.42.07S271.32,115.58,271.28,115.72Z" style="fill:#263238"></path><path d="M269.81,83.55c.07.13-.34.5-.93.84s-1.12.51-1.19.38.34-.5.93-.83S269.74,83.43,269.81,83.55Z" style="fill:#263238"></path><path d="M271.08,86.89c0,.15-.71.31-1.55.6s-1.5.63-1.59.5.5-.67,1.42-1S271.07,86.75,271.08,86.89Z" style="fill:#263238"></path><path d="M270.88,195c0,.14-.53.15-1.11,0s-1-.35-1-.49.53-.15,1.11,0S270.91,194.9,270.88,195Z" style="fill:#263238"></path><path d="M271.71,198.22c-.08.12-.7-.13-1.49-.35s-1.45-.34-1.45-.49.73-.26,1.59,0S271.79,198.1,271.71,198.22Z" style="fill:#263238"></path><path d="M272.34,200.12c0,.13-.7.41-1.66.47s-1.71-.14-1.7-.28.76-.19,1.67-.24S272.31,200,272.34,200.12Z" style="fill:#263238"></path></g></svg>