<svg xmlns="http://www.w3.org/2000/svg" viewBox="0 0 500 500"><g id="freepik--background-simple--inject-3"><path d="M87.09,121.09l1.3-3.48C99.36,88.28,125.2,67,156,63.1a82.21,82.21,0,0,1,12-.61c28.78.67,56.82,17,71.88,41.91,8.86,14.64,13.94,32.46,27.44,42.86,17.58,13.52,42.28,9.36,63.78,4.58s46.22-8.88,63.74,4.72c11,8.52,16.6,22.53,18.48,36.37,5,36.64-14.17,73.88-43.25,96.1s-66.67,30.86-103.2,30.45c-51.18-.58-103.23-19-139.41-55.76S73.18,170.86,87.09,121.09Z" style="fill:#f5f5f5"></path><circle cx="317.92" cy="85.92" r="41.83" style="fill:#f5f5f5"></circle></g><g id="freepik--character-1--inject-3"><polygon points="152.3 373.32 188.39 484.2 181.83 484.2 139.54 373.32 152.3 373.32" style="fill:#e0e0e0"></polygon><path d="M152.3,373.32l-.84,0-2.44,0-9.48.06.1-.14,40.93,107,1.47,3.86-.21-.15h6.56l-.21.3-25.53-78.73c-3.22-10-5.81-18-7.61-23.58-.88-2.77-1.57-4.92-2-6.39-.23-.73-.4-1.28-.53-1.67l-.17-.58s.08.18.2.54l.55,1.64c.48,1.46,1.19,3.59,2.1,6.33l7.72,23.5,25.74,78.8.1.3h-7l0-.15c-.49-1.27-1-2.57-1.48-3.86L139.45,373.35l0-.13h.14l9.52,0,2.43,0C152,373.3,152.3,373.32,152.3,373.32Z" style="fill:#263238"></path><polygon points="81.28 373.32 45.19 484.2 51.76 484.2 94.04 373.32 81.28 373.32" style="fill:#e0e0e0"></polygon><path d="M81.28,373.32s.27,0,.81,0l2.43,0,9.52,0h.15l0,.13L53.45,480.42c-.5,1.29-1,2.59-1.48,3.86l0,.15h-7l.1-.3,25.74-78.8,7.72-23.5c.91-2.74,1.61-4.87,2.1-6.33l.55-1.64c.12-.36.19-.54.19-.54s0,.2-.17.58l-.52,1.67-2,6.39c-1.79,5.56-4.38,13.6-7.6,23.58L45.41,484.27l-.22-.3h6.57l-.21.15c.48-1.28,1-2.57,1.47-3.86L94,373.28l.09.14-9.47-.06-2.45,0Z" style="fill:#263238"></path><path d="M140.47,375.75a5.61,5.61,0,0,1-.63.46L138,377.43l-6.84,4.48c-5.77,3.8-13.72,9.07-22.47,14.94l-22.39,15-6.79,4.56-1.86,1.22a3.64,3.64,0,0,1-.67.4,6.77,6.77,0,0,1,.62-.47l1.81-1.3,6.71-4.67c5.68-3.93,13.56-9.3,22.32-15.17s16.73-11.1,22.54-14.83c2.92-1.85,5.28-3.35,6.92-4.36l1.9-1.15A6,6,0,0,1,140.47,375.75Z" style="fill:#263238"></path><path d="M71.24,255.1s-11.32,1.17-13,8-7,91,0,103,97.12,10.27,103.42,8.63,9.21-5.7,8.57-10.66-62-11.12-62-11.12L112,265S89.94,253.88,71.24,255.1Z" style="fill:#455a64"></path><path d="M170.32,366.14l-.27,0-.81,0-3.09.08c-2.68.07-6.57.1-11.38.09-9.6,0-22.88-.33-37.51-1.38-7.31-.53-14.27-1.21-20.58-1.92s-12-1.51-16.73-2.25c-2.37-.35-4.51-.73-6.4-1s-3.5-.61-4.82-.86l-3-.58-.79-.17a1.23,1.23,0,0,1-.27-.07,1.9,1.9,0,0,1,.28,0l.79.12,3.05.49c1.33.23,2.95.5,4.83.79s4,.64,6.41,1c4.75.7,10.42,1.43,16.73,2.15S110,364,117.3,364.53c14.61,1.05,27.87,1.41,37.48,1.51,4.8,0,8.68.07,11.37.06h3.09l.81,0A.8.8,0,0,1,170.32,366.14Z" style="fill:#263238"></path><path d="M157.09,419.32c-.08.11-14.36-9.93-31.9-22.41s-31.72-22.68-31.64-22.78,14.35,9.93,31.9,22.41S157.16,419.22,157.09,419.32Z" style="fill:#263238"></path><path d="M141.32,232.19a1.79,1.79,0,0,1,.12.5c.07.39.15.86.24,1.44s.22,1.39.31,2.29.23,1.91.3,3.05c.19,2.26.28,5,.24,8a91.56,91.56,0,0,1-.71,9.74,93,93,0,0,1-1.81,9.6c-.73,2.91-1.51,5.5-2.27,7.64-.35,1.08-.75,2-1.07,2.87s-.62,1.56-.88,2.14-.44,1-.61,1.33a1.67,1.67,0,0,1-.24.45,1.87,1.87,0,0,1,.15-.49c.13-.37.3-.82.51-1.37s.51-1.31.8-2.16.66-1.8,1-2.89c.72-2.14,1.45-4.73,2.16-7.63s1.3-6.14,1.75-9.56.66-6.7.75-9.68,0-5.68-.13-7.94c0-1.13-.15-2.14-.22-3s-.15-1.67-.22-2.3-.1-1.06-.14-1.45A1.8,1.8,0,0,1,141.32,232.19Z" style="fill:#263238"></path><path d="M94,150.19c5.58-6.83,14.35-10.47,23.11-11.51,3.69-.43,6,.2,9.63,1.17a15.68,15.68,0,0,1,9,5.93c2.54,3.6,4.68,7.64,5.16,12a75,75,0,0,1,.65,13.55,24.72,24.72,0,0,1-4.23,12.73l-11.49,2c-6.35.22-12.79.43-19-1s-12.19-4.78-15.5-10.2C86.67,167.34,88.37,157,94,150.19Z" style="fill:#263238"></path><path d="M133.37,190.77s.19.28.69.6a5.52,5.52,0,0,0,2.37.8,6.18,6.18,0,0,0,3.65-.74,6,6,0,0,0,2.75-3.65,5.93,5.93,0,0,0-.54-4.53,6.17,6.17,0,0,0-2.78-2.48,5.55,5.55,0,0,0-2.45-.5,1.74,1.74,0,0,0-.89.17,8.57,8.57,0,0,1,3.13.77,5.87,5.87,0,0,1,2.44,2.35,5.66,5.66,0,0,1-2,7.33,6,6,0,0,1-3.29.8A8.56,8.56,0,0,1,133.37,190.77Z" style="fill:#90CAF9"></path><path d="M83,182.2a8.57,8.57,0,0,1,3.89-6.47,6.18,6.18,0,0,1,7.25.63L96,178.52a7.4,7.4,0,0,1,4.26,7.48,8.13,8.13,0,0,1-5.63,6.65A9,9,0,0,1,86,190.58,10.09,10.09,0,0,1,83,182.2Z" style="fill:#263238"></path><path d="M85.3,190a3.92,3.92,0,0,1-.61-2.29c.09-1.47,1.16-3.39,2.63-5.16a15.35,15.35,0,0,1,4.6-3.69c1.35-.73,2.27-1,2.24-1.08a6.11,6.11,0,0,0-2.41.72,13.82,13.82,0,0,0-4.86,3.68A13.37,13.37,0,0,0,85,185a6.18,6.18,0,0,0-.74,2.69,3.18,3.18,0,0,0,.51,1.82C85.06,189.85,85.28,190,85.3,190Z" style="fill:#455a64"></path><path d="M90.86,193.35c.19,0-.59-3.49.52-7.59s3.43-6.77,3.27-6.87a5.91,5.91,0,0,0-1.52,1.7,16.14,16.14,0,0,0-2.3,5,15.82,15.82,0,0,0-.45,5.5A6.27,6.27,0,0,0,90.86,193.35Z" style="fill:#455a64"></path><path d="M125.74,204.73c-.08-4-.17-7.34-.17-7.32s9.37-1,12-13c1.29-6,1.53-15.87,1.46-24-.06-7.3-6.27-17.23-15.28-17.26l-4-.47-15.32,6.09a4.27,4.27,0,0,0-4,4.12l0,52.08,15.3,38.16,9.73-17.39Z" style="fill:#ffbe9d"></path><path d="M119.51,181.56a2.57,2.57,0,0,1,.89-1.58,2.62,2.62,0,0,1,3.17-.18,3.5,3.5,0,0,1,1.33,3.29h0a3.2,3.2,0,0,1-2.28,1.32h-.43a2.86,2.86,0,0,1-1.92-.76A2.56,2.56,0,0,1,119.51,181.56Z" style="fill:#eb996e"></path><path d="M135.46,169.85a1.57,1.57,0,0,1-1.59,1.49,1.48,1.48,0,0,1-1.52-1.49,1.55,1.55,0,0,1,1.58-1.49A1.5,1.5,0,0,1,135.46,169.85Z" style="fill:#263238"></path><path d="M136,164.89c-.21.2-1.33-.74-3-.83s-2.94.68-3.11.47.13-.45.69-.81a4.23,4.23,0,0,1,2.5-.63,4.15,4.15,0,0,1,2.38.92C136,164.43,136.11,164.81,136,164.89Z" style="fill:#263238"></path><path d="M125.5,177.56a11.33,11.33,0,0,1,2.74-.34c.43,0,.84-.08.93-.37a2.16,2.16,0,0,0-.22-1.28c-.34-1.06-.7-2.16-1.08-3.32-1.5-4.73-2.56-8.6-2.37-8.66s1.56,3.72,3.06,8.45l1,3.33a2.47,2.47,0,0,1,.13,1.69,1.09,1.09,0,0,1-.74.59,2.73,2.73,0,0,1-.73.06A10.4,10.4,0,0,1,125.5,177.56Z" style="fill:#263238"></path><path d="M125.57,197.41a30.85,30.85,0,0,1-16-5.22s3.86,8.64,16,8.17Z" style="fill:#eb996e"></path><path d="M120.52,178.45c.27,0,.17,1.81,1.66,3.19s3.42,1.28,3.42,1.53-.45.33-1.27.31a4.55,4.55,0,0,1-2.86-1.18,3.92,3.92,0,0,1-1.28-2.67C120.17,178.87,120.39,178.43,120.52,178.45Z" style="fill:#263238"></path><path d="M135.6,158.88c-.31.37-1.44-.09-2.83-.18s-2.57.11-2.82-.3c-.1-.2.1-.57.63-.9a4,4,0,0,1,2.34-.5,3.88,3.88,0,0,1,2.22.89C135.6,158.31,135.74,158.71,135.6,158.88Z" style="fill:#263238"></path><path d="M117.08,169.05a1.54,1.54,0,0,0,1.47,1.59,1.48,1.48,0,0,0,1.63-1.37,1.56,1.56,0,0,0-1.47-1.6A1.49,1.49,0,0,0,117.08,169.05Z" style="fill:#263238"></path><path d="M113.09,164.29c.19.21,1.39-.64,3.06-.61s2.89.9,3.07.69-.1-.46-.62-.85a4.32,4.32,0,0,0-2.46-.81,4.16,4.16,0,0,0-2.44.74C113.18,163.84,113,164.2,113.09,164.29Z" style="fill:#263238"></path><path d="M114.29,161c.29.38,1.45,0,2.84,0s2.56.3,2.83-.1c.13-.19,0-.57-.56-.94a3.85,3.85,0,0,0-2.29-.66,3.91,3.91,0,0,0-2.28.72C114.34,160.39,114.17,160.78,114.29,161Z" style="fill:#263238"></path><path d="M100.32,170l2.1,2.17c9.06-8.67,26.77-30.39,25.78-29.09a26.45,26.45,0,0,0-12.94-1.41c-6.74,1.15-19.52,4.52-19.32,12.47S100.32,170,100.32,170Z" style="fill:#263238"></path><path d="M94.26,176.86a16.7,16.7,0,0,0,.09-1.92,29,29,0,0,1,.68-5.16,35.35,35.35,0,0,1,7.81-15.08,56.09,56.09,0,0,1,13.25-10.87c1.88-1.15,3.44-2,4.52-2.62a14.06,14.06,0,0,0,1.67-1,2.42,2.42,0,0,0-.47.18c-.3.13-.74.32-1.3.59-1.11.54-2.71,1.36-4.63,2.47a53.17,53.17,0,0,0-13.46,10.85,34.26,34.26,0,0,0-7.78,15.37,24.69,24.69,0,0,0-.51,5.23c0,.62.05,1.11.06,1.43A1.82,1.82,0,0,0,94.26,176.86Z" style="fill:#455a64"></path><path d="M117.08,139.76a1.72,1.72,0,0,0-.49.16c-.31.12-.76.31-1.33.56-1.15.52-2.79,1.31-4.76,2.4a71.49,71.49,0,0,0-6.68,4.24,40.64,40.64,0,0,0-7.31,6.4,18.7,18.7,0,0,0-2.75,4.25,17.31,17.31,0,0,0-1.36,4.52,27.52,27.52,0,0,0,0,7.93c.31,2.23.71,4,1,5.24.15.61.27,1.08.36,1.4a1.64,1.64,0,0,0,.17.48,15.88,15.88,0,0,0-.31-1.93c-.23-1.23-.57-3-.82-5.24a28.14,28.14,0,0,1,.1-7.8A17,17,0,0,1,94.26,158,18.33,18.33,0,0,1,97,153.88a42.1,42.1,0,0,1,7.17-6.34c2.39-1.74,4.64-3.17,6.58-4.31s3.54-2,4.65-2.55A15.8,15.8,0,0,0,117.08,139.76Z" style="fill:#455a64"></path><path d="M100.16,170.19a7.74,7.74,0,0,0,1.08-1l2.79-3c2.33-2.54,5.53-6.06,9-10s6.65-7.49,8.91-10.1l2.65-3.1a6.79,6.79,0,0,0,.91-1.19,7.34,7.34,0,0,0-1.07,1l-2.79,3c-2.33,2.53-5.53,6.06-9,10s-6.66,7.49-8.91,10.1l-2.66,3.1A8.12,8.12,0,0,0,100.16,170.19Z" style="fill:#455a64"></path><path d="M102.11,173.48c0-.9-.88-3.08-1.76-3.27-2.36-.5-6.66-.55-7,5.49-.51,8.26,7.89,7.07,7.92,6.83S102,176.6,102.11,173.48Z" style="fill:#ffbe9d"></path><path d="M99.45,179.13s-.15.09-.4.19a1.44,1.44,0,0,1-1.07,0c-.86-.37-1.5-1.8-1.45-3.29a4.6,4.6,0,0,1,.53-2,1.64,1.64,0,0,1,1.15-1,.72.72,0,0,1,.82.44c.1.24,0,.4.08.42s.18-.13.14-.47a.93.93,0,0,0-.3-.54,1,1,0,0,0-.78-.26,2,2,0,0,0-1.58,1.19A4.86,4.86,0,0,0,96,176c0,1.67.71,3.27,1.88,3.69a1.57,1.57,0,0,0,1.33-.13C99.43,179.33,99.48,179.15,99.45,179.13Z" style="fill:#eb996e"></path><path d="M100.52,191.47s-.19.28-.69.6a5.65,5.65,0,0,1-2.37.8,6.18,6.18,0,0,1-3.65-.74,6,6,0,0,1-2.75-3.65A5.93,5.93,0,0,1,91.6,184a6.17,6.17,0,0,1,2.78-2.48,5.55,5.55,0,0,1,2.45-.5,1.74,1.74,0,0,1,.89.17,8.57,8.57,0,0,0-3.13.77,5.87,5.87,0,0,0-2.44,2.35,5.65,5.65,0,0,0,2,7.32,5.89,5.89,0,0,0,3.29.81A9,9,0,0,0,100.52,191.47Z" style="fill:#90CAF9"></path><path d="M179,448.51l-1.24,23.37s23.22,8.62,23.41,13l-45.28-.3.44-36.48Z" style="fill:#455a64"></path><path d="M164,469.76a1.86,1.86,0,0,0-1.33,2.1,1.8,1.8,0,0,0,2.08,1.34,2,2,0,0,0,1.39-2.24,1.86,1.86,0,0,0-2.31-1.15" style="fill:#e0e0e0"></path><path d="M155.84,484.54l0-2.9,43.95,1.16a3.45,3.45,0,0,1,1.52,2.28Z" style="fill:#263238"></path><path d="M178.12,472c0,.22-1.13.31-2.24,1s-1.71,1.63-1.92,1.54.15-1.38,1.51-2.2S178.17,471.83,178.12,472Z" style="fill:#263238"></path><path d="M182.88,474.1c.05.21-.93.58-1.7,1.51s-1,1.92-1.23,1.91-.35-1.28.64-2.42S182.88,473.88,182.88,474.1Z" style="fill:#263238"></path><path d="M185.5,479.88c-.2.05-.49-1.07.1-2.29s1.65-1.68,1.74-1.49-.57.83-1,1.83S185.72,479.86,185.5,479.88Z" style="fill:#263238"></path><path d="M177.81,466.64c-.1.2-1.12-.13-2.38-.06s-2.26.44-2.37.25.85-1,2.34-1S177.92,466.46,177.81,466.64Z" style="fill:#263238"></path><path d="M178.71,461.61a4.16,4.16,0,0,1-2.29-.05,10.78,10.78,0,0,1-3.69-1.5,3.09,3.09,0,0,1-.68-.55,1,1,0,0,1-.08-1.19,1.24,1.24,0,0,1,1-.49,3.38,3.38,0,0,1,.85.13,8.5,8.5,0,0,1,1.42.52,7.86,7.86,0,0,1,2.09,1.42c1,1,1.39,1.84,1.31,1.88s-.61-.63-1.67-1.46a9,9,0,0,0-2-1.19,8.74,8.74,0,0,0-1.31-.43c-.48-.13-.9-.14-1,.07s-.06.11,0,.26a2.81,2.81,0,0,0,.5.4,11.75,11.75,0,0,0,1.2.71,13.17,13.17,0,0,0,2.2.89A17.54,17.54,0,0,1,178.71,461.61Z" style="fill:#263238"></path><path d="M222.79,402.77,230.12,425s24.77-.4,26.52,3.57l-42.29,16.18L201.5,410.59Z" style="fill:#455a64"></path><path d="M216.59,428a1.86,1.86,0,0,0-.48,2.44,1.81,1.81,0,0,0,2.43.49,2,2,0,0,0,.48-2.59,1.85,1.85,0,0,0-2.57-.23" style="fill:#e0e0e0"></path><path d="M214.35,444.74l-1-2.72,41.36-14.88a3.46,3.46,0,0,1,2.25,1.57Z" style="fill:#263238"></path><path d="M230.56,425c.07.21-.94.69-1.72,1.75s-1,2.13-1.23,2.12-.36-1.33.61-2.59S230.53,424.78,230.56,425Z" style="fill:#263238"></path><path d="M235.74,425.18c.13.19-.65.88-1,2s-.24,2.16-.45,2.23-.79-1.07-.28-2.49S235.67,425,235.74,425.18Z" style="fill:#263238"></path><path d="M240.29,429.62c-.17.11-.85-.82-.74-2.17s.93-2.16,1.08-2-.23,1-.3,2.08S240.49,429.52,240.29,429.62Z" style="fill:#263238"></path><path d="M228.31,420.07c0,.23-1.08.29-2.24.81s-1.94,1.24-2.11,1.1.43-1.22,1.8-1.81S228.35,419.87,228.31,420.07Z" style="fill:#263238"></path><path d="M227.32,415.07a4.28,4.28,0,0,1-2.15.78,10.25,10.25,0,0,1-2.5.14,11.54,11.54,0,0,1-1.48-.19,3.05,3.05,0,0,1-.83-.27,1,1,0,0,1-.51-1.08,1.25,1.25,0,0,1,.74-.82,3.24,3.24,0,0,1,.85-.18,8.46,8.46,0,0,1,1.5,0,7.82,7.82,0,0,1,2.46.57c1.34.55,2,1.21,1.91,1.27s-.79-.37-2.09-.75a8.46,8.46,0,0,0-2.31-.37,9.38,9.38,0,0,0-1.38.07c-.49.05-.88.19-.92.44,0,.09,0,.12.13.22a2.07,2.07,0,0,0,.62.19,11.87,11.87,0,0,0,1.37.23,13.6,13.6,0,0,0,2.37,0A13.84,13.84,0,0,1,227.32,415.07Z" style="fill:#263238"></path><path d="M105.21,309.94s67.36-.28,72.7,0c9.5.51,15.86,11.12,17.13,16.61s37.54,92.9,37.54,92.9l-29.71,12-30.68-69.23-15.45-26.87-79.57,12.3Z" style="fill:#263238"></path><path d="M160.49,332.91s12.44,0,19.15,9.95c4,5.85,2.56,16.29,2.64,24.18.11,10.74,1.68,95.45,1.68,95.45-7.93,5.63-21.15,4.88-30.82,1.1l-6.84-92.22-.94-13.7-46.79,1s-4.63-15.39,6.75-27.54C106.78,329.61,160.49,332.91,160.49,332.91Z" style="fill:#263238"></path><path d="M75.43,316.74S67.51,335,78.2,350.67c7.06,10.33,20.61,8,20.61,8l18-22.53-14.35-22.43Z" style="fill:#263238"></path><path d="M181.83,389.23a1.19,1.19,0,0,1,0-.33v-1c0-.86,0-2.14.09-3.78.12-3.32.3-8.06.51-13.9.09-2.94.14-6.15.06-9.6,0-1.73-.14-3.5-.26-5.34s-.17-3.73-.41-5.65a16.37,16.37,0,0,0-3.17-8.22,8.61,8.61,0,0,0-2.14-2.16,17,17,0,0,0-5.84-2.38,17.55,17.55,0,0,0-6.51-.35c-2.23.23-4.42.48-6.57.82a32.2,32.2,0,0,0-6.21,1.51c-4,1.5-7.79,2.88-11.46,4.17l-19.51,6.73c-5.56,1.91-10,3.48-13.14,4.58l-3.56,1.28-.93.32-.32.1a1.62,1.62,0,0,1,.3-.15l.92-.37c.8-.32,2-.79,3.52-1.37,3.08-1.16,7.55-2.78,13.09-4.74l19.47-6.83c3.66-1.31,7.5-2.69,11.44-4.2a32.49,32.49,0,0,1,6.31-1.54c2.16-.35,4.37-.6,6.6-.83a18.2,18.2,0,0,1,6.67.36,17.53,17.53,0,0,1,6,2.47,9.19,9.19,0,0,1,2.25,2.28,16.68,16.68,0,0,1,1.62,2.67,18,18,0,0,1,1.63,5.8c.23,1.94.27,3.84.39,5.67s.2,3.63.23,5.36c.06,3.46,0,6.68-.12,9.62-.22,5.87-.53,10.62-.68,13.9-.08,1.61-.14,2.88-.18,3.78,0,.41,0,.73-.06,1A1.39,1.39,0,0,1,181.83,389.23Z" style="fill:#455a64"></path><path d="M142.51,311.9l-7.37-26.44,9.51-38.12-3.37-33.2-13.68-3.5-26.91-3S76.83,213.13,75,222.33c-2.82,13.81,6.59,58.45,6.59,59.36s-8.85,30.85-7.64,38.68c0,0,11,2,20.64,4.73,13,3.7,32.07-7.57,39.25-9.36C142.21,313.65,142.51,311.9,142.51,311.9Z" style="fill:#90CAF9"></path><path d="M176.44,238.25c-.41.86-8.78,38.08-13.12,42.2-3.89,3.69-12.37,6.87-18.72.19-4.78-5-9.46-21.95-9.46-21.95l6.14-44.55,6.05,6.38,6,29,3.95-15.58Z" style="fill:#90CAF9"></path><path d="M146.74,271.14a1.93,1.93,0,0,0,.17-.36c.11-.28.24-.63.41-1,.35-.91.83-2.25,1.4-3.9,1.14-3.31,2.63-7.92,4.09-13.06s2.61-9.85,3.38-13.27c.38-1.71.67-3.09.85-4.05.08-.45.15-.81.21-1.11a1.69,1.69,0,0,0,0-.4,1.72,1.72,0,0,0-.13.38c-.07.3-.17.66-.28,1.09-.25,1-.58,2.37-1,4-.84,3.39-2,8.08-3.49,13.21s-2.9,9.75-4,13.08c-.53,1.62-1,2.95-1.28,3.95l-.33,1.07C146.76,271,146.72,271.13,146.74,271.14Z" style="fill:#263238"></path><path d="M145.91,262.49c.06,0,.26-.78.69-2a25.11,25.11,0,0,1,2.13-4.59,25.38,25.38,0,0,1,3-4.07c.88-1,1.48-1.5,1.44-1.55a7.45,7.45,0,0,0-1.65,1.35,20.16,20.16,0,0,0-3.18,4,20.62,20.62,0,0,0-2.06,4.72A7.23,7.23,0,0,0,145.91,262.49Z" style="fill:#263238"></path><path d="M127.39,217s4.1-9.5-.78-13.85l-26.18-4.47s-7.06,6.55-5.36,14.38,23.84,8.31,23.84,8.31Z" style="fill:#90CAF9"></path><path d="M125.49,216.27s.17-.13.4-.42a7.5,7.5,0,0,0,.86-1.33,9.83,9.83,0,0,0-.53-10,7.41,7.41,0,0,0-1-1.23c-.26-.27-.43-.39-.45-.37s.53.63,1.19,1.75a10.4,10.4,0,0,1,.51,9.71C125.94,215.58,125.43,216.22,125.49,216.27Z" style="fill:#263238"></path><path d="M117.29,202c-.06.05.49.61,1,1.73a9.43,9.43,0,0,1,.68,4.64,18.8,18.8,0,0,1-1.17,4.64,12.94,12.94,0,0,0-.66,1.9,8.17,8.17,0,0,0,.94-1.79,15.83,15.83,0,0,0,1.31-4.71,8.84,8.84,0,0,0-.83-4.81,5.81,5.81,0,0,0-.84-1.24C117.46,202.11,117.31,202,117.29,202Z" style="fill:#263238"></path><path d="M105.45,212.8a5.57,5.57,0,0,0,1.14-1.49,15.81,15.81,0,0,0,2.29-8.66,6.44,6.44,0,0,0-.25-1.86A27.45,27.45,0,0,1,108,207,26.8,26.8,0,0,1,105.45,212.8Z" style="fill:#263238"></path><path d="M98.52,210.48a23.78,23.78,0,0,1,1.2-5.75,24.34,24.34,0,0,1,2.93-5.09,5,5,0,0,0-1.23,1.25,14.05,14.05,0,0,0-2.09,3.69,14.31,14.31,0,0,0-.9,4.14A5,5,0,0,0,98.52,210.48Z" style="fill:#263238"></path><path d="M115.79,232.32l-6.42,20.27L99,224.11a14.64,14.64,0,0,0-6.18-7.64,13.1,13.1,0,0,0-13.31-.12c-10.24,6-.05,28-.05,28L98.08,283.8a12.11,12.11,0,0,0,8.5,7,17.52,17.52,0,0,0,12.22-1.72c10.23-5.42,14.78-47.72,14.78-47.72Z" style="fill:#90CAF9"></path><path d="M81,248s0,.14.15.41l.49,1.21,1.93,4.62,3.08,7.3,1.92,4.56c.67,1.62,1.43,3.32,2.33,5s1.89,3.51,2.91,5.37l1.54,2.85c.51,1,1,2,1.63,3a25.25,25.25,0,0,0,4.48,5.52,16.36,16.36,0,0,0,6.56,3.7,12.84,12.84,0,0,0,7.89-.21,13.12,13.12,0,0,0,6.23-5.36,34.13,34.13,0,0,0,3.51-7.8q1.36-4.12,2.56-8.42a183.2,183.2,0,0,0,5.57-28.33l0-.14-.12-.06-17.95-8.85-.19-.09-.06.19-8.15,25.67-2.24,7.14c-.25.81-.44,1.44-.58,1.88l-.18.65s.09-.21.23-.63l.63-1.87,2.33-7.11c2-6.16,4.84-15,8.29-25.62l-.24.1,17.93,8.9-.11-.2a186.31,186.31,0,0,1-5.58,28.26c-.8,2.85-1.65,5.66-2.56,8.39a33.68,33.68,0,0,1-3.46,7.72,12.74,12.74,0,0,1-6,5.21,12.48,12.48,0,0,1-7.64.21,16,16,0,0,1-6.41-3.61,24.66,24.66,0,0,1-4.43-5.43c-.6-1-1.12-1.95-1.63-2.93s-1-1.93-1.56-2.85c-1-1.86-2-3.63-2.92-5.35s-1.67-3.4-2.35-5l-2-4.55-3.14-7.27-2-4.59c-.23-.52-.4-.91-.53-1.19S81,248,81,248Z" style="fill:#263238"></path><path d="M99.88,260.31a7.93,7.93,0,0,0,1.43-1.36c.84-.89,1.93-2.18,3.13-3.59.6-.71,1.18-1.38,1.71-2a8.32,8.32,0,0,1,1.5-1.45,1.14,1.14,0,0,1,1.23-.09c.26.18.31.39.35.37s0-.23-.25-.49a1.29,1.29,0,0,0-1.48-.05,8,8,0,0,0-1.63,1.45c-.56.59-1.15,1.25-1.75,2-1.2,1.43-2.25,2.74-3,3.67A10.65,10.65,0,0,0,99.88,260.31Z" style="fill:#263238"></path><path d="M97.72,221.49a7.35,7.35,0,0,0,.43,1.22c.34.84.78,1.95,1.31,3.28,1.12,2.75,2.67,6.57,4.31,10.8s3,8.11,4,10.93c.46,1.36.83,2.48,1.12,3.34a7.17,7.17,0,0,0,.46,1.21A9.3,9.3,0,0,0,109,251c-.21-.8-.55-2-1-3.38-.88-2.85-2.23-6.74-3.87-11s-3.23-8-4.42-10.77c-.6-1.37-1.09-2.47-1.44-3.22A8.75,8.75,0,0,0,97.72,221.49Z" style="fill:#263238"></path><path d="M76.59,219.51c0,.07.9-.54,2.43-1.18a16.25,16.25,0,0,1,2.79-.86,17.67,17.67,0,0,1,3.54-.36,18.34,18.34,0,0,1,3.54.43,15.58,15.58,0,0,1,2.76.93c1.52.67,2.36,1.29,2.41,1.23s-.18-.19-.57-.48a5.45,5.45,0,0,0-.71-.47,9.2,9.2,0,0,0-1-.55,13.53,13.53,0,0,0-2.79-1,15.2,15.2,0,0,0-7.26-.08,13.89,13.89,0,0,0-2.81,1,9.53,9.53,0,0,0-1,.53,5.91,5.91,0,0,0-.73.46A2.81,2.81,0,0,0,76.59,219.51Z" style="fill:#263238"></path><g style="opacity:0.30000000000000004"><path d="M109.16,252.7c-1.68,5.09-3.21,10.08-4.9,15.17a4.65,4.65,0,0,1-1.11,1.51,1.18,1.18,0,0,1-1.49.2,1.58,1.58,0,0,1-.47-1.05,9.69,9.69,0,0,1,.53-4.94,1.76,1.76,0,0,1-2.21-.68c-.46-.71-.16-1.06.13-1.86a7.78,7.78,0,0,1,1.47-2.14c2.19-2.58,6.78-9.12,8.12-6.7"></path></g><g style="opacity:0.30000000000000004"><path d="M126.27,216.84c-8.54,3.09-17,1.22-26-3.28-1.51-.76-2-1.5-3.11-1.95s-1.83-1.67-2.68-.87a3,3,0,0,0-.23,3.61,7.54,7.54,0,0,0,3,2.49c9.06,5.1,24.82,4.58,29.05,0"></path></g><path d="M174.32,220.54a6.15,6.15,0,0,1,4.73-1.14,2.91,2.91,0,0,1,2.4,1.72A2.56,2.56,0,0,1,180,224a7.52,7.52,0,0,1-3.33.66l-1.77.08a3.66,3.66,0,0,1-2.05-.32,2.22,2.22,0,0,1-.55-3,3.46,3.46,0,0,1,2.92-1.43" style="fill:#ffbe9d"></path><path d="M175.12,218.12l-1.82,8.45c-.53,2.46-.84,4.88-3.18,5.8h0l-.5,4.42-12-2.63,2.06-10.53L171.53,215Z" style="fill:#ffbe9d"></path><path d="M167.71,212.34a13.41,13.41,0,0,0-2.15-6.31,7.13,7.13,0,0,0-2-2.44,3.5,3.5,0,0,0-3-.47,1.67,1.67,0,0,0-1.31,1.73,4.81,4.81,0,0,0,1,2.26c1.51,2.59,1.75,4.11,1.15,5.27" style="fill:#ffbe9d"></path><path d="M175.32,214c-.37.86-2.46,9.26-5.25,13.07-3.19,4.36-5.19,5.35-5.19,5.35L152.72,232s-8.68-5.71-8.68-18.9c0,0,2.43-3,15.64-2.46C168.52,210.55,172.21,212.13,175.32,214Z" style="fill:#455a64"></path><path d="M164.89,232.4h0l-12.17-.35h0a18.54,18.54,0,0,1-4.34-4.51,23,23,0,0,1-3-5.88,26.47,26.47,0,0,1-1.36-8.53h0a6.12,6.12,0,0,1,2.88-1.43c3.74-1.12,9-1.19,12.78-1h.94c8.37,0,11.86,1.62,14.72,3.29h0v0c-.08.18-.24.71-.46,1.44-.84,2.8-2.6,8.63-4.8,11.63-3.16,4.32-5.18,5.35-5.2,5.36Zm-12.16-.4,12.14.35c.12-.07,2.11-1.16,5.18-5.35,2.2-3,3.95-8.82,4.79-11.61.21-.71.37-1.23.45-1.43-2.84-1.66-6.34-3.27-14.67-3.27h-.94c-3.76-.14-9-.08-12.76,1a6.56,6.56,0,0,0-2.86,1.4,26.25,26.25,0,0,0,1.36,8.5,23,23,0,0,0,3,5.87A18.44,18.44,0,0,0,152.73,232Z" style="fill:#263238"></path><path d="M169.62,227.21c2.35,1.41,6.39,2,8.77.66A6.65,6.65,0,0,0,175,215.38l-1,3.65s5.12,1.06,3.65,4.11-5.73.15-5.73.15Z" style="fill:#455a64"></path><path d="M175,228.66a9.2,9.2,0,0,1-1-.06,10.84,10.84,0,0,1-4.39-1.36l0,0,0,0,2.36-3.95,0,0s2.42,1.63,4.22,1.14a2.27,2.27,0,0,0,1.48-1.29,2,2,0,0,0,.07-1.86c-.78-1.58-3.68-2.2-3.71-2.21h0v0l1-3.67h0a6.83,6.83,0,0,1,4.62,1.77,6.75,6.75,0,0,1,2.18,3.81,6.61,6.61,0,0,1-6.78,7.73Zm-5.38-1.45a10.79,10.79,0,0,0,4.34,1.34,7.53,7.53,0,0,0,4.39-.7,6.94,6.94,0,0,0,3.39-6.91A6.92,6.92,0,0,0,175,215.4l-.95,3.61c.29.07,3,.7,3.71,2.23a2.09,2.09,0,0,1-.07,1.91,2.3,2.3,0,0,1-1.51,1.31,3,3,0,0,1-.73.09,7.6,7.6,0,0,1-3.51-1.23Z" style="fill:#263238"></path><path d="M181,212.54s3,3.75,0,5.77-7.13,2.13-7.73,1.34-1.43-2.58.5-2.87S181,212.54,181,212.54Z" style="fill:#ffbe9d"></path><path d="M169.62,211.57l3-1.68,2.77-1.48a6.12,6.12,0,0,1,3.55-.58c1.38.5,2.28,2.35,2.3,3.84,0,2.42-7.21,6.24-8.39,5.16a2,2,0,0,1,.12-3.3c1.08-.7,2.73-1.69,2.73-1.69l-2,1.22Z" style="fill:#ffbe9d"></path><path d="M172.82,216.66s-.1-.12-.24-.33a1.7,1.7,0,0,1-.25-1,2.45,2.45,0,0,1,.61-1.42,17.54,17.54,0,0,1,1.43-1.44,36.51,36.51,0,0,0,3.69-3.78,34.93,34.93,0,0,0-4,3.5,14.36,14.36,0,0,0-1.44,1.5,2.56,2.56,0,0,0-.6,1.64,1.73,1.73,0,0,0,.4,1.11C172.66,216.63,172.81,216.68,172.82,216.66Z" style="fill:#eb996e"></path><path d="M172.45,216.42s0,.17.21.37a1.58,1.58,0,0,0,1.09.44,5.46,5.46,0,0,0,1.68-.31,10.29,10.29,0,0,0,4.81-3.18,3.92,3.92,0,0,0,.83-1.3,15.62,15.62,0,0,1-3.92,3.33,11.94,11.94,0,0,1-1.83.81,6,6,0,0,1-1.57.37,1.54,1.54,0,0,1-1-.27C172.55,216.53,172.48,216.4,172.45,216.42Z" style="fill:#eb996e"></path><path d="M169.17,226.93c.05,0-.13-.3-.23-.78a2.4,2.4,0,0,1,.29-1.79,2.44,2.44,0,0,1,1.5-1c.47-.11.79,0,.8-.11s-.3-.21-.85-.16a2.35,2.35,0,0,0-2,3.15C168.86,226.74,169.14,227,169.17,226.93Z" style="fill:#263238"></path><path d="M147.11,211.65a4.66,4.66,0,0,0,1-.11c.66-.1,1.62-.25,2.81-.39a55.91,55.91,0,0,1,9.32-.32,44.82,44.82,0,0,1,9.25,1,23.4,23.4,0,0,1,2.71.8,7.43,7.43,0,0,0,1,.34,5.28,5.28,0,0,0-.93-.48,18.89,18.89,0,0,0-2.7-.93,40.78,40.78,0,0,0-9.31-1.1,49.32,49.32,0,0,0-9.37.44c-1.19.18-2.14.37-2.8.51A6.15,6.15,0,0,0,147.11,211.65Z" style="fill:#263238"></path><path d="M172.83,219s-.05.16.08.39a1.41,1.41,0,0,0,.89.66,5.38,5.38,0,0,0,1.59.11,13.76,13.76,0,0,0,1.93-.2,8.44,8.44,0,0,0,3.27-1.3c.74-.51,1.11-.94,1.07-1s-.46.31-1.22.75a9.79,9.79,0,0,1-3.19,1.14,14.87,14.87,0,0,1-1.87.23,6.33,6.33,0,0,1-1.52,0,1.43,1.43,0,0,1-.83-.48C172.89,219.16,172.86,219,172.83,219Z" style="fill:#eb996e"></path><g style="opacity:0.4"><path d="M146.29,212.38c-8,1.67,16.28,3.59,25.5,1.11a.24.24,0,0,0,0-.45C169.38,212.17,160.19,209.46,146.29,212.38Z"></path></g><path d="M146.24,215.27a10.54,10.54,0,0,0,.88-5.78,4.6,4.6,0,0,0-1.38-3,2.21,2.21,0,0,0-3,.1c-.66.84-.38,2-.38,3.11a7.35,7.35,0,0,1-1.55,4.29,21.56,21.56,0,0,1-3.21,3.34" style="fill:#ffbe9d"></path><path d="M118.36,233.65h0c.21-.53,8.5-13,8.5-13a94.86,94.86,0,0,1,16.74-6.58c1.58.13,13,1.53,14.52,1.91,2.5.64,1.83,3.29.94,3.22-1.94-.16-9.22-.4-9.22-.4l10,1.89,2.19.49s1.18.3,1.06,1.36c-.16,1.52-1,1.94-2.52,1.94s-13.86-1.34-13.86-1.34l13.38,3.45a1.38,1.38,0,0,1,1,1.82c-.38,1.34-1.88,1.49-3.87,1.26a1.42,1.42,0,0,1,.17.72,2,2,0,0,1-2.37,1.73c-1.43-.09-18.82-.62-18.82-.62l-2.58,9.68Z" style="fill:#ffbe9d"></path><path d="M143,217.09a3.2,3.2,0,0,0,.76.26l2.11.56c1.79.45,4.27,1.05,7,1.66s5.25,1.11,7.07,1.42c.91.16,1.64.28,2.16.34a2.85,2.85,0,0,0,.8,0,3.4,3.4,0,0,0-.78-.2l-2.13-.46-7-1.53-7-1.55-2.14-.44A2.74,2.74,0,0,0,143,217.09Z" style="fill:#eb996e"></path><path d="M143.74,222.34c0,.1,3.61,1.14,8.13,2.32s8.19,2.05,8.22,2-3.61-1.14-8.13-2.32S143.77,222.24,143.74,222.34Z" style="fill:#eb996e"></path><path d="M144.71,227.68a57.15,57.15,0,0,0,6.52,1.23,56,56,0,0,0,6.57.86,55.85,55.85,0,0,0-6.51-1.24A54.58,54.58,0,0,0,144.71,227.68Z" style="fill:#eb996e"></path><path d="M153.8,215.34a2.59,2.59,0,0,0-.76-.17l-2.1-.32c-1.78-.25-4.25-.58-7-.92h-.05l0,0-.57.19c-2.77.92-5.28,1.77-7.08,2.41l-2.13.77a3.09,3.09,0,0,0-.77.34,4.33,4.33,0,0,0,.81-.19l2.17-.66c1.83-.57,4.35-1.38,7.12-2.31l.57-.19h-.08c2.76.34,5.24.62,7,.8l2.11.2A3.84,3.84,0,0,0,153.8,215.34Z" style="fill:#eb996e"></path><path d="M147.08,213.75a4.46,4.46,0,0,0,1,.28c.63.16,1.55.35,2.68.54a50.77,50.77,0,0,0,9,.65,50.13,50.13,0,0,0,9-1c1.13-.23,2-.45,2.66-.64a4.12,4.12,0,0,0,.95-.31,4.94,4.94,0,0,0-1,.17c-.63.13-1.54.31-2.67.51a59.16,59.16,0,0,1-8.92.86,60,60,0,0,1-8.94-.53c-1.13-.16-2-.3-2.69-.42A6.75,6.75,0,0,0,147.08,213.75Z" style="fill:#263238"></path><path d="M157.65,207.71a3.29,3.29,0,0,1-.51-1,4.56,4.56,0,0,1,.62-3c.31-.59.73-1.22,1.1-1.95a4.35,4.35,0,0,0,.54-2.57c-.33-2-2.45-3.05-3-5a4.88,4.88,0,0,1,0-2.88,7.13,7.13,0,0,1,1.39-2.37,7.63,7.63,0,0,0,1.37-2.22,4.48,4.48,0,0,0,.11-2.28,9.34,9.34,0,0,0-1.31-3,5.62,5.62,0,0,0-.69-1,7.73,7.73,0,0,0,.56,1.05,10.06,10.06,0,0,1,1.17,3,4.09,4.09,0,0,1-.15,2.12,7.54,7.54,0,0,1-1.34,2.11,7.28,7.28,0,0,0-1.48,2.48,5.24,5.24,0,0,0,0,3.11,7.3,7.3,0,0,0,1.68,2.6,4.91,4.91,0,0,1,1.35,2.33,4.08,4.08,0,0,1-.47,2.37c-.34.72-.74,1.35-1.06,2a4.6,4.6,0,0,0-.52,3.2,2.17,2.17,0,0,0,.43.79A1.09,1.09,0,0,0,157.65,207.71Z" style="fill:#263238"></path><path d="M154.05,207.71a3,3,0,0,1-.51-1,4.6,4.6,0,0,1,.61-3c.32-.59.74-1.22,1.1-1.95a4.27,4.27,0,0,0,.54-2.57c-.32-2-2.45-3.05-3-5a4.88,4.88,0,0,1,0-2.88,6.8,6.8,0,0,1,1.39-2.37,7.39,7.39,0,0,0,1.36-2.22,4.27,4.27,0,0,0,.11-2.28,9.14,9.14,0,0,0-1.3-3,6.4,6.4,0,0,0-.69-1,7.73,7.73,0,0,0,.56,1.05,9.81,9.81,0,0,1,1.16,3,4.08,4.08,0,0,1-.14,2.12,7.77,7.77,0,0,1-1.34,2.11,7.28,7.28,0,0,0-1.48,2.48,5.32,5.32,0,0,0,0,3.11,7.32,7.32,0,0,0,1.69,2.6,4.91,4.91,0,0,1,1.35,2.33,4,4,0,0,1-.48,2.37c-.34.72-.74,1.35-1.05,2a4.54,4.54,0,0,0-.52,3.2,2,2,0,0,0,.43.79C154,207.65,154,207.72,154.05,207.71Z" style="fill:#263238"></path></g><g id="freepik--Floor--inject-3"><path d="M464.72,484.45c0,.14-95.91.26-214.18.26s-214.2-.12-214.2-.26,95.88-.26,214.2-.26S464.72,484.31,464.72,484.45Z" style="fill:#263238"></path></g><g id="freepik--character-2--inject-3"><polygon points="353.41 384.59 313.67 484 320.23 484.24 366.16 385.06 353.41 384.59" style="fill:#e0e0e0"></polygon><path d="M353.41,384.59l.83.05,2.45.11,9.46.39-.08-.12-44.45,95.69c-.54,1.15-1.07,2.31-1.6,3.45l.21-.12-6.56-.24.21.28L342,413.49c3.55-8.95,6.41-16.16,8.38-21.15l2.26-5.73c.25-.65.44-1.15.58-1.5s.19-.52.19-.52-.08.16-.22.49l-.6,1.46-2.31,5.68-8.49,21.06-28.34,70.65-.11.27h.32l6.56.24h.16l.06-.14,1.6-3.45c19.54-42.35,36.42-78.91,44.21-95.78l.05-.12h-.14l-9.51-.3-2.43-.07Z" style="fill:#263238"></path><polygon points="424.26 387.17 456.48 484.25 449.98 484.01 411.63 386.71 424.26 387.17" style="fill:#e0e0e0"></polygon><path d="M424.26,387.17l-.81-.05-2.4-.11-9.42-.39h-.14l.05.12c6.49,16.54,20.58,52.41,36.89,93.94l1.34,3.39.05.13H450l6.5.23h.31l-.08-.26-23-69-6.9-20.57-1.87-5.55c-.22-.62-.38-1.1-.5-1.43l-.17-.48s0,.18.15.51.26.82.46,1.46c.42,1.29,1,3.17,1.83,5.6,1.59,4.86,3.91,11.9,6.78,20.64,5.77,17.46,13.79,41.71,22.78,68.92l.23-.25-6.5-.24.21.14c-.45-1.12-.89-2.25-1.34-3.39l-37.14-93.88-.1.11,9.38.3,2.42.07Z" style="fill:#263238"></path><path d="M365.14,387.46a4.79,4.79,0,0,0,.61.48l1.81,1.29,6.67,4.73c5.63,4,13.38,9.56,21.91,15.74L418,425.57l6.62,4.8,1.82,1.29a4.4,4.4,0,0,0,.65.42s-.2-.18-.6-.5l-1.76-1.36-6.54-4.91c-5.53-4.13-13.21-9.79-21.75-16s-16.31-11.7-22-15.63c-2.84-2-5.15-3.54-6.76-4.61-.78-.52-1.4-.92-1.85-1.23A6.19,6.19,0,0,0,365.14,387.46Z" style="fill:#263238"></path><path d="M445.27,268.08s16.46-.19,16.29,10.94c-.1,7-6.51,90.08-13.93,101.73s-97.42,6.73-103.66,4.86-9-6-8.18-11,62.4-8.86,62.4-8.86L420,279S426.62,266.18,445.27,268.08Z" style="fill:#455a64"></path><path d="M335.63,379.15a.84.84,0,0,0,.27.05l.8.08,3.08.27c2.68.22,6.56.5,11.36.78,9.59.57,22.86,1.07,37.52.92,7.33-.09,14.32-.34,20.66-.67s12.05-.77,16.84-1.22c2.39-.2,4.55-.45,6.45-.65s3.53-.39,4.86-.56l3.07-.4.79-.11a1,1,0,0,0,.27-.06h-.27l-.8.07-3.08.31c-1.34.15-3,.32-4.87.49s-4.06.4-6.45.58c-4.79.41-10.49.79-16.83,1.12s-13.32.54-20.64.63c-14.65.15-27.92-.3-37.51-.78-4.79-.24-8.67-.47-11.35-.64l-3.09-.18-.8,0Z" style="fill:#263238"></path><path d="M347,430.4c.07.1,14.71-9.4,32.69-21.23s32.52-21.52,32.45-21.62-14.7,9.4-32.7,21.23S346.88,430.29,347,430.4Z" style="fill:#263238"></path><path d="M457.75,271.47a1.36,1.36,0,0,1,0,.29c0,.22,0,.49,0,.83,0,.77-.09,1.83-.16,3.19-.17,2.77-.43,6.78-.81,11.72-.74,9.9-2,23.55-3.77,38.59-.89,7.52-1.81,14.68-2.69,21.18s-1.44,12.39-2.48,17.26-2.42,8.74-4.21,10.93a6.87,6.87,0,0,1-2.48,2,3.16,3.16,0,0,1-.79.28,1,1,0,0,1-.28.06s.38-.1,1-.43a7.06,7.06,0,0,0,2.37-2.05c1.71-2.18,3.07-6,4-10.87s1.55-10.74,2.36-17.25,1.77-13.66,2.65-21.18c1.77-15,3.09-28.67,3.93-38.55.4-4.92.73-8.91,1-11.71.12-1.36.21-2.42.27-3.19,0-.34.06-.61.08-.82A1,1,0,0,1,457.75,271.47Z" style="fill:#263238"></path><path d="M440.82,376.06c-.05.13-5.09-1.4-11.26-3.42s-11.14-3.78-11.1-3.92,5.09,1.39,11.26,3.42S440.86,375.92,440.82,376.06Z" style="fill:#263238"></path><path d="M396.93,285.76l-43.8-43.27-8.91,15L356,274.75s11.56,17.78,17.42,24,6.24,4.83,6.24,4.83Z" style="fill:#263238"></path><path d="M439.24,195.06a89,89,0,0,0,4.51-14.72,31.22,31.22,0,0,0-.59-15.25c-.24-.74-2.34-5.73-3.12-5.68-.56,0,.68,4.65.38,5.12-2.87,4.48-3.83,10-3.62,15.27a69.29,69.29,0,0,0,2.44,15.26" style="fill:#263238"></path><path d="M409.33,222.31c.11-3.63.19-6.5.16-6.5S397.1,214,396.81,201.67c-.15-6,.56-18.28,1.33-29.42a23,23,0,0,1,22.72-21.46h1.19c12.87.6,19.55,11.87,18.59,24.72l-1.92,45.05-9.17,10a11.64,11.64,0,0,1-20.22-8.29Z" style="fill:#aa8776"></path><path d="M409.42,215.81a29.81,29.81,0,0,0,16-4.95s-3.69,9.47-16,8.5Z" style="fill:#7f5d55"></path><path d="M401.12,181.56a1.76,1.76,0,0,0,1.72,1.76,1.69,1.69,0,0,0,1.8-1.61,1.77,1.77,0,0,0-1.72-1.76A1.69,1.69,0,0,0,401.12,181.56Z" style="fill:#263238"></path><path d="M400.77,177.33c.22.23,1.55-.78,3.45-.79s3.3.91,3.5.68-.12-.52-.74-.95a4.76,4.76,0,0,0-2.81-.83,4.61,4.61,0,0,0-2.74.92C400.85,176.81,400.66,177.23,400.77,177.33Z" style="fill:#263238"></path><path d="M417.6,182.56a1.77,1.77,0,0,0,1.72,1.77,1.69,1.69,0,0,0,1.8-1.62A1.77,1.77,0,0,0,419.4,181,1.69,1.69,0,0,0,417.6,182.56Z" style="fill:#263238"></path><path d="M419.39,177.89c.22.22,1.55-.78,3.45-.8s3.3.92,3.5.68-.12-.51-.74-1a4.83,4.83,0,0,0-2.81-.83,4.68,4.68,0,0,0-2.74.92C419.47,177.36,419.28,177.78,419.39,177.89Z" style="fill:#263238"></path><path d="M412.74,192.56a13.48,13.48,0,0,0-3.09-.52c-.49,0-.95-.13-1-.46a2.44,2.44,0,0,1,.31-1.44c.44-1.18.9-2.42,1.39-3.72,1.93-5.28,3.32-9.62,3.11-9.7s-1.95,4.15-3.89,9.43c-.46,1.3-.9,2.55-1.33,3.73a2.91,2.91,0,0,0-.23,1.91,1.24,1.24,0,0,0,.81.7,3.79,3.79,0,0,0,.82.11A12,12,0,0,0,412.74,192.56Z" style="fill:#263238"></path><path d="M418.86,171.47c.2.51,2.09.25,4.32.5s4,.83,4.34.37c.13-.22-.19-.71-.92-1.2a7.58,7.58,0,0,0-6.6-.66C419.19,170.81,418.78,171.22,418.86,171.47Z" style="fill:#263238"></path><path d="M401.46,170.94c.33.43,1.64,0,3.22,0s2.9.32,3.21-.12c.14-.22-.07-.66-.64-1.07a4.5,4.5,0,0,0-2.61-.74,4.59,4.59,0,0,0-2.58.84C401.5,170.28,401.31,170.72,401.46,170.94Z" style="fill:#263238"></path><path d="M439.67,184.66c.21-.09,8.46-2.61,8.29,5.84s-8.62,6.54-8.63,6.3S439.67,184.66,439.67,184.66Z" style="fill:#aa8776"></path><path d="M442,193.65s.14.11.39.22a1.43,1.43,0,0,0,1.1,0c.9-.31,1.68-1.71,1.75-3.24a4.79,4.79,0,0,0-.37-2.11,1.7,1.7,0,0,0-1.08-1.16.75.75,0,0,0-.88.39c-.12.23-.07.4-.11.42s-.18-.15-.11-.5a.94.94,0,0,1,.35-.52,1.09,1.09,0,0,1,.81-.2,2.08,2.08,0,0,1,1.52,1.34,5.08,5.08,0,0,1,.46,2.37c-.09,1.7-1,3.28-2.22,3.61a1.63,1.63,0,0,1-1.35-.25C442,193.85,442,193.66,442,193.65Z" style="fill:#7f5d55"></path><path d="M403.94,158.39c-1.34-.8,2.89-5.11,6.3-6.54,5.15-2.16,12.95-3.35,17.6-1.88,5.59,1.76,10.2,4.7,12.88,9.92A33.36,33.36,0,0,1,444,177a10.21,10.21,0,0,1-1.35,5.13c-1.23,1.83-3.53,2.94-3.51,5.52a3.52,3.52,0,0,1-1,2.56c-1.59,1.6-3.44,0-4.27-1.58-1.76-3.36-1.85-7.32-1.9-11.12a24.5,24.5,0,0,1,.77-8c.45-1.4,1.15-2.71,1.53-4.13a5.06,5.06,0,0,0-.48-4.24,5.55,5.55,0,0,0-.66-.72,8.86,8.86,0,0,0-8.7-1.92c-4.81,1.55-13,3.83-15.09,2.15-3-2.41-3.67-4-3.67-4Z" style="fill:#263238"></path><path d="M410.91,197.45a7.79,7.79,0,0,0,.93,2.08,2.69,2.69,0,0,0,1.86,1.2,2.42,2.42,0,0,0,2.1-1,3.87,3.87,0,0,0,.68-2.3c0-.73-.29-1.62-1-1.74a1.86,1.86,0,0,0-.9.15l-3.9,1.37" style="fill:#7f5d55"></path><path d="M412.28,200.68a5.56,5.56,0,0,0,2.05-.16,2.87,2.87,0,0,0,1.61-1.32,3.08,3.08,0,0,0,.18-2.5,2.53,2.53,0,0,0-.31-.59c-.14-.17-.12-.16-.28-.14a6.61,6.61,0,0,0-.63.21l-.64.22c-.83.29-1.59.55-2.23.75a7.27,7.27,0,0,1-2.11.53,6.81,6.81,0,0,1,1.95-1l2.17-.89.64-.25a6.28,6.28,0,0,1,.71-.25.89.89,0,0,1,.57.05,1.08,1.08,0,0,1,.4.35,3.48,3.48,0,0,1,.13,3.8,3.3,3.3,0,0,1-2,1.48,3.11,3.11,0,0,1-1.66,0C412.44,200.85,412.26,200.71,412.28,200.68Z" style="fill:#263238"></path><path d="M246.88,408.18l-10,32.71-48.59-17.7c2-4.54,30.51-4.7,30.51-4.7l5.71-17.62Z" style="fill:#90CAF9"></path><path d="M234.59,421.86a2.11,2.11,0,0,1,.55,2.76,2,2,0,0,1-2.74.57,2.22,2.22,0,0,1-.56-2.93,2.1,2.1,0,0,1,2.91-.27" style="fill:#e0e0e0"></path><path d="M236.88,440.89l1.54-4.08-47.37-15.24s-2.51.17-2.81,1.79Z" style="fill:#263238"></path><path d="M218.1,418c-.08.24,1.07.78,2,2s1.15,2.41,1.4,2.39.4-1.51-.7-2.93S218.13,417.72,218.1,418Z" style="fill:#263238"></path><path d="M212.24,418.21c-.14.21.74,1,1.18,2.28s.29,2.45.53,2.52.88-1.21.3-2.81S212.32,418,212.24,418.21Z" style="fill:#263238"></path><path d="M207.12,423.25c.2.13,1-.93.82-2.45s-1.05-2.45-1.23-2.28.27,1.1.36,2.35S206.89,423.15,207.12,423.25Z" style="fill:#263238"></path><path d="M220.61,412.39c0,.25,1.23.32,2.54.9s2.2,1.38,2.4,1.22-.5-1.37-2.05-2S220.57,412.16,220.61,412.39Z" style="fill:#263238"></path><path d="M223.87,407a4.82,4.82,0,0,0,2.44.88,11.44,11.44,0,0,0,2.83.14,11.15,11.15,0,0,0,1.67-.23,3.25,3.25,0,0,0,.94-.3,1.12,1.12,0,0,0,.57-1.23,1.39,1.39,0,0,0-.84-.92,3.43,3.43,0,0,0-1-.2,9.77,9.77,0,0,0-1.7,0,9.38,9.38,0,0,0-2.78.66c-1.51.63-2.22,1.38-2.15,1.45s.89-.42,2.36-.86a10.5,10.5,0,0,1,2.61-.44,10.26,10.26,0,0,1,1.55.08c.57.05,1,.21,1.06.49,0,.1,0,.14-.16.25a2.44,2.44,0,0,1-.69.22,15.3,15.3,0,0,1-1.55.27,14.36,14.36,0,0,1-2.68,0A18,18,0,0,0,223.87,407Z" style="fill:#263238"></path><path d="M224.06,407.5c.07.06.85-.61,1.49-2.12a8.39,8.39,0,0,0,.56-4.49,2.14,2.14,0,0,0-1.1-1.79,1.23,1.23,0,0,0-1.27.31,3.5,3.5,0,0,0-.57.8,5.52,5.52,0,0,0-.6,1.64,6.09,6.09,0,0,0,.12,2.89c.49,1.6,1.38,2.25,1.43,2.17a18.93,18.93,0,0,1-.82-2.32,5.92,5.92,0,0,1,.06-2.57,5.63,5.63,0,0,1,.56-1.39c.26-.48.61-.83.78-.71a1.5,1.5,0,0,1,.56,1.11,8.18,8.18,0,0,1,.12,1.54,8.91,8.91,0,0,1-.41,2.6C224.52,406.62,223.94,407.41,224.06,407.5Z" style="fill:#263238"></path><path d="M338.1,232.1c-.13-.08-6.86-.88-9.53-1.19a2.79,2.79,0,0,0-2,.49l-3.94,2.78-3.1,7.07,1,.63-.83,6.34a2,2,0,0,0,3.18-.33,27.52,27.52,0,0,0,2.79-4.81l4.35-.2-.19.41-4.42,1.26-1.38,3.84,1.45,3.87,3.07,2.67,1.29-.09,2.48,1.39s2.42-2.23.27-4.27c0,0,2.07,1.93,3.16,1.12L345,257l6.94-7.09,1.79-5.54S342,233.51,341.33,233A11.73,11.73,0,0,0,338.1,232.1Z" style="fill:#aa8776"></path><path d="M332.67,251.83c-.09,0,0-.55-.11-1.37a4.27,4.27,0,0,0-1.6-2.67l-.16-.11-.17-.13.05-.19a5.87,5.87,0,0,0,0-3.06c-.2-.78-.45-1.22-.37-1.27s.43.35.74,1.15a5.31,5.31,0,0,1,.14,3.34l-.11-.32.19.14a4.16,4.16,0,0,1,1.65,3.08C333,251.33,332.73,251.86,332.67,251.83Z" style="fill:#7f5d55"></path><path d="M329.53,254.84a4.07,4.07,0,0,0,.74-1.35,4,4,0,0,0-1-3.39c-.25-.33-.52-.64-.77-.94l-.1-.12,0-.14a2.64,2.64,0,0,0-.56-2.63c-.49-.53-.95-.67-.92-.74s.52,0,1.17.49a2.88,2.88,0,0,1,.83,3l-.06-.27c.26.3.54.61.81,1a5.5,5.5,0,0,1,1,2,3.14,3.14,0,0,1-.05,1.86C330.26,254.65,329.53,254.91,329.53,254.84Z" style="fill:#7f5d55"></path><path d="M330.63,247.6c.09.13-.29.54-.86.91s-1.08.58-1.17.45.3-.54.86-.92S330.55,247.47,330.63,247.6Z" style="fill:#7f5d55"></path><path d="M332.21,252.49c-.16,0-.43-.77-1.08-1.51s-1.39-1.13-1.33-1.28,1,0,1.76.91S332.35,252.48,332.21,252.49Z" style="fill:#7f5d55"></path><path d="M335,252.42c-.16-.06.67-2.09.92-4.74s-.16-4.79,0-4.82a11.82,11.82,0,0,1-.93,9.56Z" style="fill:#7f5d55"></path><path d="M325.33,237.2c.07,0,0,.42-.2,1a6.78,6.78,0,0,1-1.21,2.25,3.86,3.86,0,0,1-2.23,1.34c-.68.1-1.08-.09-1.06-.15s.4-.06,1-.24a4.27,4.27,0,0,0,1.89-1.31,11.37,11.37,0,0,0,1.28-2C325.06,237.52,325.26,237.17,325.33,237.2Z" style="fill:#7f5d55"></path><path d="M330.22,242.08c-.09-.12.13-.46.36-.86s.42-.76.57-.73.21.51-.09,1S330.32,242.2,330.22,242.08Z" style="fill:#7f5d55"></path><path d="M298.6,230l.65,18.71c.22,6.3,25.5,5.39,25-.87,0-.37-.65-18.72-.65-18.72Z" style="fill:#90CAF9"></path><path d="M323.09,232.46a13.93,13.93,0,0,1,4.51-.07,4.19,4.19,0,0,1,2.89,1.38,5,5,0,0,1,.76,2.42,9.55,9.55,0,0,1-.36,4.87,6.17,6.17,0,0,1-3.19,3.11,10.08,10.08,0,0,1-4.41.77l-.06-2.86a12.48,12.48,0,0,0,2.66-.23,4.23,4.23,0,0,0,2.29-1.32,5.65,5.65,0,0,0,.85-4.22,3.08,3.08,0,0,0-.51-1.64,2.65,2.65,0,0,0-2.2-.76,7.92,7.92,0,0,0-3.07.71" style="fill:#90CAF9"></path><path d="M325,235.16l8.62-.65,9.88,2.52,10.2,7.3s-6.82,10-9.94,7-6.82-9.55-6.82-9.55l-3.52-1.37S322,240.75,325,235.16Z" style="fill:#aa8776"></path><path d="M348.4,242.46a2.64,2.64,0,0,1-.5-.33l-1.38-1-5-3.91.08,0-9.9-2.45h.08l-8.61.66.23-.14-.07.13a2.35,2.35,0,0,0,0,2.7,5.15,5.15,0,0,0,2.53,1.4,21.15,21.15,0,0,0,5.65.67h.06l0,0,3.51,1.39.08,0,0,.07a67.82,67.82,0,0,0,4.6,7.17c.61.83,1.13,1.43,1.48,1.85a3.39,3.39,0,0,1,.54.64,3.26,3.26,0,0,1-.64-.55,22.9,22.9,0,0,1-1.59-1.77,58.29,58.29,0,0,1-4.79-7.12l.11.11-3.52-1.35h.1a21.28,21.28,0,0,1-5.82-.64,5.71,5.71,0,0,1-2.81-1.57,2.45,2.45,0,0,1-.58-1.65,3.79,3.79,0,0,1,.46-1.67l.07-.14.07-.14h.16l8.61-.63h.09l9.87,2.58h0l0,0,4.87,4L348,242A2.46,2.46,0,0,1,348.4,242.46Z" style="fill:#7f5d55"></path><path d="M324.05,248.67s-.27.25-.83.59a8.54,8.54,0,0,1-1,.57,12.51,12.51,0,0,1-1.44.64,25.65,25.65,0,0,1-8.93,1.7,28.06,28.06,0,0,1-9-1.3,18.08,18.08,0,0,1-2.57-1c-.59-.28-.9-.46-.88-.5s1.36.47,3.58,1.07a32.39,32.39,0,0,0,8.85,1.1,28.79,28.79,0,0,0,8.78-1.49C322.75,249.3,324,248.57,324.05,248.67Z" style="fill:#263238"></path><path d="M324.22,248.5c-.17,0-.46-4.32-.63-9.65s-.16-9.68,0-9.68.46,4.31.63,9.65S324.4,248.5,324.22,248.5Z" style="fill:#263238"></path><path d="M313.3,225.47a2.94,2.94,0,0,1-.52-1,4.56,4.56,0,0,1,.62-3c.32-.59.73-1.22,1.1-2a4.35,4.35,0,0,0,.54-2.57c-.32-2-2.45-3-3-5a4.88,4.88,0,0,1,0-2.88,7.13,7.13,0,0,1,1.39-2.37,7.63,7.63,0,0,0,1.37-2.22,4.48,4.48,0,0,0,.11-2.28,9.34,9.34,0,0,0-1.31-3,6.21,6.21,0,0,0-.69-1,7.73,7.73,0,0,0,.56,1,10.06,10.06,0,0,1,1.17,3,4.09,4.09,0,0,1-.15,2.12,7.19,7.19,0,0,1-1.34,2.11,7.1,7.1,0,0,0-1.47,2.48,5.16,5.16,0,0,0,0,3.11,7.21,7.21,0,0,0,1.68,2.6,4.91,4.91,0,0,1,1.35,2.33,4,4,0,0,1-.47,2.37c-.34.72-.74,1.35-1.06,2a4.6,4.6,0,0,0-.52,3.2,2.33,2.33,0,0,0,.43.79C313.2,225.41,313.29,225.48,313.3,225.47Z" style="fill:#263238"></path><path d="M309.69,225.47a3,3,0,0,1-.51-1,4.6,4.6,0,0,1,.61-3c.32-.59.74-1.22,1.1-2a4.27,4.27,0,0,0,.54-2.57c-.32-2-2.45-3-3-5a5,5,0,0,1,0-2.88,7.13,7.13,0,0,1,1.39-2.37,7.39,7.39,0,0,0,1.36-2.22,4.38,4.38,0,0,0,.12-2.28,9.34,9.34,0,0,0-1.31-3,6.21,6.21,0,0,0-.69-1,7.73,7.73,0,0,0,.56,1,10.06,10.06,0,0,1,1.17,3,4.09,4.09,0,0,1-.15,2.12,7.4,7.4,0,0,1-1.34,2.11A7.28,7.28,0,0,0,308,208.9a5.24,5.24,0,0,0,0,3.11,7.21,7.21,0,0,0,1.68,2.6,4.91,4.91,0,0,1,1.35,2.33,4.06,4.06,0,0,1-.47,2.37c-.34.72-.75,1.35-1.06,2a4.54,4.54,0,0,0-.52,3.2,2.17,2.17,0,0,0,.43.79A1.09,1.09,0,0,0,309.69,225.47Z" style="fill:#263238"></path><path d="M257.85,443.16l-16,40.45L192,462.6c2.3-4.64,32.13-3.34,32.13-3.34l9.9-26.07Z" style="fill:#90CAF9"></path><path d="M240.21,463.6a2.22,2.22,0,0,1,.43,2.92,2.12,2.12,0,0,1-2.89.45,2.32,2.32,0,0,1-.44-3.09,2.21,2.21,0,0,1,3.06-.14" style="fill:#e0e0e0"></path><path d="M241.62,483.61l1.81-4.19-48.72-18.37s-2.63,0-3,1.72Z" style="fill:#263238"></path><path d="M223.17,458.67c-.09.25,1.08.87,2,2.16s1.07,2.58,1.34,2.58.49-1.56-.58-3.11S223.22,458.42,223.17,458.67Z" style="fill:#263238"></path><path d="M217,458.63c-.15.21.73,1.07,1.12,2.45s.17,2.57.42,2.66,1-1.22.46-2.93S217.14,458.4,217,458.63Z" style="fill:#263238"></path><path d="M211.42,463.64c.2.14,1.05-.93,1-2.53s-1-2.61-1.17-2.45.22,1.17.25,2.49S211.19,463.51,211.42,463.64Z" style="fill:#263238"></path><path d="M226.09,453c0,.26,1.27.4,2.61,1.07s2.22,1.56,2.44,1.41-.45-1.46-2-2.23S226.05,452.74,226.09,453Z" style="fill:#263238"></path><path d="M229.77,447.56a5.1,5.1,0,0,0,2.5,1,12.32,12.32,0,0,0,3,.3,12,12,0,0,0,1.75-.16,3.13,3.13,0,0,0,1-.27,1.14,1.14,0,0,0,.66-1.24,1.44,1.44,0,0,0-.83-1,3.51,3.51,0,0,0-1-.27,10,10,0,0,0-1.78-.12,9.7,9.7,0,0,0-2.94.54c-1.61.59-2.39,1.33-2.32,1.41s1-.4,2.51-.78a10.28,10.28,0,0,1,4.37-.16c.59.09,1,.27,1.08.56,0,.11,0,.15-.18.26a3.12,3.12,0,0,1-.73.2,13.76,13.76,0,0,1-1.64.19,14.67,14.67,0,0,1-2.8-.09A20.31,20.31,0,0,0,229.77,447.56Z" style="fill:#263238"></path><path d="M229.94,448c.07.08.92-.59,1.68-2.13a8.73,8.73,0,0,0,.81-4.66,2.21,2.21,0,0,0-1.06-1.93,1.26,1.26,0,0,0-1.34.25,4,4,0,0,0-.64.81,5.81,5.81,0,0,0-.71,1.68,6.21,6.21,0,0,0,0,3c.43,1.7,1.32,2.42,1.38,2.35a21.46,21.46,0,0,1-.74-2.47,6.15,6.15,0,0,1,.2-2.68,5.55,5.55,0,0,1,.65-1.43c.3-.49.68-.84.86-.7s.5.68.53,1.19a9.55,9.55,0,0,1-.52,4.31C230.47,447.15,229.82,448,229.94,448Z" style="fill:#263238"></path><path d="M218.11,399.31l31.14-85.37c4.61-10.07,14.57-14.51,25.88-11.84l90.93,17.49,56.07,37.52s-3.27,15.36-10.73,18.08c-2,.74-123,2.42-123,2.42l-31.76,73-26.09-11.82L243,407.5Z" style="fill:#455a64"></path><path d="M276.83,362.81c.18-.13,2.58,3.1,5.37,7.2s4.89,7.53,4.71,7.65-2.58-3.1-5.37-7.21S276.65,362.93,276.83,362.81Z" style="fill:#263238"></path><path d="M288.3,355.24a12.13,12.13,0,0,1,.66,3.24,64.66,64.66,0,0,1,.06,15.89,12,12,0,0,1-.64,3.24c-.24,0,.35-5,.32-11.18S288.06,355.27,288.3,355.24Z" style="fill:#263238"></path><path d="M256.62,450.6a1.87,1.87,0,0,1,.12-.36l.43-1.07c.4-1,1-2.33,1.71-4.09,1.54-3.59,3.75-8.76,6.51-15.24L288,377.46l.1-.22h.24l29.74-1L395.42,374l13.35-.36a9.12,9.12,0,0,0,5.11-1.39,12.44,12.44,0,0,0,3.38-3,19.73,19.73,0,0,0,2.95-5.56c.21-.67.36-1.19.48-1.58a5.27,5.27,0,0,1,.19-.54s1.25-5.65-.11.56c-.1.4-.23.93-.41,1.61a18.79,18.79,0,0,1-2.86,5.7,12.62,12.62,0,0,1-3.43,3.13,9.53,9.53,0,0,1-5.29,1.5l-13.34.48-77.3,2.55-29.75.92.34-.22C279.5,398.82,271.52,417,265.83,430c-2.85,6.44-5.13,11.58-6.72,15.16l-1.82,4c-.2.43-.36.77-.49,1A1.54,1.54,0,0,1,256.62,450.6Z" style="fill:#263238"></path><path d="M231.5,437.16s0-.17.15-.48l.5-1.4c.44-1.23,1.08-3,2-5.35,1.72-4.64,4.29-11.33,7.56-19.55,6.56-16.44,15.88-39,26.86-63.71,1.39-3.06,2.66-6.23,4.88-8.78a12.71,12.71,0,0,1,3.92-3,16.83,16.83,0,0,1,4.63-1.5,45.94,45.94,0,0,1,9.4-.42c3.06.07,6.05.09,9,.08,11.69,0,22.23-.28,31.08-.4s16-.21,20.95-.17c2.48,0,4.4.05,5.7.1l1.48,0a4,4,0,0,1,.51,0h-7.69c-4.94,0-12.1.15-20.95.33s-19.38.46-31.08.52q-4.39,0-9-.06a44.77,44.77,0,0,0-9.3.43,16.27,16.27,0,0,0-4.49,1.45,12.27,12.27,0,0,0-3.76,2.92c-2.14,2.45-3.41,5.58-4.79,8.65-11,24.66-20.36,47.24-27,63.64-3.31,8.2-5.93,14.86-7.71,19.48l-2.06,5.31-.54,1.38C231.58,437,231.5,437.16,231.5,437.16Z" style="fill:#263238"></path><path d="M440.47,217.16l-33.43,5v5.36c-.83,1-14.84,22.91-17.59,29.44-2.69,6.37-8.54,36.26-6.45,36.26l-28.1,22.7-.1.12,14.31,20.37a35.84,35.84,0,0,0,14.58,12.05c10.39,4.69,23.72,10.25,28.25,10.12a26.48,26.48,0,0,0,8.4-2l.07,0,0-.07c.34-.7,27.77-74.53,28.93-95.84S440.65,217.42,440.47,217.16Z" style="fill:#263238"></path><path d="M370,337.39c5.29,4.16,30.49,4.19,42.39,1.46s9.13-6.41,11.87-14.4,9.54-37.65,9-56.55-15.68-30.79-18.81-32.46S404.2,241,400.15,247.72s-4.66,60.82-4.66,60.82l-40.41,8.65L358.69,335Z" style="fill:#263238"></path><path d="M395.24,340.86c-10.67.29-21.83-.63-25.28-3.28l-11.44-2.44,0-.13-3.64-18,.19,0,40.26-8.62c0-3.83.72-54.2,4.68-60.77,3.84-6.36,11.27-14.14,14.62-12.34,3.63,1.93,18.39,13.82,18.91,32.63.52,18.5-6.09,48.07-9,56.61a39.92,39.92,0,0,0-1.28,5c-1,4.64-1.54,7.45-10.74,9.56A97.14,97.14,0,0,1,395.24,340.86Zm-36.38-6.05,11.31,2.43c5.07,4,29.87,4.26,42.21,1.42,8.95-2.05,9.48-4.61,10.44-9.25a37.47,37.47,0,0,1,1.3-5c2.92-8.53,9.51-38,9-56.48-.52-18.61-15.12-30.38-18.7-32.29-2.89-1.54-9.94,5.3-14.1,12.2-4,6.58-4.62,60.18-4.63,60.72v.16l-.16,0-40.21,8.61Z" style="fill:#263238"></path><path d="M398.4,257s0,.31,0,.92-.06,1.56-.11,2.72c-.12,2.42-.28,5.91-.49,10.35-.48,9-1.15,21.88-2,37.57v.25l-.25.05-40.39,8.72.3-.47c1.16,5.68,2.37,11.66,3.62,17.78l-.31-.31c5.58,1.28,11.44,2.63,17.46,3.66,8.74,1.51,17.45,2.24,25.76,1.27a43.72,43.72,0,0,0,11.87-2.81,15.52,15.52,0,0,0,8.37-7.6c1.64-3.43,2.23-7.18,3-10.74s1.49-7,2.2-10.4c1.38-6.72,2.54-13,3.41-18.76a175.88,175.88,0,0,0,2.2-27.48c0-3.26-.12-5.79-.24-7.51,0-.82-.08-1.47-.11-2a3.64,3.64,0,0,1,0-.66,5.19,5.19,0,0,1,.09.66c.05.47.11,1.12.19,1.94.17,1.71.32,4.25.39,7.51a166.68,166.68,0,0,1-1.95,27.57c-.83,5.79-2,12.09-3.31,18.82q-1,5-2.16,10.41c-.79,3.55-1.36,7.34-3.06,10.92a14.91,14.91,0,0,1-3.56,4.78,19.21,19.21,0,0,1-5.18,3.21,44.52,44.52,0,0,1-12.09,2.9c-8.41,1-17.21.25-26-1.27-6.05-1-11.93-2.39-17.5-3.68l-.26-.06,0-.25c-1.24-6.13-2.45-12.11-3.59-17.79l-.08-.38.38-.08,40.42-8.59-.26.3c.95-15.68,1.72-28.55,2.26-37.55.29-4.44.52-7.93.68-10.35.08-1.15.15-2.05.2-2.7S398.4,257,398.4,257Z" style="fill:#455a64"></path><path d="M428.5,243.91c-.1.1-1.28-1.06-3.54-2.36a19.74,19.74,0,0,0-19.41-.24c-2.3,1.24-3.5,2.37-3.6,2.26s.23-.36.77-.87a15.32,15.32,0,0,1,2.54-1.9,18.83,18.83,0,0,1,20,.25,17.11,17.11,0,0,1,2.49,2C428.28,243.54,428.53,243.87,428.5,243.91Z" style="fill:#455a64"></path><path d="M355.61,318l-12.06-8.72-18.67,5.05s.31,1.64,2.75,2.38l5.08-1-9.22,6.7a5.15,5.15,0,0,0,3.73,3.52,9.4,9.4,0,0,1,4.79,3.23l5,5,12.89-.36,8.71-1.12-3-14.7Z" style="fill:#aa8776"></path></g></svg>