<svg xmlns="http://www.w3.org/2000/svg" viewBox="0 0 500 500"><g id="freepik--background-simple--inject-2"><path d="M456.45,167.63l-2-4.35c-16-34.92-49.56-59-87.87-61.68a103,103,0,0,0-16.19.13c-35.93,3.13-69.59,25.57-86.31,57.53-9.83,18.79-14.67,41.22-30.67,55.14-20.83,18.12-52.06,15-79.35,10.78s-58.54-7.26-79.29,10.94c-13,11.41-18.85,29.16-20,46.41-3.09,45.66,24,90.13,62.24,115.26s86,32.77,131.61,29.33c63.94-4.82,127.46-31.71,169.56-80.06S478.07,228,456.45,167.63Z" style="fill:#ebebeb"></path><circle cx="132.22" cy="127.89" r="43.32" transform="matrix(0.92, -0.39, 0.39, 0.92, -39.62, 62.25)" style="fill:#ebebeb"></circle></g><g id="freepik--character-2--inject-2"><rect x="275.65" y="88.96" width="63.27" height="92.77" style="fill:#f5f5f5"></rect><path d="M338.91,181.73s0-.16,0-.46,0-.74,0-1.31c0-1.17,0-2.87,0-5.08,0-4.45,0-10.92-.07-19.1,0-16.34-.07-39.5-.12-66.82l.24.24-63.26,0h0l.26-.26c0,34.9,0,67.11-.06,92.77l-.2-.21,46,.11,12.74.05,3.35,0c.76,0,1.16,0,1.16,0l-1.11,0-3.31,0-12.7.05-46.14.11h-.21v-.21c0-25.66,0-57.87-.05-92.77V88.7h.26l63.26,0h.24V89c0,27.38-.09,50.59-.12,67,0,8.15,0,14.61-.06,19,0,2.19,0,3.88,0,5,0,.56,0,1,0,1.29S338.91,181.73,338.91,181.73Z" style="fill:#263238"></path><path d="M281.62,178.19a8.72,8.72,0,0,1,.07-15.83,3.67,3.67,0,0,0,1.53-1c.56-.74.34-1.78.36-2.71a4.88,4.88,0,0,1,4.7-4.56l14.25,5.6v15Z" style="fill:#263238"></path><path d="M276.41,181.48S287,173.15,300,171.19s27.51,0,27.51,0a40.11,40.11,0,0,1,11.35,3.93l.07,6.57-14-.05Z" style="fill:#90CAF9"></path><path d="M332.93,112.21c-1.36-3.77-7.8-7-11.34-8.89-5.29-2.81-10.09-2-13,.7-5.51-4.32-12.71-8.4-19.42-6.41s-12,9.11-10.51,16c.86,4,3.79,7.58,3.76,11.71,0,2.81-1.42,5.39-2.52,8s-1.91,5.59-.77,8.16c1.07,2.39,3.57,3.82,5,6,1.14,1.8,1.46,4,2.21,6,2.8,7.39,11.76,11.28,19.5,9.71s14-7.65,17.47-14.76,4.4-15.17,4.56-23.06" style="fill:#263238"></path><path d="M327.57,173.43l-.27-55.63-23.4-7.13a12.78,12.78,0,0,0-14.46,11.44c-.84,8.62-1.54,19.46-.71,26,1.63,12.83,11.36,14.76,11.36,14.76s-.08,4.76-.18,10.33a13.78,13.78,0,0,0,2.66,8.41H324.9A13.76,13.76,0,0,0,327.57,173.43Z" style="fill:#ffbe9d"></path><path d="M300.09,162.9a33.34,33.34,0,0,0,17.25-4.13s-4.57,9.12-17.31,7.52Z" style="fill:#eb996e"></path><path d="M308,123.47c.16.49,1.93.32,4,.63s3.71.93,4,.51c.13-.2-.15-.66-.81-1.15a6.8,6.8,0,0,0-2.94-1.13,6.65,6.65,0,0,0-3.14.27C308.34,122.88,308,123.25,308,123.47Z" style="fill:#263238"></path><path d="M291.75,124.45c.3.41,1.53,0,3,0s2.68.36,3,0c.13-.2-.05-.61-.58-1a4.28,4.28,0,0,0-4.81,0C291.81,123.84,291.62,124.25,291.75,124.45Z" style="fill:#263238"></path><path d="M307.55,137.86a.47.47,0,0,0,.48.45.48.48,0,0,0,.46-.48.47.47,0,0,0-.94,0Z" style="fill:#eb996e"></path><path d="M294.28,136a.47.47,0,1,0,.93,0,.48.48,0,0,0-.48-.46A.47.47,0,0,0,294.28,136Z" style="fill:#eb996e"></path><path d="M291.74,137.32a.47.47,0,0,0,.48.45.47.47,0,1,0,0-.94A.48.48,0,0,0,291.74,137.32Z" style="fill:#eb996e"></path><path d="M290.89,135.39a.47.47,0,1,0,.45-.48A.47.47,0,0,0,290.89,135.39Z" style="fill:#eb996e"></path><path d="M309.76,139.85a.46.46,0,0,0,.48.45.47.47,0,1,0-.48-.45Z" style="fill:#eb996e"></path><path d="M311.44,137.92a.47.47,0,1,0,.45-.49A.48.48,0,0,0,311.44,137.92Z" style="fill:#eb996e"></path><path d="M303.74,108.72a22.09,22.09,0,0,1,23.59-1.2c7.25,4.27,11.2,10.43,11.58,20.59v12.95c-.38,5.9.88,9.32-2,10.32-4,1.36-7,12.12-10.42,11.37-4.21-3.27-4.28-5.18-4.43-11.87-.16-7.19-2.32-15.74.5-20.37-9.3-2.77-16.72-11.67-18.14-21.78" style="fill:#263238"></path><path d="M290.68,97.21c0,.07,1.1.07,2.81.46a10.93,10.93,0,0,1,1.38.4,14.85,14.85,0,0,1,1.54.58,18.73,18.73,0,0,1,3.25,1.9,18.53,18.53,0,0,1,2.76,2.56c.36.45.73.87,1,1.3a12.58,12.58,0,0,1,.77,1.21c.88,1.52,1.2,2.58,1.26,2.55a4,4,0,0,0-.22-.73,6,6,0,0,0-.33-.85,10.52,10.52,0,0,0-.53-1.07,12.51,12.51,0,0,0-.75-1.25c-.28-.44-.64-.87-1-1.34a16.24,16.24,0,0,0-6.1-4.52,16.17,16.17,0,0,0-1.57-.58,14,14,0,0,0-1.41-.36,10.71,10.71,0,0,0-1.19-.19,6.41,6.41,0,0,0-.9-.07A3.78,3.78,0,0,0,290.68,97.21Z" style="fill:#455a64"></path><path d="M283.25,146l-.09-.1-.27-.31a14.75,14.75,0,0,1-1-1.19,6.78,6.78,0,0,1-1.21-2.15,3.93,3.93,0,0,1-.16-1.51,4.16,4.16,0,0,1,.52-1.61,27.85,27.85,0,0,1,2.41-3.19,17.95,17.95,0,0,0,3.49-9,35.88,35.88,0,0,0,0-5.48,19.27,19.27,0,0,1,.31-5.4,11,11,0,0,1,5.86-7.2,10.38,10.38,0,0,1,3.81-1,11.45,11.45,0,0,1,5.62,1,12.44,12.44,0,0,1,1.37.77l.34.22c.08,0,.12.08.12.07a8,8,0,0,0-1.78-1.16,11.24,11.24,0,0,0-5.68-1.14,10.33,10.33,0,0,0-3.91,1,11.3,11.3,0,0,0-6,7.35,18.83,18.83,0,0,0-.33,5.48,39.69,39.69,0,0,1,.05,5.44,18,18,0,0,1-3.4,8.89,27.15,27.15,0,0,0-2.4,3.23,4.36,4.36,0,0,0-.53,1.7,4,4,0,0,0,.2,1.57,6.68,6.68,0,0,0,1.27,2.17c.44.53.82.91,1.07,1.16l.3.29Z" style="fill:#455a64"></path><path d="M291.77,132.28c.19.22,1.45-.67,3.2-.63s3,.94,3.22.73-.1-.48-.65-.9a4.43,4.43,0,0,0-2.57-.85,4.26,4.26,0,0,0-2.56.77C291.86,131.8,291.67,132.18,291.77,132.28Z" style="fill:#263238"></path><path d="M309.7,132.57c.2.21,1.45-.68,3.21-.64s3,.95,3.22.74-.1-.49-.66-.91a4.47,4.47,0,0,0-2.57-.84,4.21,4.21,0,0,0-2.56.77C309.79,132.09,309.6,132.47,309.7,132.57Z" style="fill:#263238"></path><path d="M303.07,143.16a11.61,11.61,0,0,0-2.84-.57c-.45-.05-.87-.15-.94-.46a2.27,2.27,0,0,1,.33-1.32c.44-1.08.9-2.21,1.39-3.39,1.94-4.82,3.35-8.79,3.15-8.87s-1.92,3.77-3.86,8.6c-.46,1.19-.91,2.32-1.34,3.41a2.55,2.55,0,0,0-.26,1.75,1.11,1.11,0,0,0,.72.67,3.38,3.38,0,0,0,.76.12A11.42,11.42,0,0,0,303.07,143.16Z" style="fill:#263238"></path><path d="M303.73,147.41a3.17,3.17,0,0,1,2.86-1.12,2.89,2.89,0,0,1,2,1.11,1.83,1.83,0,0,1,.1,2.09,2.11,2.11,0,0,1-2.31.54,6.52,6.52,0,0,1-2.22-1.38,1.89,1.89,0,0,1-.49-.53.59.59,0,0,1,0-.66" style="fill:#90CAF9"></path><path d="M308.21,144.48c-.28,0-.32,1.88-2,3.2s-3.68,1.07-3.7,1.34c0,.12.44.38,1.3.42a4.78,4.78,0,0,0,3.09-1,4.14,4.14,0,0,0,1.54-2.69C308.55,145,308.34,144.47,308.21,144.48Z" style="fill:#263238"></path><path d="M338.27,124.55a7,7,0,0,1-1.46.31,27.06,27.06,0,0,1-4.08.28,29.77,29.77,0,0,1-23.44-11.54,27.2,27.2,0,0,1-2.26-3.4,8.18,8.18,0,0,1-.65-1.34,9.1,9.1,0,0,1,.83,1.24,32.9,32.9,0,0,0,2.37,3.27,30.84,30.84,0,0,0,23.16,11.4,33.26,33.26,0,0,0,4-.11A9.6,9.6,0,0,1,338.27,124.55Z" style="fill:#455a64"></path><path d="M334.77,153s.56-.67,1.43-2a16.14,16.14,0,0,0,2.38-6.11,14.33,14.33,0,0,0-1.81-9.39,15.53,15.53,0,0,0-3.73-4.33,18.37,18.37,0,0,0-5.45-2.86c-2-.73-4-1.28-5.95-2a24.85,24.85,0,0,1-5.25-2.66,26,26,0,0,1-7-7,24.32,24.32,0,0,1-3-6,16,16,0,0,1-.5-1.75,4.51,4.51,0,0,1-.12-.63c.06,0,.25.84.81,2.31a26.13,26.13,0,0,0,10.07,12.65,24.72,24.72,0,0,0,5.17,2.58c1.88.7,3.91,1.25,5.95,2a18.91,18.91,0,0,1,5.59,3,15.72,15.72,0,0,1,3.82,4.5,14.5,14.5,0,0,1,1.76,9.68,15.51,15.51,0,0,1-2.58,6.16,12.48,12.48,0,0,1-1.14,1.42A2.91,2.91,0,0,1,334.77,153Z" style="fill:#455a64"></path><path d="M300.09,162.9s-.23.12-.67.21a9,9,0,0,1-1.93.14,12.5,12.5,0,0,1-6-2,11.35,11.35,0,0,1-4.19-4.74,9.56,9.56,0,0,1-.64-1.81,1.82,1.82,0,0,1-.09-.71c.09,0,.32,1,1.06,2.36a11.93,11.93,0,0,0,4.14,4.46,13.47,13.47,0,0,0,5.77,2C299.09,163,300.08,162.81,300.09,162.9Z" style="fill:#455a64"></path></g><g id="freepik--Device--inject-2"><path d="M324.26,47,181.5,46.87A31.1,31.1,0,0,0,150.38,78l-.07,357.92A31.11,31.11,0,0,0,181.39,467l142.77.08A31.09,31.09,0,0,0,355.27,436l.07-357.92A31.09,31.09,0,0,0,324.26,47Zm21.55,383.79A21.77,21.77,0,0,1,324,452.53l-142.48-.08a21.78,21.78,0,0,1-21.77-21.79l.07-349.35a21.77,21.77,0,0,1,21.79-21.78h34a6.88,6.88,0,0,1,6.72,7v5a6.88,6.88,0,0,0,6.72,7l54,0a6.87,6.87,0,0,0,6.73-7v-5a6.87,6.87,0,0,1,6.72-7h27.68A21.78,21.78,0,0,1,345.88,81.4Z" style="fill:#263238"></path><rect x="220.29" y="374.08" width="74.08" height="32.98" style="fill:#263238"></rect><path d="M345.82,374.08H282.1c0,14.05-12,25.48-26.64,25.48s-26.63-11.43-26.63-25.48h-69v57.15A21.78,21.78,0,0,0,181.57,453l142.48.08a21.77,21.77,0,0,0,21.79-21.78Z" style="fill:#90CAF9"></path><path d="M232.55,409.08h4.36c3.14,0,5.3,1.9,5.3,4.8s-2.16,4.8-5.3,4.8h-4.36Zm4.25,7.78a3,3,0,1,0,0-5.95h-2v5.95Z" style="fill:#fff"></path><path d="M250.25,414.47v4.21h-2v-.91a2.43,2.43,0,0,1-2.25,1c-1.73,0-2.76-1-2.76-2.23s.92-2.21,3.17-2.21h1.7c0-.92-.55-1.45-1.7-1.45a3.55,3.55,0,0,0-2.12.68l-.77-1.49a5.64,5.64,0,0,1,3.18-.9C249,411.19,250.25,412.24,250.25,414.47Zm-2.14,1.88v-.75h-1.46c-1,0-1.32.37-1.32.86s.45.89,1.2.89A1.57,1.57,0,0,0,248.11,416.35Z" style="fill:#fff"></path><path d="M259.73,414.46v4.22h-2.14v-3.89c0-1.19-.55-1.74-1.5-1.74s-1.77.63-1.77,2v3.64h-2.14v-7.37h2v.86a3.23,3.23,0,0,1,2.44-1C258.41,411.19,259.73,412.21,259.73,414.46Z" style="fill:#fff"></path><path d="M261.4,409.08a1.22,1.22,0,0,1,1.33-1.19,1.2,1.2,0,0,1,1.33,1.15,1.24,1.24,0,0,1-1.33,1.24A1.23,1.23,0,0,1,261.4,409.08Zm.26,2.23h2.14v7.37h-2.14Z" style="fill:#fff"></path><path d="M273,415.6h-5.58a2,2,0,0,0,2.11,1.48,2.49,2.49,0,0,0,1.85-.71l1.14,1.23a3.85,3.85,0,0,1-3,1.19c-2.55,0-4.21-1.6-4.21-3.8a3.76,3.76,0,0,1,3.93-3.8A3.66,3.66,0,0,1,273,415C273,415.19,273,415.42,273,415.6Zm-5.61-1.25H271a1.85,1.85,0,0,0-3.64,0Z" style="fill:#fff"></path><path d="M274.44,408.51h2.14v10.17h-2.14Z" style="fill:#fff"></path><path d="M246.29,425.58v5.63h-.41V426h-1.37v-.37Z" style="fill:#fff"></path><path d="M247.72,428.4c0-1.76.91-2.86,2.2-2.86s2.21,1.1,2.21,2.86-.91,2.85-2.21,2.85S247.72,430.16,247.72,428.4Zm4,0c0-1.57-.73-2.48-1.8-2.48s-1.79.91-1.79,2.48.73,2.47,1.79,2.47S251.72,430,251.72,428.4Z" style="fill:#fff"></path><path d="M253,427.32a.34.34,0,1,1,.67,0,.34.34,0,1,1-.67,0Zm0,3.58a.34.34,0,1,1,.67,0,.34.34,0,1,1-.67,0Z" style="fill:#fff"></path><path d="M254.62,428.4c0-1.76.91-2.86,2.21-2.86s2.2,1.1,2.2,2.86-.91,2.85-2.2,2.85S254.62,430.16,254.62,428.4Zm4,0c0-1.57-.73-2.48-1.79-2.48s-1.8.91-1.8,2.48.74,2.47,1.8,2.47S258.62,430,258.62,428.4Z" style="fill:#fff"></path><path d="M264.62,429.65h-1.19v1.56H263v-1.56h-3.21v-.3l3.06-3.77h.46l-3,3.71H263v-1.38h.39v1.38h1.19Z" style="fill:#fff"></path><rect x="178.81" y="400.77" width="21.64" height="21.64" rx="4.45" style="fill:#fafafa"></rect><path d="M324.63,420.93h-12a4.71,4.71,0,0,1-4.7-4.7v-12a4.7,4.7,0,0,1,4.7-4.69h12a4.7,4.7,0,0,1,4.7,4.69v12A4.71,4.71,0,0,1,324.63,420.93Zm-12-20.9a4.2,4.2,0,0,0-4.2,4.19v12a4.21,4.21,0,0,0,4.2,4.2h12a4.2,4.2,0,0,0,4.2-4.2v-12a4.2,4.2,0,0,0-4.2-4.19Z" style="fill:#fff"></path><path d="M193.57,408.07h-7.89a1,1,0,0,0-1,1v5.22a1,1,0,0,0,1,1h.67v2.3l2.66-2.3h4.56a1,1,0,0,0,1-1V409.1A1,1,0,0,0,193.57,408.07Zm-6.45,4.6a.78.78,0,1,1,.77-.77A.77.77,0,0,1,187.12,412.67Zm2.4,0a.78.78,0,1,1,.78-.77A.78.78,0,0,1,189.52,412.67Zm2.57,0a.78.78,0,1,1,.78-.77A.78.78,0,0,1,192.09,412.67Z" style="fill:#90CAF9"></path><path d="M315.88,413a.25.25,0,0,1-.24-.23c-.6-5,3.12-6.57,3.16-6.58a.25.25,0,0,1,.32.13.24.24,0,0,1-.13.33c-.14.06-3.41,1.47-2.86,6.07a.24.24,0,0,1-.22.27Z" style="fill:#fff"></path><path d="M315.88,413a.28.28,0,0,1-.19-.09l-1.57-1.85a.25.25,0,0,1,0-.36.26.26,0,0,1,.35,0l1.37,1.62,1.21-1.61a.24.24,0,0,1,.35,0,.25.25,0,0,1,.05.35l-1.4,1.85a.26.26,0,0,1-.19.1Z" style="fill:#fff"></path><path d="M318.36,414.3a.25.25,0,0,1-.23-.16.25.25,0,0,1,.13-.32c.14-.06,3.41-1.48,2.86-6.07a.25.25,0,0,1,.22-.28.27.27,0,0,1,.28.22c.59,5-3.13,6.57-3.17,6.59Z" style="fill:#fff"></path><path d="M320,409.82a.23.23,0,0,1-.15-.05.25.25,0,0,1-.05-.35l1.4-1.85a.24.24,0,0,1,.19-.1h0a.28.28,0,0,1,.19.09l1.57,1.85a.25.25,0,0,1,0,.35.26.26,0,0,1-.36,0l-1.37-1.62-1.21,1.6A.23.23,0,0,1,320,409.82Z" style="fill:#fff"></path><circle cx="189.47" cy="98.13" r="14.72" style="fill:#ebebeb"></circle><path d="M188.68,102.43a.27.27,0,0,1-.18-.08l-3.84-4a.26.26,0,0,1,0-.35l3.84-4a.26.26,0,0,1,.36,0,.25.25,0,0,1,0,.36l-3.67,3.86,3.67,3.87a.25.25,0,0,1,0,.36A.29.29,0,0,1,188.68,102.43Z" style="fill:#263238"></path><path d="M195.35,98.38H184.84a.25.25,0,0,1-.25-.25.26.26,0,0,1,.25-.25h10.51a.25.25,0,0,1,.25.25A.25.25,0,0,1,195.35,98.38Z" style="fill:#263238"></path><circle cx="321.46" cy="355.51" r="13.24" transform="translate(-81.13 615.6) rotate(-80.74)" style="fill:#90CAF9"></circle><path d="M321.46,358.48a2.39,2.39,0,0,1-2.39-2.38v-5.21a2.39,2.39,0,0,1,4.78,0v5.21A2.39,2.39,0,0,1,321.46,358.48Zm0-9.47a1.89,1.89,0,0,0-1.89,1.88v5.21a1.89,1.89,0,0,0,3.78,0v-5.21A1.89,1.89,0,0,0,321.46,349Z" style="fill:#fff"></path><path d="M321.46,360.16a4.29,4.29,0,0,1-3.35-1.33,6.38,6.38,0,0,1-1.27-4.43.25.25,0,0,1,.5.05,6,6,0,0,0,1.14,4.05,3.83,3.83,0,0,0,3,1.16,4,4,0,0,0,3-1.16,6.19,6.19,0,0,0,1.37-4.07.25.25,0,0,1,.24-.25.25.25,0,0,1,.26.24,6.61,6.61,0,0,1-1.51,4.43A4.49,4.49,0,0,1,321.46,360.16Z" style="fill:#fff"></path><path d="M321.46,363.82a.25.25,0,0,1-.25-.25v-3.66a.25.25,0,0,1,.5,0v3.66A.25.25,0,0,1,321.46,363.82Z" style="fill:#fff"></path><circle cx="255.46" cy="372.94" r="23.28" style="fill:#90CAF9"></circle><path d="M253.39,366.5a4,4,0,0,0-6,1.22,2.41,2.41,0,0,0,.56,3c2.14,2.1,6.63,6.31,8.58,8.14a4.84,4.84,0,0,0,4,1.29,4.15,4.15,0,0,0,2.82-1.75c2.21-3-3.07-5.38-3.07-5.38l-2.31,2.42-5.38-5.19,2.36-2.6Z" style="fill:#fff"></path></g></svg>