<svg xmlns="http://www.w3.org/2000/svg" viewBox="0 0 750 500"><g id="freepik--background-simple--inject-4"><path d="M137.84,200c-6.87-37.45,8.83-78.14,39.06-101.29,35.52-27.19,89.79-27.34,124.42,1,15.56,12.73,27.56,30.57,46.1,38.35,37.87,15.9,81.38-17.53,121.09-7.06,18.88,5,34.36,19.89,42.1,37.81s8.22,38.48,3.52,57.43c-10.5,42.32-32.41,67.82-74,80.79S344.43,317,301,320.4C252.15,324.21,153.27,302.12,137.84,200" style="fill:#ebebeb"></path><path d="M539.32,254.49c-7.33-1.85-15.62,3.93-16.41,11.46s6.11,14.9,13.66,14.62,13.89-8.16,12.54-15.61c-1.19-6.53-7.54-11.44-14.17-11.88" style="fill:#ebebeb"></path></g><g id="freepik--Floor--inject-4"><path d="M728.2,460.85c0,.14-158.14.26-353.18.26S21.8,461,21.8,460.85s158.11-.26,353.22-.26S728.2,460.7,728.2,460.85Z" style="fill:#263238"></path></g><g id="freepik--Controls--inject-4"><polygon points="294.23 360.57 310.77 360.57 310.77 205.51 59.19 205.51 43.96 205.51 43.96 363.62 43.96 460.59 339.92 460.59 339.92 390.72 294.23 360.57" style="fill:#90CAF9"></polygon><g style="opacity:0.4"><polygon points="294.23 360.57 310.77 360.57 310.77 205.51 59.19 205.51 43.96 205.51 43.96 363.62 43.96 460.59 339.92 460.59 339.92 390.72 294.23 360.57"></polygon></g><rect x="59.42" y="205.49" width="251.59" height="155.06" style="fill:#90CAF9"></rect><polygon points="340.16 390.7 311.01 360.54 59.42 360.54 93.1 390.7 340.16 390.7" style="fill:#90CAF9"></polygon><rect x="71.1" y="218.31" width="227.25" height="128.55" style="fill:#263238"></rect><path d="M227.15,259.68a1.93,1.93,0,0,1-.52,0l-1.54,0-5.9.06.12-.09c-1,3.49-2.26,8.15-3.8,13.66l-.38,1.38v-1.43c0-7.13,0-15.75-.06-25.24l.5.06-2.95,11.37-.05.2H206l.25-.2-3.19,13.87-.5,2.18v-2.24c0-9.47,0-18.06.06-25.24l.39.06c-1.52,4.78-2.82,8.87-3.87,12.19l0,.1H199l-7.5-.06-2,0-.5,0-.17,0,.17,0,.5,0,2,0,7.5-.07-.14.1c1-3.33,2.28-7.44,3.76-12.23l.38-1.26v1.32c0,7.18,0,15.77,0,25.24l-.5-.06c1-4.44,2.08-9.09,3.18-13.87l0-.2h6.58l-.25.19c1-3.9,2-7.71,3-11.37l.5-1.91v2c0,9.49,0,18.11-.06,25.24l-.38-.05c1.58-5.5,2.93-10.15,3.93-13.63l0-.09h.09l5.9.06,1.54,0Z" style="fill:#90CAF9"></path><path d="M275.17,317.28a5.14,5.14,0,0,1-.3-.8,10.08,10.08,0,0,0-1-2.16,16.85,16.85,0,0,0-2.37-3c-1-1.07-2.31-2.2-3.72-3.45a30.46,30.46,0,0,1-4.33-4.43,10.24,10.24,0,0,1-2.27-6.71,14.37,14.37,0,0,1,2.92-7.29c1.57-2.25,3.59-4.24,5.4-6.45a17.15,17.15,0,0,0,3.9-7.2,11.31,11.31,0,0,0-1.19-7.41c-2.24-4.42-5.64-7.53-7.58-10.8a15,15,0,0,1-2.72-8.45,8,8,0,0,1,.47-2.39,4.24,4.24,0,0,1,.35-.78,10.55,10.55,0,0,0-.61,3.18,15,15,0,0,0,2.82,8.24c2,3.2,5.38,6.27,7.7,10.78a11.76,11.76,0,0,1,1.26,7.73,17.48,17.48,0,0,1-4,7.43c-1.84,2.24-3.84,4.21-5.38,6.42a14,14,0,0,0-2.86,7,9.91,9.91,0,0,0,2.13,6.43,31.43,31.43,0,0,0,4.24,4.41c1.39,1.26,2.65,2.42,3.68,3.52a17.14,17.14,0,0,1,2.34,3.07,9.3,9.3,0,0,1,1,2.24A4.52,4.52,0,0,1,275.17,317.28Z" style="fill:#fff"></path><path d="M263.27,317.28a2.33,2.33,0,0,1-.12-.84,5.22,5.22,0,0,1,.71-2.3,14,14,0,0,1,2.31-3c1-1.08,2.34-2.15,3.71-3.38a13.85,13.85,0,0,0,3.7-4.66,11.25,11.25,0,0,0,.51-6.72,19.86,19.86,0,0,0-3-7c-1.43-2.23-3.18-4.38-4.83-6.7a26,26,0,0,1-3.89-7.37,12.51,12.51,0,0,1-.13-7.74,18.37,18.37,0,0,1,3.68-6c1.42-1.67,2.85-3.13,4-4.57a14.63,14.63,0,0,0,3.54-7.83,9.11,9.11,0,0,0-.4-3.16.73.73,0,0,1,.1.19c0,.13.13.33.21.59a7.76,7.76,0,0,1,.3,2.39,14.56,14.56,0,0,1-3.46,8c-1.15,1.47-2.56,2.95-4,4.62a17.91,17.91,0,0,0-3.55,5.85,12.08,12.08,0,0,0,.16,7.44,25.6,25.6,0,0,0,3.82,7.21c1.64,2.31,3.39,4.47,4.84,6.74a20.28,20.28,0,0,1,3,7.14,11.56,11.56,0,0,1-.59,7,14,14,0,0,1-3.84,4.76c-1.41,1.23-2.72,2.27-3.75,3.31a14.57,14.57,0,0,0-2.34,2.93,5.38,5.38,0,0,0-.78,2.21C263.22,317,263.3,317.27,263.27,317.28Z" style="fill:#fff"></path><path d="M283.94,317.28c0,.14-6.24.26-13.93.26s-13.93-.12-13.93-.26S262.31,317,270,317,283.94,317.13,283.94,317.28Z" style="fill:#fff"></path><path d="M281.94,246c0,.14-6.24.26-13.93.26s-13.93-.12-13.93-.26,6.23-.26,13.93-.26S281.94,245.84,281.94,246Z" style="fill:#fff"></path><path d="M263,234.4c0,.14-33.2.26-74.15.26s-74.15-.12-74.15-.26,33.19-.26,74.15-.26S263,234.25,263,234.4Z" style="fill:#fff"></path><path d="M132.42,237.92a72.59,72.59,0,0,1-8.62.26,72.59,72.59,0,0,1-8.62-.26,72.59,72.59,0,0,1,8.62-.26A72.59,72.59,0,0,1,132.42,237.92Z" style="fill:#fff"></path><path d="M143.48,293.76a68.84,68.84,0,0,1-8.62.27,68.84,68.84,0,0,1-8.62-.27,72.59,72.59,0,0,1,8.62-.26A72.59,72.59,0,0,1,143.48,293.76Z" style="fill:#fff"></path><path d="M143.48,308.41a72.59,72.59,0,0,1-8.62.26,72.59,72.59,0,0,1-8.62-.26,72.59,72.59,0,0,1,8.62-.26A72.59,72.59,0,0,1,143.48,308.41Z" style="fill:#fff"></path><path d="M136.62,243.83a24.64,24.64,0,0,1-5,.26,24.58,24.58,0,0,1-5-.26,24.58,24.58,0,0,1,5-.26A24.64,24.64,0,0,1,136.62,243.83Z" style="fill:#fff"></path><path d="M137.36,247a31.31,31.31,0,0,1-5.65.26,31.38,31.38,0,0,1-5.66-.26,31.38,31.38,0,0,1,5.66-.26A31.31,31.31,0,0,1,137.36,247Z" style="fill:#fff"></path><path d="M137.36,250.5a30.26,30.26,0,0,1-5.65.26,30.32,30.32,0,0,1-5.66-.26,31.38,31.38,0,0,1,5.66-.26A31.31,31.31,0,0,1,137.36,250.5Z" style="fill:#fff"></path><path d="M137.36,254a30.26,30.26,0,0,1-5.65.26,30.32,30.32,0,0,1-5.66-.26,31.38,31.38,0,0,1,5.66-.26A31.31,31.31,0,0,1,137.36,254Z" style="fill:#fff"></path><path d="M137.36,257.55a31.31,31.31,0,0,1-5.65.26,31.38,31.38,0,0,1-5.66-.26,30.32,30.32,0,0,1,5.66-.26A30.26,30.26,0,0,1,137.36,257.55Z" style="fill:#fff"></path><path d="M137.36,261.07a31.31,31.31,0,0,1-5.65.26,31.38,31.38,0,0,1-5.66-.26,30.32,30.32,0,0,1,5.66-.26A30.26,30.26,0,0,1,137.36,261.07Z" style="fill:#fff"></path><path d="M151.82,243.83a24.64,24.64,0,0,1-5,.26,24.58,24.58,0,0,1-5-.26,24.58,24.58,0,0,1,5-.26A24.64,24.64,0,0,1,151.82,243.83Z" style="fill:#fff"></path><path d="M152.56,247a31.31,31.31,0,0,1-5.65.26,31.38,31.38,0,0,1-5.66-.26,31.38,31.38,0,0,1,5.66-.26A31.31,31.31,0,0,1,152.56,247Z" style="fill:#fff"></path><path d="M152.56,250.5a30.26,30.26,0,0,1-5.65.26,30.32,30.32,0,0,1-5.66-.26,31.38,31.38,0,0,1,5.66-.26A31.31,31.31,0,0,1,152.56,250.5Z" style="fill:#fff"></path><path d="M152.56,254a30.26,30.26,0,0,1-5.65.26,30.32,30.32,0,0,1-5.66-.26,31.38,31.38,0,0,1,5.66-.26A31.31,31.31,0,0,1,152.56,254Z" style="fill:#fff"></path><path d="M152.56,257.55a31.31,31.31,0,0,1-5.65.26,31.38,31.38,0,0,1-5.66-.26,30.32,30.32,0,0,1,5.66-.26A30.26,30.26,0,0,1,152.56,257.55Z" style="fill:#fff"></path><path d="M152.56,261.07a31.31,31.31,0,0,1-5.65.26,31.38,31.38,0,0,1-5.66-.26,30.32,30.32,0,0,1,5.66-.26A30.26,30.26,0,0,1,152.56,261.07Z" style="fill:#fff"></path><path d="M137.36,265.11a31.31,31.31,0,0,1-5.65.26,31.38,31.38,0,0,1-5.66-.26,30.32,30.32,0,0,1,5.66-.26A30.26,30.26,0,0,1,137.36,265.11Z" style="fill:#fff"></path><path d="M152.56,265.11a31.31,31.31,0,0,1-5.65.26,31.38,31.38,0,0,1-5.66-.26,30.32,30.32,0,0,1,5.66-.26A30.26,30.26,0,0,1,152.56,265.11Z" style="fill:#fff"></path><path d="M137.36,269.15a31.31,31.31,0,0,1-5.65.26,31.38,31.38,0,0,1-5.66-.26,30.32,30.32,0,0,1,5.66-.26A30.26,30.26,0,0,1,137.36,269.15Z" style="fill:#fff"></path><path d="M152.56,269.15a31.31,31.31,0,0,1-5.65.26,31.38,31.38,0,0,1-5.66-.26,30.32,30.32,0,0,1,5.66-.26A30.26,30.26,0,0,1,152.56,269.15Z" style="fill:#fff"></path><path d="M137.36,273.19a31.31,31.31,0,0,1-5.65.26,31.38,31.38,0,0,1-5.66-.26,30.32,30.32,0,0,1,5.66-.26A30.26,30.26,0,0,1,137.36,273.19Z" style="fill:#fff"></path><path d="M152.56,273.19a31.31,31.31,0,0,1-5.65.26,31.38,31.38,0,0,1-5.66-.26,30.32,30.32,0,0,1,5.66-.26A30.26,30.26,0,0,1,152.56,273.19Z" style="fill:#fff"></path><path d="M137.36,277.23a31.31,31.31,0,0,1-5.65.26,31.38,31.38,0,0,1-5.66-.26,30.32,30.32,0,0,1,5.66-.26A30.26,30.26,0,0,1,137.36,277.23Z" style="fill:#fff"></path><path d="M152.56,277.23a31.31,31.31,0,0,1-5.65.26,31.38,31.38,0,0,1-5.66-.26,30.32,30.32,0,0,1,5.66-.26A30.26,30.26,0,0,1,152.56,277.23Z" style="fill:#fff"></path><path d="M113.15,324.35s0-.13,0-.36,0-.6,0-1c0-.93,0-2.28,0-4,0-3.5,0-8.58-.06-15,0-12.76-.07-30.74-.12-51.7l.24.25H79l.26-.26c0,27.91,0,53.3-.07,72.07l-.19-.19,24.93.1,6.83.05,1.78,0,.62,0-.58,0-1.75,0-6.78.05-25.05.1H78.8v-.19c0-18.77,0-44.16-.07-72.07L79,252h0l34.16,0h.25v.24c-.05,21-.09,39.06-.12,51.87,0,6.36,0,11.41-.06,14.9,0,1.71,0,3,0,4,0,.43,0,.76,0,1A1.91,1.91,0,0,1,113.15,324.35Z" style="fill:#455a64"></path><path d="M214.36,289.47c0,.14-19.56.26-43.7.26s-43.7-.12-43.7-.26,19.56-.26,43.7-.26S214.36,289.32,214.36,289.47Z" style="fill:#fff"></path><path d="M154.07,293.08a15.42,15.42,0,0,1-5.64,0,15.42,15.42,0,0,1,5.64,0Z" style="fill:#fff"></path><path d="M173.69,300.19c0,.14-10.54.26-23.54.26s-23.54-.12-23.54-.26,10.54-.26,23.54-.26S173.69,300,173.69,300.19Z" style="fill:#fff"></path><path d="M172,303.87c0,.14-10,.26-22.31.26s-22.31-.12-22.31-.26,10-.26,22.31-.26S172,303.72,172,303.87Z" style="fill:#fff"></path><path d="M186.44,299.45a15.7,15.7,0,0,1-4.05.26,15.7,15.7,0,0,1-4-.26,16.24,16.24,0,0,1,4-.26A16.24,16.24,0,0,1,186.44,299.45Z" style="fill:#fff"></path><path d="M198.69,299.45a18.49,18.49,0,0,1-4.41.26,18.49,18.49,0,0,1-4.41-.26,19.13,19.13,0,0,1,4.41-.26A19.13,19.13,0,0,1,198.69,299.45Z" style="fill:#fff"></path><path d="M233.63,317.65a2.15,2.15,0,0,1-.47.72,3.58,3.58,0,0,1-2.23,1,5.88,5.88,0,0,1-3.78-.92,17.22,17.22,0,0,1-3.61-3.7,13.26,13.26,0,0,0-4.64-3.93,13.64,13.64,0,0,0-6.81-1.38,12.41,12.41,0,0,0-7.12,2.72c-2.15,1.64-4,3.81-6.36,5.61a10.7,10.7,0,0,1-3.89,2,8,8,0,0,1-4.26-.15c-2.69-.86-4.8-2.57-7-3.66a10.7,10.7,0,0,0-3.4-1.12,9.18,9.18,0,0,0-3.36.24,25.21,25.21,0,0,0-5.66,2.44,29.74,29.74,0,0,1-4.66,2.18,12,12,0,0,1-3.84.73,7,7,0,0,1-2.43-.39c-.27-.09-.46-.2-.59-.25s-.2-.1-.19-.11a8.61,8.61,0,0,0,3.21.55,12.05,12.05,0,0,0,3.74-.8,29.91,29.91,0,0,0,4.59-2.24,24.92,24.92,0,0,1,5.72-2.53,9.64,9.64,0,0,1,3.53-.27,11,11,0,0,1,3.55,1.14c2.29,1.11,4.41,2.8,7,3.6a7.4,7.4,0,0,0,4,.13,10.3,10.3,0,0,0,3.7-1.91c2.27-1.75,4.15-3.92,6.36-5.61a12.9,12.9,0,0,1,7.4-2.79,13.92,13.92,0,0,1,7,1.47,13.58,13.58,0,0,1,4.74,4.09,17,17,0,0,0,3.48,3.69,5.77,5.77,0,0,0,3.6,1,3.57,3.57,0,0,0,2.17-.9C233.48,317.91,233.6,317.63,233.63,317.65Z" style="fill:#fff"></path><path d="M96.1,257.13a48.09,48.09,0,0,1-7,.26,48.09,48.09,0,0,1-7-.26,45.62,45.62,0,0,1,7-.27A45.62,45.62,0,0,1,96.1,257.13Z" style="fill:#fff"></path><path d="M108.68,257.37a14.86,14.86,0,0,1-3.87.26,14.79,14.79,0,0,1-3.87-.26,14.3,14.3,0,0,1,3.87-.26A14.36,14.36,0,0,1,108.68,257.37Z" style="fill:#fff"></path><path d="M96.1,260.83a48.09,48.09,0,0,1-7,.26,48.09,48.09,0,0,1-7-.26,46.46,46.46,0,0,1,7-.26A46.46,46.46,0,0,1,96.1,260.83Z" style="fill:#fff"></path><path d="M108.68,261.07a14.86,14.86,0,0,1-3.87.26,14.79,14.79,0,0,1-3.87-.26,14.3,14.3,0,0,1,3.87-.26A14.36,14.36,0,0,1,108.68,261.07Z" style="fill:#fff"></path><path d="M96.1,264.53a48.09,48.09,0,0,1-7,.26,48.09,48.09,0,0,1-7-.26,46.46,46.46,0,0,1,7-.26A46.46,46.46,0,0,1,96.1,264.53Z" style="fill:#fff"></path><path d="M108.68,264.77a14.86,14.86,0,0,1-3.87.26,14.79,14.79,0,0,1-3.87-.26,14.79,14.79,0,0,1,3.87-.26A14.86,14.86,0,0,1,108.68,264.77Z" style="fill:#fff"></path><path d="M96.1,268.23a48.09,48.09,0,0,1-7,.26,48.09,48.09,0,0,1-7-.26,48.09,48.09,0,0,1,7-.26A48.09,48.09,0,0,1,96.1,268.23Z" style="fill:#fff"></path><path d="M108.68,268.47a14.86,14.86,0,0,1-3.87.26,14.79,14.79,0,0,1-3.87-.26,14.79,14.79,0,0,1,3.87-.26A14.86,14.86,0,0,1,108.68,268.47Z" style="fill:#fff"></path><path d="M96.1,271.93a48.09,48.09,0,0,1-7,.26,48.09,48.09,0,0,1-7-.26,48.09,48.09,0,0,1,7-.26A48.09,48.09,0,0,1,96.1,271.93Z" style="fill:#fff"></path><path d="M108.68,272.17a14.36,14.36,0,0,1-3.87.26,14.3,14.3,0,0,1-3.87-.26,14.79,14.79,0,0,1,3.87-.26A14.86,14.86,0,0,1,108.68,272.17Z" style="fill:#fff"></path><path d="M96.1,275.63a46.46,46.46,0,0,1-7,.26,46.46,46.46,0,0,1-7-.26,48.09,48.09,0,0,1,7-.26A48.09,48.09,0,0,1,96.1,275.63Z" style="fill:#fff"></path><path d="M108.68,275.87a14.36,14.36,0,0,1-3.87.26,14.3,14.3,0,0,1-3.87-.26,14.79,14.79,0,0,1,3.87-.26A14.86,14.86,0,0,1,108.68,275.87Z" style="fill:#fff"></path><path d="M96.1,279.33a46.46,46.46,0,0,1-7,.26,46.46,46.46,0,0,1-7-.26,48.09,48.09,0,0,1,7-.26A48.09,48.09,0,0,1,96.1,279.33Z" style="fill:#fff"></path><path d="M108.68,279.57a14.11,14.11,0,0,1-3.87.27,14,14,0,0,1-3.87-.27,14.79,14.79,0,0,1,3.87-.26A14.86,14.86,0,0,1,108.68,279.57Z" style="fill:#fff"></path><path d="M96.1,283a46.46,46.46,0,0,1-7,.26,46.46,46.46,0,0,1-7-.26,48.09,48.09,0,0,1,7-.26A48.09,48.09,0,0,1,96.1,283Z" style="fill:#fff"></path><path d="M108.68,283.28a14.86,14.86,0,0,1-3.87.26,14.79,14.79,0,0,1-3.87-.26,14.3,14.3,0,0,1,3.87-.26A14.36,14.36,0,0,1,108.68,283.28Z" style="fill:#fff"></path><path d="M96.1,286.74a48.09,48.09,0,0,1-7,.26,48.09,48.09,0,0,1-7-.26,46.46,46.46,0,0,1,7-.26A46.46,46.46,0,0,1,96.1,286.74Z" style="fill:#fff"></path><path d="M108.68,287a14.86,14.86,0,0,1-3.87.26,14.79,14.79,0,0,1-3.87-.26,14.3,14.3,0,0,1,3.87-.26A14.36,14.36,0,0,1,108.68,287Z" style="fill:#fff"></path><path d="M96.1,290.44a48.09,48.09,0,0,1-7,.26,48.09,48.09,0,0,1-7-.26,46.46,46.46,0,0,1,7-.26A46.46,46.46,0,0,1,96.1,290.44Z" style="fill:#fff"></path><path d="M108.68,290.68a14.86,14.86,0,0,1-3.87.26,14.79,14.79,0,0,1-3.87-.26,14.3,14.3,0,0,1,3.87-.26A14.36,14.36,0,0,1,108.68,290.68Z" style="fill:#fff"></path><path d="M96.1,294.14a48.09,48.09,0,0,1-7,.26,48.09,48.09,0,0,1-7-.26,46.46,46.46,0,0,1,7-.26A46.46,46.46,0,0,1,96.1,294.14Z" style="fill:#fff"></path><path d="M108.68,294.38a14.86,14.86,0,0,1-3.87.26,14.79,14.79,0,0,1-3.87-.26,14.79,14.79,0,0,1,3.87-.26A14.86,14.86,0,0,1,108.68,294.38Z" style="fill:#fff"></path><path d="M96.1,297.84a48.09,48.09,0,0,1-7,.26,48.09,48.09,0,0,1-7-.26,48.09,48.09,0,0,1,7-.26A48.09,48.09,0,0,1,96.1,297.84Z" style="fill:#fff"></path><path d="M108.68,298.08a14.86,14.86,0,0,1-3.87.26,14.79,14.79,0,0,1-3.87-.26,14.79,14.79,0,0,1,3.87-.26A14.86,14.86,0,0,1,108.68,298.08Z" style="fill:#fff"></path><path d="M96.1,301.54a48.09,48.09,0,0,1-7,.26,48.09,48.09,0,0,1-7-.26,48.09,48.09,0,0,1,7-.26A48.09,48.09,0,0,1,96.1,301.54Z" style="fill:#fff"></path><path d="M108.68,301.78a14.36,14.36,0,0,1-3.87.26,14.3,14.3,0,0,1-3.87-.26,14.79,14.79,0,0,1,3.87-.26A14.86,14.86,0,0,1,108.68,301.78Z" style="fill:#fff"></path><path d="M96.1,305.24a46.46,46.46,0,0,1-7,.26,46.46,46.46,0,0,1-7-.26,48.09,48.09,0,0,1,7-.26A48.09,48.09,0,0,1,96.1,305.24Z" style="fill:#fff"></path><path d="M108.68,305.48a14.36,14.36,0,0,1-3.87.26,14.3,14.3,0,0,1-3.87-.26,14.79,14.79,0,0,1,3.87-.26A14.86,14.86,0,0,1,108.68,305.48Z" style="fill:#fff"></path><path d="M96.1,308.94a46.46,46.46,0,0,1-7,.26,46.46,46.46,0,0,1-7-.26,48.09,48.09,0,0,1,7-.26A48.09,48.09,0,0,1,96.1,308.94Z" style="fill:#fff"></path><path d="M108.68,309.18a14.11,14.11,0,0,1-3.87.27,14,14,0,0,1-3.87-.27,14.79,14.79,0,0,1,3.87-.26A14.86,14.86,0,0,1,108.68,309.18Z" style="fill:#fff"></path><path d="M96.1,312.64a46.46,46.46,0,0,1-7,.26,46.46,46.46,0,0,1-7-.26,48.09,48.09,0,0,1,7-.26A48.09,48.09,0,0,1,96.1,312.64Z" style="fill:#fff"></path><path d="M108.68,313a14.33,14.33,0,0,1-3.88.19,15.14,15.14,0,0,1-3.86-.34,14.49,14.49,0,0,1,3.87-.18A14.94,14.94,0,0,1,108.68,313Z" style="fill:#fff"></path><path d="M101.08,317.8a33,33,0,0,1-4.59,3.53l-.14.1-.15-.09-.17-.11a34.39,34.39,0,0,1-4.9-3.43,34.57,34.57,0,0,1,5.18,3l.17.11h-.29A31.43,31.43,0,0,1,101.08,317.8Z" style="fill:#fff"></path><rect x="89.09" y="409.87" width="251.07" height="50.72" style="fill:#90CAF9"></rect><polygon points="62.6 243.83 102.65 239.81 108.68 216.56 62.6 216.56 62.6 243.83" style="fill:#90CAF9"></polygon><polyline points="67.35 332.92 104.81 335.48 111.83 347.3 67.35 350.86 67.35 331.39" style="fill:#90CAF9"></polyline><polygon points="267.61 216.56 276.19 235.16 309.5 237.73 305.23 216.56 267.61 216.56" style="fill:#90CAF9"></polygon><polygon points="251.41 349.07 259.01 331.39 298.84 328.69 300.78 350.52 251.41 349.07" style="fill:#90CAF9"></polygon><path d="M311.51,360.54c0,.15-56.59.41-126.38.6s-126.4.21-126.4.07,56.58-.41,126.39-.59S311.51,360.4,311.51,360.54Z" style="fill:#263238"></path><polygon points="136.38 376.67 144.98 383.9 167.36 383.9 158.33 376.67 136.38 376.67" style="fill:#fff"></polygon><polygon points="177.46 376.67 186.06 383.9 208.43 383.9 199.41 376.67 177.46 376.67" style="fill:#fff"></polygon><polygon points="94.53 376.67 102.97 383.9 126.28 383.9 117.25 376.67 94.53 376.67" style="fill:#fff"></polygon><polygon points="218.54 376.67 227.13 383.9 249.51 383.9 240.48 376.67 218.54 376.67" style="fill:#fff"></polygon><polygon points="158.33 376.67 167.36 383.9 186.06 383.9 177.46 376.67 158.33 376.67" style="fill:#90CAF9"></polygon><polygon points="199.41 376.67 208.43 383.9 227.13 383.9 218.54 376.67 199.41 376.67" style="fill:#90CAF9"></polygon><polygon points="248.53 367.35 259.61 376.67 240.48 376.67 249.51 383.9 268.21 383.9 248.53 367.35" style="fill:#90CAF9"></polygon><polygon points="117.25 376.67 126.28 383.9 144.98 383.9 136.38 376.67 117.25 376.67" style="fill:#90CAF9"></polygon><polygon points="94.53 376.67 94.53 376.67 83.66 367.35 94.53 376.67" style="fill:#455a64"></polygon><polygon points="240.48 376.67 228.84 367.35 207.45 367.35 218.54 376.67 240.48 376.67" style="fill:#90CAF9"></polygon><polygon points="105.61 367.35 83.66 367.35 94.53 376.67 117.25 376.67 105.61 367.35" style="fill:#90CAF9"></polygon><polygon points="199.41 376.67 187.77 367.35 166.37 367.35 177.46 376.67 199.41 376.67" style="fill:#90CAF9"></polygon><polygon points="158.33 376.67 146.69 367.35 125.3 367.35 136.38 376.67 158.33 376.67" style="fill:#90CAF9"></polygon><polygon points="177.46 376.67 166.37 367.35 146.69 367.35 158.33 376.67 177.46 376.67" style="fill:#fff"></polygon><polygon points="218.54 376.67 207.45 367.35 187.77 367.35 199.41 376.67 218.54 376.67" style="fill:#fff"></polygon><polygon points="259.61 376.67 248.53 367.35 228.84 367.35 240.48 376.67 259.61 376.67" style="fill:#fff"></polygon><polygon points="136.38 376.67 125.3 367.35 105.61 367.35 117.25 376.67 136.38 376.67" style="fill:#fff"></polygon><g style="opacity:0.2"><polygon points="158.33 376.67 167.36 383.9 186.06 383.9 177.46 376.67 158.33 376.67"></polygon></g><g style="opacity:0.4"><polygon points="199.41 376.67 208.43 383.9 227.13 383.9 218.54 376.67 199.41 376.67"></polygon></g><g style="opacity:0.6000000000000001"><polygon points="248.53 367.35 259.61 376.67 240.48 376.67 249.51 383.9 268.21 383.9 248.53 367.35"></polygon></g><g style="opacity:0.6000000000000001"><polygon points="117.25 376.67 126.28 383.9 144.98 383.9 136.38 376.67 117.25 376.67"></polygon></g><g style="opacity:0.2"><polygon points="240.48 376.67 228.84 367.35 207.45 367.35 218.54 376.67 240.48 376.67"></polygon></g><g style="opacity:0.4"><polygon points="105.61 367.35 83.66 367.35 94.53 376.67 117.25 376.67 105.61 367.35"></polygon></g><g style="opacity:0.6000000000000001"><polygon points="199.41 376.67 187.77 367.35 166.37 367.35 177.46 376.67 199.41 376.67"></polygon></g><g style="opacity:0.4"><polygon points="158.33 376.67 146.69 367.35 125.3 367.35 136.38 376.67 158.33 376.67"></polygon></g><polygon points="268.27 367.35 287.95 383.9 320.52 383.9 301.86 367.35 268.27 367.35" style="fill:#263238"></polygon><path d="M109,460.59A2.08,2.08,0,0,1,109,460c0-.44,0-1,0-1.68,0-1.53,0-3.64-.08-6.22,0-5.33,0-12.63-.08-20.81V431h2.78l9.47,0-.24.17c1.87-6.17,3.49-11.49,4.65-15.35l1.39-4.42.39-1.18a1.52,1.52,0,0,1,.17-.4,2.36,2.36,0,0,1-.08.42l-.32,1.2L125.71,416l-4.47,15.41,0,.17H109l.26-.26c0,8.18-.06,15.48-.08,20.81,0,2.58-.06,4.69-.08,6.22,0,.69,0,1.24,0,1.68A2.7,2.7,0,0,1,109,460.59Z" style="fill:#263238"></path><path d="M311,430.93c0,.15-42.45.26-94.81.26s-94.82-.11-94.82-.26,42.44-.26,94.82-.26S311,430.79,311,430.93Z" style="fill:#263238"></path><path d="M323.49,460.59a2.87,2.87,0,0,1-.05-.6c0-.44,0-1-.05-1.7,0-1.55,0-3.69-.08-6.31,0-5.39-.05-12.78-.08-21.05l.26.26H310.82l-.05-.19c-1.53-6.1-2.85-11.35-3.8-15.15l-1.05-4.38c-.11-.48-.2-.86-.26-1.18a1.69,1.69,0,0,1-.07-.41,1.22,1.22,0,0,1,.15.39c.09.31.2.69.33,1.16.3,1.07.7,2.53,1.2,4.34,1,3.79,2.37,9,4,15.11l-.24-.18,10.2,0h2.54v.26c0,8.27-.06,15.66-.08,21.05,0,2.62-.06,4.76-.08,6.31,0,.7,0,1.26,0,1.7A2.2,2.2,0,0,1,323.49,460.59Z" style="fill:#263238"></path><path d="M312.46,413.92c.06.05-.21.32-.13.83a1,1,0,0,0,.41.68.88.88,0,0,0,1.27-.86,1,1,0,0,0-.47-.64c-.45-.26-.8-.11-.83-.19s.33-.38,1-.14a1.29,1.29,0,0,1,.79.87,1.33,1.33,0,0,1-2,1.36,1.3,1.3,0,0,1-.51-1.06C312,414.07,312.44,413.85,312.46,413.92Z" style="fill:#263238"></path><path d="M314,422.34c.06.06-.21.33-.13.84a1,1,0,0,0,.41.68.89.89,0,0,0,1.28-.86,1,1,0,0,0-.48-.64c-.44-.26-.8-.12-.82-.19s.32-.39,1-.14a1.31,1.31,0,0,1,.79.86,1.29,1.29,0,0,1-.57,1.34,1.26,1.26,0,0,1-1.45,0,1.31,1.31,0,0,1-.51-1.05C313.49,422.5,314,422.28,314,422.34Z" style="fill:#263238"></path><path d="M98.7,437.94c.07.05-.2.38,0,.92a1.08,1.08,0,0,0,.54.69.89.89,0,0,0,1-.19.91.91,0,0,0,.31-.93,1.08,1.08,0,0,0-.62-.62c-.52-.21-.88,0-.91-.06s.29-.46,1-.29a1.4,1.4,0,0,1,1,.8,1.35,1.35,0,0,1-.42,1.49A1.32,1.32,0,0,1,99,440a1.36,1.36,0,0,1-.68-1C98.22,438.18,98.68,437.88,98.7,437.94Z" style="fill:#263238"></path><path d="M99.74,448.51c0,.08-.4.22-.58.81a1.15,1.15,0,0,0,.09.95,1.07,1.07,0,0,0,1.84-.31,1.19,1.19,0,0,0-.23-.93c-.37-.5-.83-.49-.82-.57s.52-.24,1.1.33a1.52,1.52,0,0,1,.42,1.26,1.44,1.44,0,0,1-1.21,1.12,1.42,1.42,0,0,1-1.51-.66,1.45,1.45,0,0,1,0-1.33C99.17,448.46,99.76,448.45,99.74,448.51Z" style="fill:#263238"></path></g><g id="freepik--character-2--inject-4"><path d="M625.29,289.21a11.57,11.57,0,0,0-4.32-1.42,4.62,4.62,0,0,1-4-4,38.16,38.16,0,0,1,.2-8.56c.85-8,5.48-8.46,14.13-22.48a44.81,44.81,0,0,0,6-16,27.13,27.13,0,0,0,0-8.9c-.07-.38-.13-.75-.2-1.12a31.67,31.67,0,0,0-41.26-24.14c-1.69.56-3.44,1.2-5.2,1.94-11.75,4.94-20.61,22.69-20.3,36s7.52,19.05,7,19.56,2.1,12.1,3,15.5,5.79,6.13,10.22,8.18,11.24-.68,11.24-.68a6.69,6.69,0,0,1,.48,3.71c-.34,2-6.29,1.55-10,2.23l-.37,20.62-1,21.16L588,351l37.28-.28V289.21" style="fill:#455a64"></path><path d="M617.55,232.73s-25.3-7.68-21.52,21.57C596,254.3,623.07,257.69,617.55,232.73Z" style="fill:#263238"></path><path d="M585.13,253.67s10.65-25.43-8-22.89C577.09,230.78,566.94,249.19,585.13,253.67Z" style="fill:#263238"></path><path d="M550.92,285.57s4.59,1.46,5.65,2.74,2.8,5.74,4.66,6.29,4.69-.45,4.69-.45,1-5.46,3.05-7.89,2.55-1.85,2.55-1.85,5.12-.13,4.85-3c0,0-2.12-2.49-5.74,1a3,3,0,0,1-3.94.25c-2-1.66-2.32-5.69-2.12-8.4,0,0,2-4.72-1.14-5.67,0,0-2.66.19-1.2,5.71,0,0,2.33,5.87-.9,8.2,0,0-2.63,1.15-5.58-3.95l-1-1.87s-.17-4.05-3.68-4.15a.87.87,0,0,0-.89.69c-.19,1.07-.15,3.2,2.73,4.49,0,0,4,3,3.51,6.51,0,0-1.22,1.32-4.25-.07l-1.12-.4s-3.83-3.26-4.38-1.76C546,283.77,548.22,285.7,550.92,285.57Z" style="fill:#455a64"></path><g style="opacity:0.2"><path d="M620.67,210.24a4.05,4.05,0,0,1,4,3.18A4.23,4.23,0,0,1,622,218a4.16,4.16,0,0,1-4.91-1.78,4.12,4.12,0,0,1,1-5.12,4,4,0,0,1,3.35-.72" style="fill:#fff"></path></g><path d="M613.59,238.6a1.68,1.68,0,0,1,1.76,1.17,1.77,1.77,0,0,1-.91,2,1.73,1.73,0,0,1-2.1-.56,1.7,1.7,0,0,1,.23-2.15,1.66,1.66,0,0,1,1.36-.43" style="fill:#455a64"></path><path d="M612.9,244.82a.83.83,0,0,1,.89.59.88.88,0,0,1-.46,1,.84.84,0,1,1-.26-1.59" style="fill:#455a64"></path><g style="opacity:0.2"><path d="M626.72,219.63a1.6,1.6,0,1,1-1.12,0" style="fill:#fff"></path></g><path d="M603.58,257.08a3.12,3.12,0,0,0,1.2.08,15.15,15.15,0,0,0,3.23-.49,17.56,17.56,0,0,0,13.18-15.57,15.17,15.17,0,0,0-.06-3.27,3.21,3.21,0,0,0-.28-1.17c-.14,0,.14,1.71-.22,4.38a18.09,18.09,0,0,1-12.77,15.1C605.28,256.93,603.57,256.94,603.58,257.08Z" style="fill:#263238"></path><path d="M596,238.28c.2.16,2.31-3.65,6.81-6.16s8.82-2.43,8.78-2.68a6.53,6.53,0,0,0-2.78-.09,16.87,16.87,0,0,0-11.45,6.5A6.65,6.65,0,0,0,596,238.28Z" style="fill:#263238"></path><path d="M588.24,241.37a6.31,6.31,0,0,0,.43-2.31,14,14,0,0,0-.49-5.67,7.5,7.5,0,0,0-3.69-4.38,3.18,3.18,0,0,0-2.35-.37,21.22,21.22,0,0,1,2.09.86,7.73,7.73,0,0,1,3.2,4.14,17.56,17.56,0,0,1,.69,5.4A8,8,0,0,0,588.24,241.37Z" style="fill:#263238"></path><path d="M576.16,250.89c-.2.06.86,2.28,3.45,3.54s5,.76,4.91.56-2.22-.09-4.56-1.27S576.36,250.75,576.16,250.89Z" style="fill:#263238"></path><path d="M590.77,265.57c0,.08.3.4,1,.58a3.68,3.68,0,0,0,2.82-.47,3.77,3.77,0,0,0,1.67-2.32c.15-.73,0-1.18-.08-1.18s-.19.42-.45,1a3.9,3.9,0,0,1-3.88,2.42C591.23,265.58,590.82,265.46,590.77,265.57Z" style="fill:#263238"></path><path d="M595.19,284.46a6.29,6.29,0,0,0,2.71.08A16,16,0,0,0,609,278a6.22,6.22,0,0,0,1.22-2.43,18.1,18.1,0,0,0-1.67,2.09,18.68,18.68,0,0,1-4.79,4.11,18.48,18.48,0,0,1-5.9,2.25A18.2,18.2,0,0,0,595.19,284.46Z" style="fill:#263238"></path><path d="M579.55,201c-.06.23,2.48.77,4.77,2.83s3.18,4.48,3.4,4.39,0-.68-.42-1.66a9.84,9.84,0,0,0-2.46-3.31,10,10,0,0,0-3.59-2C580.23,200.94,579.56,200.94,579.55,201Z" style="fill:#455a64"></path><path d="M577.71,199.41a2.07,2.07,0,0,1,2.7.8,1.83,1.83,0,0,1-2.22,2.58,2,2,0,0,1-.93-3.1,1.15,1.15,0,0,1,1.1-.5" style="fill:#455a64"></path><path d="M586.48,198.28c-.06.23,2.49.77,4.77,2.83s3.18,4.48,3.4,4.39,0-.69-.41-1.66a9.68,9.68,0,0,0-2.47-3.32,9.82,9.82,0,0,0-3.59-2C587.16,198.18,586.5,198.18,586.48,198.28Z" style="fill:#455a64"></path><path d="M584.65,196.65a2.06,2.06,0,0,1,2.7.81,1.82,1.82,0,0,1-2.22,2.57,2,2,0,0,1-.94-3.09,1.14,1.14,0,0,1,1.1-.51" style="fill:#455a64"></path><polygon points="625.29 350.74 625.29 455.1 616.15 455.1 603.95 359.71 625.29 350.74" style="fill:#455a64"></polygon><polygon points="586.93 359.13 588.01 351.02 606.83 359.24 595.05 412.89 595.03 460.13 585.4 455.1 582.61 412.89 586.93 359.13" style="fill:#455a64"></polygon><path d="M623.66,289l.61,16.11,8,25.33-8.23,15.3,1.24,9.16,15.16-18.69A8.08,8.08,0,0,0,642,329l-9.67-34.18S630.48,289.39,623.66,289Z" style="fill:#e0e0e0"></path><path d="M589,289.34a8.16,8.16,0,0,0-5,5.94C582.2,304,578.28,326,578.28,326l-10.69-33.46-8.49,2.26s11.13,36.26,13.58,40.74c3.09,5.65,11.41,3.35,13.77-.31s8-27.66,8-27.66Z" style="fill:#e0e0e0"></path><path d="M592.11,309a13.82,13.82,0,0,0,3.85,2.69,14.18,14.18,0,0,0,4.63.78,2.93,2.93,0,0,1-1.41.3,8.15,8.15,0,0,1-6.28-2.57C592.3,309.51,592.06,309,592.11,309Z" style="fill:#263238"></path><path d="M577.78,332.52c-.15-.06.42-1.51.52-3.38s-.28-3.37-.13-3.41a7.26,7.26,0,0,1-.39,6.79Z" style="fill:#263238"></path><polygon points="625.29 347.65 625.29 353.07 605.22 360.97 587.82 352.44 588.35 347.22 625.29 347.65" style="fill:#455a64"></polygon><path d="M623.09,303.06a12.31,12.31,0,0,1,1.46,3.2,12.13,12.13,0,0,1,1,3.39,12.11,12.11,0,0,1-1.47-3.21A11.79,11.79,0,0,1,623.09,303.06Z" style="fill:#263238"></path><path d="M625.65,363.33c-.14,0-.26-4.7-.26-10.49s.12-10.5.26-10.5.26,4.7.26,10.5S625.79,363.33,625.65,363.33Z" style="fill:#263238"></path><path d="M632.08,330.57a3.26,3.26,0,0,1,2.71-.89,3.33,3.33,0,0,1,2.63,1.11,16.26,16.26,0,0,0-2.65-.59A15.57,15.57,0,0,0,632.08,330.57Z" style="fill:#263238"></path><path d="M609.28,312a51,51,0,0,0,6.18-.88,49.18,49.18,0,0,0,5.86-2.14,5,5,0,0,1-1.55,1,18.37,18.37,0,0,1-4.19,1.61,18.67,18.67,0,0,1-4.45.56A5.49,5.49,0,0,1,609.28,312Z" style="fill:#263238"></path><path d="M584.74,444.65l.7,10.14s-16.34,4.12-16.39,6l26,.06-.47-16.55Z" style="fill:#455a64"></path><path d="M625.29,440l.79,19.31,4.06,14.51s.25,1.87-2.86,0-10.3-13-10.3-13L613.2,432Z" style="fill:#455a64"></path><path d="M608.82,284.5l-7.62-.05,0,2.78L589,289.34l1.79,41.45-8.14,61,23.11,1.81s3.79-46.43,4.47-57.29S608.82,284.5,608.82,284.5Z" style="fill:#e0e0e0"></path><polygon points="607.83 284.56 605.72 393.64 632.08 391.24 625.65 325.73 627.53 289.9 621.24 286.75 620.53 283.8 607.83 284.56" style="fill:#e0e0e0"></polygon><path d="M589.46,301.31a5.45,5.45,0,0,1,.19,1.12c.09.73.2,1.78.32,3.08.23,2.59.48,6.19.62,10.17s.15,7.59.09,10.2c0,1.3-.06,2.35-.1,3.08a5.46,5.46,0,0,1-.11,1.13,4.25,4.25,0,0,1-.09-1.13c0-.84,0-1.87-.06-3.08-.05-2.61-.12-6.21-.25-10.18s-.33-7.57-.47-10.17c-.06-1.21-.11-2.24-.15-3.08A4.43,4.43,0,0,1,589.46,301.31Z" style="fill:#263238"></path><path d="M629.47,352.36s-.42.68-1.62.93a4.15,4.15,0,0,1-2.06-.15,5.09,5.09,0,0,1-2.09-1.44,8.79,8.79,0,0,1-1.9-4.07,5.87,5.87,0,0,1-.24-1.83,7.11,7.11,0,0,1,.59,1.74,10.08,10.08,0,0,0,1.93,3.81,4.83,4.83,0,0,0,1.87,1.33,4,4,0,0,0,1.85.24A5.91,5.91,0,0,0,629.47,352.36Z" style="fill:#263238"></path><path d="M622.56,348.87a27.37,27.37,0,0,1,2.13-4.82,25.92,25.92,0,0,1,2.6-4.59,28.3,28.3,0,0,1-2.13,4.82A26.68,26.68,0,0,1,622.56,348.87Z" style="fill:#263238"></path><path d="M622,367a15.47,15.47,0,0,1-2-11.31,53.82,53.82,0,0,0,.42,5.75A49.45,49.45,0,0,0,622,367Z" style="fill:#263238"></path><path d="M627.9,316.45a3.9,3.9,0,0,1-.48-1c-.27-.62-.65-1.54-1.11-2.68-.92-2.27-2.16-5.42-3.5-8.92a39.88,39.88,0,0,1-1.72-5,6.83,6.83,0,0,1,.29-4.35,4.51,4.51,0,0,1,2-2.18,2,2,0,0,1,1-.28c0,.05-.37.11-.95.45a4.59,4.59,0,0,0-1.73,2.15,6.71,6.71,0,0,0-.16,4.11,45.57,45.57,0,0,0,1.74,4.94c1.34,3.49,2.52,6.66,3.35,9,.42,1.15.74,2.09,1,2.74A4.4,4.4,0,0,1,627.9,316.45Z" style="fill:#263238"></path><path d="M603.75,393.48c-.15,0-.16-24.41,0-54.51s.34-54.52.49-54.52.16,24.4,0,54.52S603.89,393.49,603.75,393.48Z" style="fill:#263238"></path><path d="M606.64,285.62c0,.07-.08.16-.08.32s.07.27.24.25.21-.14.16-.31-.16-.21-.16-.29.21-.16.46.07a.63.63,0,0,1,.17.55.64.64,0,0,1-.55.49.63.63,0,0,1-.67-.31.62.62,0,0,1,0-.58C606.38,285.52,606.64,285.55,606.64,285.62Z" style="fill:#263238"></path><path d="M607,288.52c0,.07-.07.17-.07.32s.06.27.24.25.21-.13.16-.31-.16-.21-.16-.28.21-.17.46.06a.65.65,0,1,1-1.06.73.64.64,0,0,1,0-.58C606.71,288.42,607,288.45,607,288.52Z" style="fill:#263238"></path></g><g id="freepik--character-1--inject-4"><path d="M319.72,289a10.5,10.5,0,0,0-10.3,8.54c-2.05,8.62-6,29.72-6,29.72l-12.85-32.4-6.29,0s11.17,37.55,13.69,42c3.18,5.6,11.46,3.17,13.76-.52s7.6-27.78,7.6-27.78Z" style="fill:#e0e0e0"></path><path d="M303.92,340.19h-.18a7.21,7.21,0,0,1-3.26-.81,6.26,6.26,0,0,1-2.54-2.51c-2.5-4.39-13.58-41.61-13.69-42v0h0l6.31-.05v0l12.81,32.32c.28-1.48,4-21.39,6-29.63a11.67,11.67,0,0,1,2.5-5.08,9.9,9.9,0,0,1,3.45-2.53,11.05,11.05,0,0,1,4.37-1h0v0l-.41,19.59c0,.24-5.31,24.14-7.6,27.79a7.87,7.87,0,0,1-3.3,2.76A10.49,10.49,0,0,1,303.92,340.19ZM284.31,294.9c.38,1.28,11.21,37.62,13.67,42a6.29,6.29,0,0,0,2.52,2.49,7.15,7.15,0,0,0,3.24.8h.18a10.53,10.53,0,0,0,4.5-1.07,7.92,7.92,0,0,0,3.28-2.75c2.28-3.64,7.54-27.53,7.59-27.77L319.7,289h-.06a11.2,11.2,0,0,0-4.27,1,9.9,9.9,0,0,0-3.43,2.51,11.58,11.58,0,0,0-2.49,5.06c-2,8.51-6,29.5-6,29.71l0,.09,0-.08-12.85-32.39Z" style="fill:#263238"></path><polygon points="313.41 360.38 314.56 352.56 332.47 360.05 321.53 413.88 322.25 461.12 312.54 456.24 309.09 414.07 313.41 360.38" style="fill:#455a64"></polygon><polygon points="350.75 348.18 350.84 353.6 330.9 361.81 314.58 353.42 314.93 348.32 350.75 348.18" style="fill:#455a64"></polygon><polygon points="350.8 351.27 348.93 408.47 352.43 455.62 343.29 455.76 336.06 411.61 329.61 360.57 350.8 351.27" style="fill:#455a64"></polygon><path d="M360.85,228.23c-.07-.38-.15-.75-.22-1.12A31.68,31.68,0,0,0,319,203.61c-1.69.59-3.42,1.26-5.17,2-11.68,5.12-20.25,23-19.74,36.26s7.82,18.94,7.27,19.46,2.28,12.06,3.19,15.45,5.88,6,10.34,8,11.23-.86,11.23-.86.86.67.55,2.72-6.1,2-9.84,2.7l-.21,21.29-.89,31.38-1.29,10.05,36.36-.84-1-61.53a11.54,11.54,0,0,0-4.34-1.34,4.63,4.63,0,0,1-4.07-3.95,38.23,38.23,0,0,1,.06-8.56c.73-8,5.35-8.54,13.79-22.69A44.81,44.81,0,0,0,361,237.13,26.86,26.86,0,0,0,360.85,228.23Z" style="fill:#455a64"></path><path d="M281.11,289.92c1.08,1.27,2.9,5.69,4.77,6.21s4.68-.52,4.68-.52.9-5.47,2.93-7.94,2.52-1.89,2.52-1.89,5.11-.21,4.8-3.06c0,0-2.16-2.45-5.73,1.08a3,3,0,0,1-3.94.31c-2-1.63-2.4-5.66-2.24-8.37,0,0,2-4.75-1.23-5.65,0,0-2.66.23-1.12,5.73,0,0,2.43,5.84-.77,8.21,0,0-2.22-3.6-3.7-2.75-2.71,1.56-1.15,4.55-1.15,4.55s-1.5-1.62-2.7-.07C277.2,287.07,281.11,289.92,281.11,289.92Z" style="fill:#455a64"></path><g style="opacity:0.2"><path d="M344,210.86a4.05,4.05,0,0,1,4,3.11,4.22,4.22,0,0,1-2.53,4.58,4.16,4.16,0,0,1-4.94-1.7,4.12,4.12,0,0,1,.93-5.13,4,4,0,0,1,3.34-.77" style="fill:#fff"></path></g><path d="M337.35,239.32a1.7,1.7,0,0,1,1.79,1.14,1.78,1.78,0,0,1-.88,2,1.74,1.74,0,0,1-2.11-.53,1.7,1.7,0,0,1,.19-2.15,1.66,1.66,0,0,1,1.36-.45" style="fill:#455a64"></path><path d="M336.76,245.55a.86.86,0,0,1,.91.58.89.89,0,0,1-.45,1,.84.84,0,1,1-.28-1.59" style="fill:#455a64"></path><g style="opacity:0.2"><path d="M350.19,220.15a1.59,1.59,0,1,1-1.72,2.53,1.68,1.68,0,0,1,.6-2.48" style="fill:#fff"></path></g><path d="M302.73,202.29c-.05.23,2.5.73,4.82,2.76s3.24,4.43,3.46,4.33,0-.68-.44-1.65a10,10,0,0,0-6.13-5.26C303.41,202.18,302.75,202.2,302.73,202.29Z" style="fill:#455a64"></path><path d="M300.87,200.69a2.08,2.08,0,0,1,2.72.77,1.82,1.82,0,0,1-2.18,2.61,2,2,0,0,1-1-3.09,1.12,1.12,0,0,1,1.08-.51" style="fill:#455a64"></path><path d="M309.62,199.43c-.05.23,2.5.73,4.82,2.75s3.24,4.43,3.46,4.34,0-.69-.44-1.65a9.67,9.67,0,0,0-2.51-3.28,9.81,9.81,0,0,0-3.62-2C310.3,199.32,309.64,199.33,309.62,199.43Z" style="fill:#455a64"></path><path d="M307.76,197.83a2.06,2.06,0,0,1,2.71.77,1.82,1.82,0,0,1-2.17,2.61,2,2,0,0,1-1-3.09,1.15,1.15,0,0,1,1.08-.52" style="fill:#455a64"></path><polygon points="307.27 406.79 332.92 406.39 336.37 394.6 338.98 406.3 352.43 404.7 350.98 289.73 343.04 285.02 342.77 282.32 326.12 283.97 325.21 286.18 314.62 290.29 314.45 345.64 307.27 406.79" style="fill:#e0e0e0"></polygon><path d="M350.63,289.52s4.56,1.06,5.18,7.94c.71,7.82,3.65,39.74.66,41.89s-5.87-1.15-5.87-1.15Z" style="fill:#e0e0e0"></path><path d="M314.46,344.72c-.15,0,0-9.11.27-20.34s.65-20.34.79-20.33,0,9.11-.27,20.34S314.6,344.72,314.46,344.72Z" style="fill:#263238"></path><path d="M303,333.79c-.14-.06.4-1.51.47-3.39s-.33-3.37-.18-3.41a7.27,7.27,0,0,1-.29,6.8Z" style="fill:#263238"></path><path d="M311.72,445.8l.86,10.12s-16.28,3-16.3,4.93h26l-.23-16Z" style="fill:#455a64"></path><path d="M341.87,445.33l.86,10.12s-15.85,3.77-15.88,5.66h26l-1.16-16.29Z" style="fill:#455a64"></path><path d="M351.17,301.75c.14,0,.23,8.2.2,18.31s-.17,18.31-.32,18.31-.23-8.2-.2-18.31S351,301.75,351.17,301.75Z" style="fill:#263238"></path><path d="M342.7,285.14a10.38,10.38,0,0,1-2.52.71,50.67,50.67,0,0,1-12.6,1.09,11,11,0,0,1-2.62-.27,16.37,16.37,0,0,1,2.62-.1c1.61,0,3.84-.09,6.29-.3s4.65-.53,6.24-.78A17,17,0,0,1,342.7,285.14Z" style="fill:#263238"></path><path d="M318,364.83c.06,0-.15.43-.57,1a5.06,5.06,0,0,1-2.23,1.79,2.78,2.78,0,0,1-2.83-.59c-.55-.59-.46-1.14-.41-1.13s.15.45.66.86a2.62,2.62,0,0,0,2.4.37,5.92,5.92,0,0,0,2.13-1.54C317.58,365.1,317.89,364.78,318,364.83Z" style="fill:#263238"></path><path d="M346.56,359.24a3.54,3.54,0,0,1-.32,1l-1.05,2.64c-.88,2.22-2.09,5.29-3.33,8.72s-2.27,6.57-3,8.85c-.34,1.05-.64,1.95-.88,2.69a4.25,4.25,0,0,1-.38,1,3.53,3.53,0,0,1,.19-1c.15-.65.39-1.59.72-2.75.64-2.3,1.63-5.47,2.86-8.91s2.51-6.51,3.48-8.7c.49-1.09.9-2,1.2-2.57A4.49,4.49,0,0,1,346.56,359.24Z" style="fill:#263238"></path></g></svg>
