<svg xmlns="http://www.w3.org/2000/svg" viewBox="0 0 500 500"><g id="freepik--background-simple--inject-2"><path d="M443,107.78l-2-3.28c-16.8-27.69-47.18-44.38-79.21-42.36a83.47,83.47,0,0,0-12.26,1.69c-29.12,6.23-54.46,28.25-65,56.45-6.18,16.59-7.9,35.69-19.63,48.85-15.25,17.14-41.15,17.68-63.92,17s-48.69-.11-63.87,17.09c-9.51,10.78-12.53,26.1-11.76,40.53,2,38.2,28.64,72.35,62.49,89.33s73.71,18.49,110.76,11c51.9-10.47,101.25-39.2,130.92-83.57S466.77,155.68,443,107.78Z" style="fill:#f5f5f5"></path></g><g id="freepik--Floor--inject-2"><path d="M455.5,479.49c0,.15-91.56.26-204.49.26s-204.51-.11-204.51-.26,91.54-.26,204.51-.26S455.5,479.35,455.5,479.49Z" style="fill:#263238"></path></g><g id="freepik--Plant--inject-2"><path d="M368.39,251.83s11.81-13.59,16.27-27.19,2.34-12,2.34-12-6,13.2-10.58,19.58-12.71,15.74-12.71,15.74Z" style="fill:#455a64"></path><path d="M366,214.72a.69.69,0,0,1,1.28.44c-.72,4.78-2.28,16-2.22,23.25.08,9.44,0,13.09,0,13.09h-4.92s.88-19.52,2-25.47A40.92,40.92,0,0,1,366,214.72Z" style="fill:#455a64"></path><path d="M363.36,249.92a52,52,0,0,1-4.05-14.68c-.4-3.48.32-8.18,1.39-14.44a39.85,39.85,0,0,0,.63-7,1.18,1.18,0,0,0-2.21-.55,31,31,0,0,0-2.74,6.94c-1.19,6.19-2.54,9.28-1.51,15.16s4.84,14.91,4.84,14.91Z" style="fill:#455a64"></path><path d="M358.93,250.31s-13-27.87-13.87-32-3.95-13.67-4.31-13.13-.9,5.58,1.44,11.33,12.31,34.65,12.31,34.65h4.43" style="fill:#455a64"></path><path d="M364.78,249.07s.13-.08.36-.25.58-.42,1-.77a46.41,46.41,0,0,0,3.48-3.08A58.5,58.5,0,0,0,379,232.9,79.09,79.09,0,0,0,385.46,219c.66-1.85,1.13-3.36,1.44-4.42.16-.52.27-.93.34-1.21a2,2,0,0,0,.1-.43s-.06.14-.15.41l-.39,1.2c-.34,1-.85,2.55-1.52,4.39a84.22,84.22,0,0,1-6.48,13.83,60.52,60.52,0,0,1-9.31,12.08c-1.38,1.38-2.57,2.43-3.41,3.14l-1,.8A2.35,2.35,0,0,0,364.78,249.07Z" style="fill:#263238"></path><path d="M363.36,235.7a4.75,4.75,0,0,0,.12-.82c.06-.58.14-1.33.23-2.24.21-1.88.53-4.48,1-7.34s1-5.43,1.37-7.28l.47-2.2a4.35,4.35,0,0,0,.14-.81,7.46,7.46,0,0,0-.25.79c-.14.51-.33,1.25-.56,2.18-.44,1.84-1,4.41-1.44,7.28s-.75,5.47-.91,7.36c-.08.95-.13,1.72-.15,2.25A4.1,4.1,0,0,0,363.36,235.7Z" style="fill:#263238"></path><path d="M360.32,213.08a2.19,2.19,0,0,0-.15.35l-.39,1c-.17.45-.37,1-.56,1.66s-.44,1.39-.63,2.23c-.1.42-.21.86-.32,1.31s-.18.94-.28,1.44c-.22,1-.35,2.06-.5,3.18a50,50,0,0,0-.31,7.39A51.84,51.84,0,0,0,358,239c.24,1.11.45,2.17.73,3.14.14.49.25,1,.39,1.41l.41,1.29c.25.82.55,1.54.79,2.18s.47,1.18.68,1.61l.46,1a2,2,0,0,0,.18.34s0-.13-.13-.37-.24-.6-.42-1-.4-1-.62-1.63-.52-1.36-.75-2.18l-.4-1.29c-.13-.44-.24-.92-.37-1.41-.27-1-.47-2-.7-3.13a56.31,56.31,0,0,1-.81-7.31,54,54,0,0,1,.29-7.35c.15-1.12.27-2.19.47-3.17.1-.5.17-1,.27-1.43s.21-.9.3-1.31c.18-.84.41-1.58.59-2.24s.36-1.21.51-1.67l.34-1.05A1.52,1.52,0,0,0,360.32,213.08Z" style="fill:#263238"></path><path d="M340.9,205.74s0,0,0,.13l0,.36c.06.32.13.79.26,1.39.25,1.2.67,2.92,1.32,5s1.53,4.54,2.58,7.24,2.26,5.64,3.41,8.77,2.07,6.17,2.92,8.94,1.63,5.25,2.4,7.31a47,47,0,0,0,2,4.76c.26.55.5,1,.66,1.25l.18.32a.51.51,0,0,0,.07.1.67.67,0,0,0-.05-.12l-.15-.33c-.14-.29-.36-.71-.61-1.26a50.17,50.17,0,0,1-2-4.79c-.75-2.06-1.52-4.54-2.35-7.31s-1.73-5.83-2.9-9-2.38-6.07-3.43-8.76-2-5.13-2.64-7.21-1.11-3.8-1.4-5c-.14-.59-.23-1.06-.3-1.37l-.09-.36Z" style="fill:#263238"></path><path d="M380.89,199.59a1.12,1.12,0,0,1,1.84,1.14,34.45,34.45,0,0,1-1.63,4.19c-1.79,3.79-7,17.38-9.48,24.85s-5.9,21.39-5.9,21.39l-5.24-.85s4.79-22.88,9.47-31.13C373.71,212.55,377.47,203,380.89,199.59Z" style="fill:#455a64"></path><path d="M370.19,234.44a3,3,0,0,0-.27.62c-.15.41-.36,1-.6,1.76-.48,1.49-1.07,3.58-1.67,5.9s-1.09,4.42-1.43,5.95c-.16.73-.29,1.33-.39,1.82a3,3,0,0,0-.11.67,3,3,0,0,0,.21-.65c.13-.47.29-1.08.48-1.79l1.51-5.93c.59-2.32,1.15-4.41,1.59-5.91.2-.71.38-1.31.51-1.78A2.92,2.92,0,0,0,370.19,234.44Z" style="fill:#263238"></path><path d="M363.09,250.74l0-.14.06-.41c.05-.37.1-.9.21-1.59.19-1.38.54-3.36,1.1-5.77a82,82,0,0,1,2.45-8.37c1.07-3.1,2.42-6.45,3.95-9.92,3.08-6.93,6.15-13.07,8.17-17.62,1-2.26,1.82-4.11,2.34-5.4.26-.65.45-1.15.59-1.49.06-.16.1-.29.14-.39s.05-.14,0-.14l-.06.13c-.05.1-.1.22-.17.38-.16.35-.37.84-.64,1.46-.55,1.28-1.37,3.12-2.41,5.37-2.07,4.52-5.17,10.65-8.26,17.59-1.53,3.47-2.87,6.83-3.93,9.95a76.23,76.23,0,0,0-2.4,8.4,58.54,58.54,0,0,0-1,5.81c-.09.68-.12,1.23-.16,1.59l0,.41Q363.08,250.74,363.09,250.74Z" style="fill:#263238"></path><path d="M360.48,250.31a5.43,5.43,0,0,0,.18-.88c.1-.61.24-1.42.41-2.4.36-2,.91-4.83,1.7-7.87s1.67-5.75,2.35-7.69c.33-.94.61-1.71.82-2.3a5.53,5.53,0,0,0,.27-.85,6.05,6.05,0,0,0-.37.81c-.23.53-.55,1.3-.91,2.27a79.31,79.31,0,0,0-2.43,7.69c-.79,3-1.31,5.86-1.63,7.9-.15,1-.26,1.85-.32,2.43A5.82,5.82,0,0,0,360.48,250.31Z" style="fill:#263238"></path><rect x="349.74" y="249.56" width="20.43" height="24.9" transform="translate(719.91 524.02) rotate(180)" style="fill:#90CAF9"></rect><g style="opacity:0.30000000000000004"><rect x="349.74" y="249.56" width="20.43" height="24.9" transform="translate(719.91 524.02) rotate(180)"></rect></g><rect x="356.26" y="249.56" width="18.13" height="24.9" transform="translate(730.64 524.02) rotate(180)" style="fill:#90CAF9"></rect></g><g id="freepik--Character--inject-2"><path d="M79,359.18s25.33,11.41,51.71,11.41c24.42,0,50.27-12.29,50.27-12.29Z" style="fill:#e0e0e0"></path><rect x="123" y="359.4" width="10.46" height="109.57" style="fill:#e0e0e0"></rect><rect x="81.8" y="462.54" width="92.84" height="6.42" style="fill:#e0e0e0"></rect><path d="M93.16,471.07A7.09,7.09,0,1,1,86.08,464,7.09,7.09,0,0,1,93.16,471.07Z" style="fill:#263238"></path><path d="M134.42,471.07a7.09,7.09,0,1,1-7.09-7.09A7.09,7.09,0,0,1,134.42,471.07Z" style="fill:#263238"></path><path d="M182.21,471.07a7.09,7.09,0,1,1-7.09-7.09A7.09,7.09,0,0,1,182.21,471.07Z" style="fill:#263238"></path><rect x="116.47" y="398.83" width="14.23" height="5.89" style="fill:#e0e0e0"></rect><rect x="113.88" y="394.71" width="5.18" height="14.13" style="fill:#e0e0e0"></rect><path d="M76.52,192.41H119a0,0,0,0,1,0,0V345.24a0,0,0,0,1,0,0H64.92a0,0,0,0,1,0,0V204A11.61,11.61,0,0,1,76.52,192.41Z" style="fill:#455a64"></path><path d="M76.88,342.92c-.14,0-.26-33.16-.26-74.06s.12-74.07.26-74.07.26,33.16.26,74.07S77,342.92,76.88,342.92Z" style="fill:#263238"></path><path d="M64.92,344.93H198.73a0,0,0,0,1,0,0v16.62a0,0,0,0,1,0,0H72.87a8,8,0,0,1-8-8v-8.66A0,0,0,0,1,64.92,344.93Z" style="fill:#455a64"></path><path d="M140.66,132l-5.8,55.29c-1,9.41-.51,23.42,14.43,24.3h0c13-.21,17.56-12.1,18.47-20.87.44-4.17.8-7.64.88-8.06,0,0,14.21.15,16.69-13.68,1.2-6.68,2.54-20.64,3.61-33.28a26.15,26.15,0,0,0-21.78-28l-1.34-.23C151.27,105.89,141.81,117.38,140.66,132Z" style="fill:#ffbe9d"></path><path d="M168.64,182.63a33.89,33.89,0,0,1-17.15-8.34s2.71,10.85,16.74,11.91Z" style="fill:#eb996e"></path><path d="M164.59,139.18c-.3.25-1.79-1.19-4.12-1.47s-4.18.71-4.4.39c-.11-.15.23-.64,1-1.1a5.84,5.84,0,0,1,3.56-.67,5.76,5.76,0,0,1,3.24,1.53C164.56,138.51,164.74,139.06,164.59,139.18Z" style="fill:#263238"></path><path d="M164.36,144.53a1.9,1.9,0,0,1-2.12,1.59,1.82,1.82,0,0,1-1.65-2,1.91,1.91,0,0,1,2.12-1.59A1.82,1.82,0,0,1,164.36,144.53Z" style="fill:#263238"></path><path d="M168.94,156a14.54,14.54,0,0,1,3.56-.05c.55,0,1.09,0,1.24-.34a2.85,2.85,0,0,0-.1-1.68l-.91-4.4c-1.26-6.27-2.07-11.38-1.81-11.43s1.47,5,2.72,11.25c.3,1.55.58,3,.85,4.43a3.17,3.17,0,0,1-.08,2.18,1.35,1.35,0,0,1-1,.64,3.67,3.67,0,0,1-.95,0A14.58,14.58,0,0,1,168.94,156Z" style="fill:#263238"></path><path d="M164.41,130.31c-.28.5-2.11-.07-4.36-.16s-4.13.23-4.35-.29c-.09-.25.3-.69,1.11-1.08a6.94,6.94,0,0,1,3.36-.62,7.07,7.07,0,0,1,3.27,1C164.19,129.59,164.53,130.07,164.41,130.31Z" style="fill:#263238"></path><path d="M186.18,136.68c-.28.4-2.06-.24-4.26-.51s-4.06-.16-4.26-.62c-.08-.22.32-.56,1.12-.83a7.9,7.9,0,0,1,3.32-.24,8.19,8.19,0,0,1,3.17,1.1C186,136.05,186.31,136.49,186.18,136.68Z" style="fill:#263238"></path><path d="M140.08,142.42c-.22-.15-9.05-4.4-10.32,5.12s8.55,8.83,8.6,8.56S140.08,142.42,140.08,142.42Z" style="fill:#ffbe9d"></path><path d="M135.94,152.11s-.19.09-.48.18a1.69,1.69,0,0,1-1.25-.14c-1-.5-1.59-2.21-1.4-3.93a5.5,5.5,0,0,1,.78-2.32,1.91,1.91,0,0,1,1.42-1.1.84.84,0,0,1,.91.58c.1.28,0,.47.06.49s.23-.13.2-.54a1,1,0,0,0-.29-.64,1.28,1.28,0,0,0-.89-.37,2.37,2.37,0,0,0-1.93,1.25,5.62,5.62,0,0,0-.93,2.57c-.19,1.93.55,3.86,1.87,4.44a1.79,1.79,0,0,0,1.55-.05C135.89,152.34,136,152.13,135.94,152.11Z" style="fill:#eb996e"></path><path d="M166.07,162.37c.13-.23-1.69-1-2.85-2.85a11,11,0,0,1-1.09-2.61c-.21-.72-.38-1.18-.49-1.16s-.12.5,0,1.27a7.17,7.17,0,0,0,1,2.91,5.68,5.68,0,0,0,2.27,2.09C165.55,162.38,166,162.45,166.07,162.37Z" style="fill:#263238"></path><path d="M128.8,125.77c2.31-3.19,3.14-7.17,4.58-10.83s3.89-7.36,7.7-8.34l.08.05c3.43-1,7.51-.67,10,1.88,1.13-4.91,5.85-8.44,10.82-9.26s12.67.65,17.15,3c3.46,1.78,6.66,5.06,10.48,9.81a46.65,46.65,0,0,1,4.34,6.36l3,13.41-4.24,6.49a15.43,15.43,0,0,1-.84,1.32v0l-4.58,14.09c.15-3.94,1.7-17.56,1.85-21.51a22,22,0,0,1-14.93-8.64c-1.92-2.57-3.33-5.7-6.07-7.38-3.52-2.17-8-1.25-12.07-.25l.18-.14a17.58,17.58,0,0,0-5.76,3.4A54.48,54.48,0,0,1,146,142c-.47,1.08-1.67,3.28-2.81,3.61-2.22.63-2.6-1.61-3.78-2.89-.87-.94-2.27-1.19-3.82-1.32a87.57,87.57,0,0,1-1.7-10.16,8.75,8.75,0,0,1-4-.11l1.51-2.84a4.56,4.56,0,0,1-1.79.62A1.55,1.55,0,0,1,128,128C127.75,127.23,128.32,126.44,128.8,125.77Z" style="fill:#263238"></path><path d="M155.42,110.53a13.56,13.56,0,0,0-1.52,1.15,10,10,0,0,0-2.56,4.43,17.75,17.75,0,0,0-.69,3.51c-.12,1.29-.14,2.67-.18,4.13a36.78,36.78,0,0,1-.32,4.58,16.94,16.94,0,0,1-.53,2.38,5.09,5.09,0,0,1-1.2,2.25,2.11,2.11,0,0,1-2,.48,3.14,3.14,0,0,1-1.68-1.16,7.21,7.21,0,0,1-1-3.67l.28.06a11.82,11.82,0,0,1-2,2.77,4.16,4.16,0,0,1-2.85,1.22,2.73,2.73,0,0,1-1.41-.38,2.36,2.36,0,0,1-.89-1.05,2.44,2.44,0,0,1-.18-1.27,1.71,1.71,0,0,1,.55-1l.13.15a8.62,8.62,0,0,1-4.16,2.24,1.1,1.1,0,0,1-.34.05,1.93,1.93,0,0,1,.32-.1c.22-.07.54-.16.94-.32a9.31,9.31,0,0,0,3.1-2l.14.15a1.8,1.8,0,0,0-.29,2.06,2.09,2.09,0,0,0,.81.93,2.43,2.43,0,0,0,1.28.34,3.94,3.94,0,0,0,2.65-1.17,11.59,11.59,0,0,0,1.9-2.71l.24-.43,0,.49a7.1,7.1,0,0,0,1,3.51,2.89,2.89,0,0,0,1.5,1,1.8,1.8,0,0,0,1.73-.41,4.84,4.84,0,0,0,1.11-2.1,16.42,16.42,0,0,0,.53-2.34,37.77,37.77,0,0,0,.33-4.54c0-1.46.08-2.84.21-4.14a18,18,0,0,1,.74-3.56,9.9,9.9,0,0,1,2.7-4.45A5.77,5.77,0,0,1,155.42,110.53Z" style="fill:#455a64"></path><path d="M197.29,128.08l-.12.08-.37.22a4.88,4.88,0,0,1-.62.33c-.26.11-.55.26-.89.37a12.54,12.54,0,0,1-6.07.52,15.9,15.9,0,0,1-8.13-3.88,27.4,27.4,0,0,1-6.45-9c-.86-1.78-1.53-3.59-2.29-5.27a18.14,18.14,0,0,0-2.73-4.53,9.4,9.4,0,0,0-3.79-2.81,6.86,6.86,0,0,0-2.09-.44,7.53,7.53,0,0,0-2,.19,8.06,8.06,0,0,0-4.83,3.38,9.81,9.81,0,0,0-.91,2,.5.5,0,0,1,0-.14c0-.12.06-.25.1-.42a6.49,6.49,0,0,1,.68-1.53,7.84,7.84,0,0,1,1.75-2,8.14,8.14,0,0,1,3.13-1.56,7.1,7.1,0,0,1,4.22.21,9.78,9.78,0,0,1,3.92,2.87,18.63,18.63,0,0,1,2.79,4.59c.77,1.7,1.44,3.5,2.29,5.27a27.64,27.64,0,0,0,6.36,8.91,15.82,15.82,0,0,0,8,3.88,12.59,12.59,0,0,0,6-.42C196.6,128.49,197.27,128,197.29,128.08Z" style="fill:#455a64"></path><path d="M185.79,142c-.3.26-1.79-1.19-4.12-1.46s-4.18.7-4.39.38c-.11-.15.22-.63,1-1.1a5.86,5.86,0,0,1,3.56-.66,5.66,5.66,0,0,1,3.24,1.52C185.76,141.35,185.94,141.91,185.79,142Z" style="fill:#263238"></path><path d="M183.81,146.34a1.89,1.89,0,0,1-2.12,1.59,1.81,1.81,0,0,1-1.64-2,1.9,1.9,0,0,1,2.11-1.59A1.82,1.82,0,0,1,183.81,146.34Z" style="fill:#263238"></path><path d="M193,116.67c1,1.69,2.69,3.31,4.66,3.31a14.33,14.33,0,0,0,2.14-.39c.64.48.24,2.8-.3,3.39a12.23,12.23,0,0,1-1.62,1.36c2.16,1.47,4.31,1.08,6.84.45a12.06,12.06,0,0,1-8.11,8.85,4.25,4.25,0,0,1-3.86-.33,4.86,4.86,0,0,1-1.37-3.18,52.69,52.69,0,0,1-.37-13Z" style="fill:#263238"></path><path d="M167.17,195.6s8.8,3.57,13.81,15.75c3.52,8.56,23.1,35.58,23.1,35.58l52.06,11.56,1.78,16.61-83.27-.69-11.57-36.85Z" style="fill:#90CAF9"></path><path d="M132.11,180.25l-9.24,3.88c-8.55,3.58-19.49,11.83-23.16,20.35C90.9,225,82.92,251.37,79.86,274.7c-3.09,23.53,3.06,58.35,3.06,58.35l78.14-44.65-4.57-3.19,14.81-80.56-2.76-9.75,1.84-8.25s-20.73-8.32-35.83-14.29Z" style="fill:#90CAF9"></path><g style="opacity:0.30000000000000004"><path d="M124.65,309.77q.43-6,.86-12.07a5.28,5.28,0,0,1-3.38,1.45,35.38,35.38,0,0,0,5.17-6.21l-3.56,1.53a10.67,10.67,0,0,0,3-3.61c-1.91-1.49-4.6-1.24-7-1-12.35,1.25-24.81.42-37.21-.41a8.55,8.55,0,0,1-3.55-1s-.25-3.4.3-4.67,1.41-.9,2.71-1.37a14.34,14.34,0,0,1,4.07-.62c15.09-.8,30.21.44,45.27,1.69a4.75,4.75,0,0,1,2.65.76c1.23,1,1.12,2.88.91,4.45q-1.16,8.46-2.3,16.91"></path></g><path d="M170.38,201.41a4.34,4.34,0,0,1-.07.76l-.32,2.15c-.28,1.86-.73,4.56-1.32,7.88-1.18,6.65-2.95,15.8-5,25.88s-4.13,19.19-5.62,25.77c-.75,3.25-1.36,5.9-1.8,7.79-.21.88-.38,1.58-.51,2.11a3.5,3.5,0,0,1-.22.73,6.83,6.83,0,0,1,.12-.75q.15-.81.42-2.13c.39-1.91,1-4.56,1.63-7.83L163.11,238c2.1-10.08,3.93-19.22,5.2-25.85.61-3.27,1.12-5.94,1.48-7.85.17-.88.31-1.59.41-2.13A3.88,3.88,0,0,1,170.38,201.41Z" style="fill:#263238"></path><path d="M99.71,315.78a3.19,3.19,0,0,1,.47-.47l1.4-1.29c.6-.56,1.36-1.23,2.27-2s1.91-1.63,3.09-2.52c2.31-1.85,5.16-3.92,8.41-6.09s7-4.37,10.93-6.49,7.92-3.88,11.54-5.37,6.94-2.64,9.77-3.5c1.4-.47,2.7-.81,3.83-1.13s2.11-.57,2.91-.76l1.86-.42a2.65,2.65,0,0,1,.65-.12,3.28,3.28,0,0,1-.63.22l-1.83.52c-.79.22-1.76.49-2.88.84s-2.4.71-3.8,1.2c-2.8.91-6.1,2.12-9.7,3.6s-7.49,3.29-11.47,5.38-7.65,4.31-10.92,6.43-6.12,4.18-8.45,6c-1.19.87-2.21,1.73-3.13,2.45s-1.69,1.38-2.32,1.91l-1.46,1.21A3.14,3.14,0,0,1,99.71,315.78Z" style="fill:#263238"></path><path d="M139.82,286.29c.07.13-7.53,4.4-17,9.54s-17.15,9.21-17.22,9.08,7.53-4.39,17-9.54S139.75,286.17,139.82,286.29Z" style="fill:#263238"></path><g style="opacity:0.30000000000000004"><path d="M112.36,224.57c4.85,21,19.68,39.74,39.42,48.29A467,467,0,0,1,112.36,224.57Z"></path></g><g style="opacity:0.30000000000000004"><path d="M169.14,208.61c1.91,8.88.49,20-4,27.87l-1.11-2.3c1.57-6.67,3.82-18.5,5.07-25.57"></path></g><path d="M210.68,420.51l-9.37,28.18s25.51,19,24.28,24.37l-55.3-16.2,12.79-44.52Z" style="fill:#455a64"></path><g style="opacity:0.30000000000000004"><path d="M210.68,420.51l-9.37,28.18s25.51,19,24.28,24.37l-55.3-16.2,12.79-44.52Z"></path></g><path d="M184.91,441.29a2.34,2.34,0,0,0-2.31,2.12,2.25,2.25,0,0,0,2.08,2.31,2.48,2.48,0,0,0,2.44-2.26,2.34,2.34,0,0,0-2.43-2.16" style="fill:#e0e0e0"></path><g style="opacity:0.6000000000000001"><path d="M170.29,456.86l1.46-4.44,52.48,17.19s2.15,1.79,1.36,3.45Z" style="fill:#fff"></path></g><path d="M202.29,448.67c-.09.27-1.47,0-3.06.48s-2.62,1.4-2.84,1.22.64-1.62,2.57-2.16S202.42,448.44,202.29,448.67Z" style="fill:#263238"></path><path d="M207.39,452.77c0,.28-1.32.4-2.57,1.27s-1.87,2-2.14,1.91,0-1.66,1.59-2.72S207.46,452.51,207.39,452.77Z" style="fill:#263238"></path><path d="M208.65,460.68c-.26,0-.24-1.47.88-2.75s2.57-1.5,2.61-1.24-1,.82-1.87,1.88S208.93,460.73,208.65,460.68Z" style="fill:#263238"></path><path d="M203.71,442c-.18.22-1.31-.52-2.87-.86s-2.89-.21-3-.49,1.35-.9,3.18-.47S203.91,441.84,203.71,442Z" style="fill:#263238"></path><path d="M226.81,433.09l-1.17,29.68s29.78,11.15,30.09,16.66l-57.62-.2L198,432.91Z" style="fill:#455a64"></path><path d="M207.83,460.21a2.35,2.35,0,0,0-1.64,2.68,2.26,2.26,0,0,0,2.65,1.64,2.47,2.47,0,0,0,1.71-2.84,2.34,2.34,0,0,0-2.93-1.41" style="fill:#e0e0e0"></path><g style="opacity:0.6000000000000001"><path d="M198.11,479.23l.17-4.67,55.19,1.93s2.56,1.13,2.26,2.94Z" style="fill:#fff"></path></g><path d="M226.58,462.48c0,.28-1.42.4-2.81,1.3s-2.13,2.08-2.39,2,.17-1.74,1.87-2.8S226.64,462.22,226.58,462.48Z" style="fill:#263238"></path><path d="M232.61,465c.06.27-1.16.74-2.12,1.93s-1.24,2.45-1.52,2.43-.45-1.6.77-3.06S232.61,464.73,232.61,465Z" style="fill:#263238"></path><path d="M236,472.24c-.26.06-.64-1.35.08-2.88s2.05-2.15,2.17-1.92-.7,1.06-1.28,2.33S236.3,472.22,236,472.24Z" style="fill:#263238"></path><path d="M226.09,455.68c-.12.26-1.41-.13-3,0s-2.83.6-3,.36,1-1.24,2.93-1.34S226.23,455.46,226.09,455.68Z" style="fill:#263238"></path><path d="M157.78,287.75s69.07,18,77.65,29.91C242.67,327.77,204.65,431,204.65,431l-30-2.59,12.94-86.38-77.39-24.6,11.69-29.72Z" style="fill:#263238"></path><path d="M162.73,303.93s70.61,17.15,77.75,29.34c3.33,5.69,1.14,24.37-.1,33.19-.84,5.94-13.32,89.06-13.32,89.06H196.53l.67-93.88h0l-73.36-14.79s-39.38,3-40.92-13.8l16.44-22.28,38.8-19.17Z" style="fill:#263238"></path><path d="M157.35,301.77s.35.08,1,.27l3,.83,11.52,3.22c5,1.4,11.12,3.11,18.19,5.21s15.08,4.64,23.77,7.93q6.53,2.44,13.48,5.56l3.5,1.58a37.44,37.44,0,0,1,3.44,1.91,23.27,23.27,0,0,1,3.21,2.42,11.84,11.84,0,0,1,2.57,3.21c2.38,10.82.94,22.65-.83,34.74-.77,6.09-1.76,12.3-2.69,18.65s-1.92,12.85-2.91,19.45c-2,13.21-4,26.89-6.12,40.89-.4,2.65-.79,5.29-1.19,7.91l0,.23h-31v-.26c.27-35.58.52-67.8.72-93.87l.16.19L145,351.23l-14.23-2.92-3.7-.77c-.84-.18-1.26-.29-1.26-.29l1.27.23,3.72.72L145.09,351l52.15,10.42.16,0v.17c-.17,26.07-.38,58.29-.61,93.88l-.26-.26h30.52l-.25.22c.39-2.63.79-5.26,1.18-7.91l6.13-40.89q1.5-9.92,2.92-19.45c.94-6.35,1.94-12.56,2.72-18.65q.62-4.56,1.21-9a80.32,80.32,0,0,0,.78-8.79q.15-4.35,0-8.57c-.06-1.41-.14-2.8-.26-4.18a10.42,10.42,0,0,0-.81-3.94,11.33,11.33,0,0,0-2.47-3.09,22.48,22.48,0,0,0-3.14-2.37,34.52,34.52,0,0,0-3.4-1.9l-3.48-1.59c-4.62-2.07-9.11-3.94-13.45-5.57-8.67-3.31-16.68-5.84-23.73-8s-13.17-3.86-18.16-5.29L161.34,303l-3-.88C157.69,301.89,157.35,301.77,157.35,301.77Z" style="fill:#455a64"></path><path d="M255.14,259.31c.45-.68,6.28-7.41,7.85-7.41s3.37,1.8,3.37,1.8a5.79,5.79,0,0,1,3.36-.45c1.35.45,7.63,5.83,7.63,7.85v3.37a8.54,8.54,0,0,1,0,2.69c-.22,1.57-4,4.26-4,4.26H251.78s-4.11-2.77-3.6-5.38S255.14,259.31,255.14,259.31Z" style="fill:#ffbe9d"></path><path d="M266.36,253.7a8.81,8.81,0,0,1,1.34.76l3.56,2.25a10.27,10.27,0,0,1,1.18.8,3.25,3.25,0,0,1,.87,1.34,6.32,6.32,0,0,1,.19,1.66l.09,1.72c.12,2.35.24,4.93.37,7.63l.06,1.22v.22l-.21.05-1.32.32h-.06a2.81,2.81,0,0,1-1.69-.63,4.65,4.65,0,0,1-1.09-1.31,11.45,11.45,0,0,1-1.13-2.9,26,26,0,0,1-.74-5.17l.12.16-3.77-1.48a8.59,8.59,0,0,1-1.35-.61,8.49,8.49,0,0,1,1.42.42l3.82,1.33.11,0v.12a27.24,27.24,0,0,0,.83,5.08,11.16,11.16,0,0,0,1.11,2.76,2.94,2.94,0,0,0,2.35,1.67h-.06l1.32-.33-.2.27-.06-1.23c-.11-2.7-.23-5.27-.33-7.63,0-.59,0-1.16-.06-1.72a6.74,6.74,0,0,0-.15-1.55,2.71,2.71,0,0,0-.73-1.17,12.49,12.49,0,0,0-1.11-.8l-3.47-2.38A8.75,8.75,0,0,1,266.36,253.7Z" style="fill:#eb996e"></path><path d="M251.78,270.65a9,9,0,0,1,1.44-.19l3.93-.31h.06a43.15,43.15,0,0,0,4.43.8,23.82,23.82,0,0,0,2.59.21,2.88,2.88,0,0,0,2.37-.68,2.06,2.06,0,0,0,.37-1.31c0-.49-.07-1-.09-1.52a1.81,1.81,0,0,0-.58-1.1,4.6,4.6,0,0,0-1.07-.8,8.18,8.18,0,0,0-4.62-.82,3.6,3.6,0,0,1-3.05-1.22c-.47-.67-.43-1.16-.4-1.15a3.59,3.59,0,0,0,.56,1,3.5,3.5,0,0,0,2.89,1,8.23,8.23,0,0,1,4.85.76,5.19,5.19,0,0,1,1.19.87,2.29,2.29,0,0,1,.74,1.45c0,.46.1,1,.1,1.52a2.59,2.59,0,0,1-.49,1.64,2.33,2.33,0,0,1-1.35.77,5.85,5.85,0,0,1-1.43.09c-.92,0-1.8-.12-2.64-.23a39.35,39.35,0,0,1-4.47-.91h.06l-3.93.14A6.9,6.9,0,0,1,251.78,270.65Z" style="fill:#eb996e"></path><path d="M273.73,270.56a35.1,35.1,0,0,1,1.74-3.91,17.4,17.4,0,0,1,2-3.8,18.2,18.2,0,0,1-1.51,4A11.87,11.87,0,0,1,273.73,270.56Z" style="fill:#eb996e"></path><path d="M227,275.11l77.69,1,25-70.14a2.94,2.94,0,0,0-1.55-3.73h0a2.94,2.94,0,0,0-4,1.66l-24.65,66.42-72.56.72a2,2,0,0,0-2,2h0A2,2,0,0,0,227,275.11Z" style="fill:#263238"></path><path d="M111.23,223s38,51.66,43.89,51.66h55.45v-21l-41.93-9.89S148,201.07,143.42,195.6,126.63,182.76,117.5,191,111.23,223,111.23,223Z" style="fill:#90CAF9"></path><path d="M210.53,255.73l9.09-.73s.19-3.37,2.18-4.56,1.78-3.77,3-3.57a5.18,5.18,0,0,0,2,0l7.53-6.34,6.35-4.16,5-1s3,.79,0,3.56l-3.18,1.79-2.77,2.78,6.34-3.12a2.15,2.15,0,0,1,1.87,0,27.39,27.39,0,0,1,4.88,2.73,1.37,1.37,0,0,1,0,2l2.77,2.38s.6,3.18-2.58,2.38l-2.57-.59L247,252.62s11.51-2.38,12.3-2,1.79,2.18,0,3.76-8.73,1.19-10.31,2.78-12.08,11.17-14.66,11.76-23.74,5.76-23.74,5.76Z" style="fill:#ffbe9d"></path><path d="M255.51,247.46a14.42,14.42,0,0,1-1.56-1.1c-.47-.35-1-.76-1.68-1.2q-.48-.33-1-.66a2.29,2.29,0,0,0-1.06-.43A6.5,6.5,0,0,0,248,245c-.68.37-1.28.72-1.79,1a8.59,8.59,0,0,1-1.68.92A5.84,5.84,0,0,1,246,245.7c.49-.34,1.08-.73,1.76-1.13q.51-.3,1.08-.6a3.2,3.2,0,0,1,1.35-.42,1.07,1.07,0,0,1,.42,0,2.67,2.67,0,0,1,.34.14,5.6,5.6,0,0,1,.59.33c.37.23.71.46,1,.7.63.46,1.18.91,1.63,1.3C255.08,246.84,255.57,247.41,255.51,247.46Z" style="fill:#eb996e"></path><path d="M227.66,246.1c.08.12-.86.94-2,2s-2,1.94-2.11,1.83a6.76,6.76,0,0,1,1.75-2.21A5.9,5.9,0,0,1,227.66,246.1Z" style="fill:#eb996e"></path><path d="M143.42,195.6a24.82,24.82,0,0,1,2.2,3.19c1.31,2.17,3.16,5.41,5.38,9.6,4.47,8.38,10.62,20.53,17.83,35.32l-.14-.12,41.94,9.86.2,0V275h-2.77l-47.13,0h-5.36a5.78,5.78,0,0,1-.7,0,2.72,2.72,0,0,1-.68-.23A7.89,7.89,0,0,1,153,274a23.57,23.57,0,0,1-2-1.67,94.84,94.84,0,0,1-6.91-7.23c-4.26-4.84-8-9.51-11.45-13.79-6.82-8.58-12.15-15.67-15.81-20.57l-4.19-5.68c-.46-.65-.81-1.14-1.07-1.49s-.35-.52-.35-.52.14.16.4.49l1.11,1.46L117,230.6c3.71,4.87,9.09,11.92,15.94,20.47,3.43,4.26,7.22,8.91,11.48,13.74a96.23,96.23,0,0,0,6.9,7.17,22.27,22.27,0,0,0,2,1.63,7.55,7.55,0,0,0,1.08.65,2.23,2.23,0,0,0,1.19.21h5.36l47.13,0h2.51l-.26.26c0-7.2,0-14.24,0-21l.19.25L168.59,244l-.1,0-.05-.09c-7.16-14.81-13.26-27-17.66-35.39-2.19-4.21-4-7.46-5.28-9.65-.65-1.08-1.14-1.92-1.53-2.44S143.42,195.6,143.42,195.6Z" style="fill:#263238"></path><path d="M137.9,192.22c0,.09-1.3-.43-3.42-.91a27.92,27.92,0,0,0-3.78-.57,30.48,30.48,0,0,0-4.67,0,29.78,29.78,0,0,0-4.59.85,27.63,27.63,0,0,0-3.61,1.26c-2,.87-3.14,1.61-3.19,1.53a3.5,3.5,0,0,1,.76-.58,18.4,18.4,0,0,1,2.28-1.28,24.28,24.28,0,0,1,3.63-1.4,26.34,26.34,0,0,1,4.67-.89,26.06,26.06,0,0,1,4.76,0,25.53,25.53,0,0,1,3.83.69,18.09,18.09,0,0,1,2.47.84C137.61,192,137.92,192.18,137.9,192.22Z" style="fill:#263238"></path><path d="M161,253.36a14.69,14.69,0,0,1,2.83-4.88,14.53,14.53,0,0,1,4.13-3.85c.1.12-1.82,1.76-3.73,4.17S161.15,253.43,161,253.36Z" style="fill:#263238"></path><path d="M159.73,246.92a11.05,11.05,0,0,1,7.73-2.77c0,.16-1.83.35-4,1.13S159.82,247.05,159.73,246.92Z" style="fill:#263238"></path><path d="M195.36,354.76c-.8-1.67-2.74-2.4-4.51-3-34.93-11.26-72.41-16.66-108.52-10.1-4.34.79-8.82,1.82-12.27,4.58S64.54,354,66.38,358l7.41,2.38a472.88,472.88,0,0,1,111.22.78c2.49.32,5.11.63,7.41-.35S196.45,357,195.36,354.76Z" style="fill:#455a64"></path><path d="M154.83,343.21a.64.64,0,0,1-.24,0l-.67-.09-2.59-.38c-2.24-.36-5.49-.88-9.53-1.34a226.56,226.56,0,0,0-31.66-1.51c-3.09.06-6.11.21-9,.45s-5.71.38-8.4.62a6.14,6.14,0,0,1-1,0,5,5,0,0,0-.94,0,12,12,0,0,0-1.88.28l-3.62.76c-2.33.52-4.47,1.09-6.4,1.73a36.62,36.62,0,0,0-8.66,4c-1,.61-1.66,1.14-2.13,1.51l-.54.41c-.12.09-.19.14-.2.13l.16-.17.51-.45a22.71,22.71,0,0,1,2.09-1.6,35,35,0,0,1,8.66-4.21,66,66,0,0,1,6.41-1.8l3.63-.78a11,11,0,0,1,2-.31,5.8,5.8,0,0,1,1,0,4.39,4.39,0,0,0,1,0c2.65-.25,5.49-.42,8.4-.65s6-.4,9-.46A211.51,211.51,0,0,1,141.85,341c4,.51,7.28,1.09,9.51,1.51l2.58.48.66.14Z" style="fill:#263238"></path><path d="M67.29,286.29l59.54,2.08a1.48,1.48,0,0,1,1.41,1.69l-8.57,71.4h13.42l6.92-78.6a4.61,4.61,0,0,0-4.41-5.17l-69.91-2.5Z" style="fill:#455a64"></path></g><g id="freepik--Table--inject-2"><polygon points="383.72 281.09 374.39 281.09 374.39 283.16 394.93 479.49 404.51 479.49 383.72 281.09" style="fill:#455a64"></polygon><polygon points="175.42 281.09 184.75 281.09 184.75 283.2 165.6 479.43 156.02 479.43 175.42 281.09" style="fill:#455a64"></polygon><path d="M175.42,281.09s0,.35-.08,1-.16,1.69-.28,3c-.25,2.63-.61,6.51-1.08,11.49-1,10-2.35,24.43-4.06,42.33-3.48,35.76-8.29,85.31-13.65,140.51l-.25-.29h9.58l-.26.24c9.08-92.18,16.77-170.27,19.33-196.21h0c0-1,0-1.56,0-2.11l.07.07-7,0-1.72,0h-.57l.55,0h1.7l7.08-.05h.07v.08c0,.55,0,1.13,0,2.11h0c-2.51,25.94-10.06,104-19,196.24l0,.24h-10.1l0-.29c5.44-55.26,10.33-104.87,13.86-140.67,1.79-17.87,3.22-32.29,4.22-42.26.5-5,.89-8.8,1.15-11.43.14-1.29.24-2.28.31-3S175.42,281.09,175.42,281.09Z" style="fill:#263238"></path><rect x="152.97" y="274.7" width="267.02" height="8.45" style="fill:#455a64"></rect><path d="M391.56,283.16c0,.14-53.22.26-118.85.26s-118.87-.12-118.87-.26,53.21-.26,118.87-.26S391.56,283,391.56,283.16Z" style="fill:#263238"></path></g></svg>